<?xml version="1.0" encoding="UTF-8" standalone="no"?>
<!-- Created with Inkscape (http://www.inkscape.org/) -->

<svg
   xmlns:dc="http://purl.org/dc/elements/1.1/"
   xmlns:cc="http://creativecommons.org/ns#"
   xmlns:rdf="http://www.w3.org/1999/02/22-rdf-syntax-ns#"
   xmlns:svg="http://www.w3.org/2000/svg"
   xmlns="http://www.w3.org/2000/svg"
   xmlns:sodipodi="http://sodipodi.sourceforge.net/DTD/sodipodi-0.dtd"
   xmlns:inkscape="http://www.inkscape.org/namespaces/inkscape"
   width="210mm"
   height="297mm"
   viewBox="0 0 744.09448819 1052.3622047"
   id="svg2"
   version="1.1"
   inkscape:version="0.91 r13725"
   sodipodi:docname="each-parallel.svg"
   inkscape:export-filename="/Users/sjt/Projects/kx/code/q/docs/ref/svg/each-parallel.png"
   inkscape:export-xdpi="39.695133"
   inkscape:export-ydpi="39.695133">
  <defs
     id="defs4">
    <inkscape:perspective
       sodipodi:type="inkscape:persp3d"
       inkscape:vp_x="0 : 526.1811 : 1"
       inkscape:vp_y="0 : 1000 : 0"
       inkscape:vp_z="744.09449 : 526.1811 : 1"
       inkscape:persp3d-origin="372.04724 : 350.7874 : 1"
       id="perspective4171" />
  </defs>
  <sodipodi:namedview
     id="base"
     pagecolor="#ffffff"
     bordercolor="#666666"
     borderopacity="1.0"
     inkscape:pageopacity="0.0"
     inkscape:pageshadow="2"
     inkscape:zoom="0.90653199"
     inkscape:cx="372.04724"
     inkscape:cy="526.1811"
     inkscape:document-units="px"
     inkscape:current-layer="layer1"
     showgrid="false"
     inkscape:window-width="1880"
     inkscape:window-height="1156"
     inkscape:window-x="1925"
     inkscape:window-y="0"
     inkscape:window-maximized="0" />
  <metadata
     id="metadata7">
    <rdf:RDF>
      <cc:Work
         rdf:about="">
        <dc:format>image/svg+xml</dc:format>
        <dc:type
           rdf:resource="http://purl.org/dc/dcmitype/StillImage" />
        <dc:title></dc:title>
      </cc:Work>
    </rdf:RDF>
  </metadata>
  <g
     inkscape:label="Layer 1"
     inkscape:groupmode="layer"
     id="layer1">
    <g
       id="g5001"
       inkscape:export-filename="/Users/sjt/Projects/kx/code/q/docs/ref/img/each-parallel.png"
       inkscape:export-xdpi="39.695133"
       inkscape:export-ydpi="39.695133">
      <g
         transform="translate(-34.19626,6.6186337)"
         id="g4868">
        <rect
           y="100.94272"
           x="479.00519"
           height="31.177673"
           width="31.177673"
           id="rect4834"
           style="fill:none;fill-opacity:1;stroke:#000000;stroke-width:2.56672096;stroke-miterlimit:4;stroke-dasharray:none;stroke-opacity:1" />
        <rect
           style="fill:none;fill-opacity:1;stroke:#000000;stroke-width:1.95453644;stroke-miterlimit:4;stroke-dasharray:none;stroke-opacity:1"
           id="rect4836"
           width="109.47456"
           height="45.494465"
           x="465.22815"
           y="92.681213" />
        <rect
           y="100.94272"
           x="522.57782"
           height="31.177673"
           width="31.177673"
           id="rect4838"
           style="fill:none;fill-opacity:1;stroke:#000000;stroke-width:2.56672096;stroke-miterlimit:4;stroke-dasharray:none;stroke-opacity:1" />
      </g>
    </g>
    <g
       id="g5007"
       inkscape:export-filename="/Users/sjt/Projects/kx/code/q/docs/ref/img/each-parallel.png"
       inkscape:export-xdpi="39.695133"
       inkscape:export-ydpi="39.695133">
      <rect
         style="fill:none;fill-opacity:1;stroke:#000000;stroke-width:2.56672096;stroke-miterlimit:4;stroke-dasharray:none;stroke-opacity:1"
         id="rect4161"
         width="31.177673"
         height="31.177673"
         x="109.465"
         y="106.45824" />
      <rect
         y="106.45824"
         x="196.61029"
         height="31.177673"
         width="31.177673"
         id="rect4824"
         style="fill:none;fill-opacity:1;stroke:#000000;stroke-width:2.56672096;stroke-miterlimit:4;stroke-dasharray:none;stroke-opacity:1" />
      <rect
         style="fill:none;fill-opacity:1;stroke:#000000;stroke-width:2.56672096;stroke-miterlimit:4;stroke-dasharray:none;stroke-opacity:1"
         id="rect4826"
         width="31.177673"
         height="31.177673"
         x="153.03763"
         y="106.45824" />
      <rect
         y="99.429314"
         x="96.92054"
         height="45.235531"
         width="141.20567"
         id="rect4842"
         style="fill:none;fill-opacity:1;stroke:#000000;stroke-width:2.2134707;stroke-miterlimit:4;stroke-dasharray:none;stroke-opacity:1" />
    </g>
    <g
       id="g4995"
       transform="translate(-95.418588,3.3093109)"
       inkscape:export-filename="/Users/sjt/Projects/kx/code/q/docs/ref/img/each-parallel.png"
       inkscape:export-xdpi="39.695133"
       inkscape:export-ydpi="39.695133">
      <rect
         y="103.14893"
         x="372.004"
         height="31.177673"
         width="31.177673"
         id="rect4873"
         style="fill:none;fill-opacity:1;stroke:#000000;stroke-width:2.56672096;stroke-miterlimit:4;stroke-dasharray:none;stroke-opacity:1" />
      <rect
         style="fill:none;fill-opacity:1;stroke:#000000;stroke-width:2.56672096;stroke-miterlimit:4;stroke-dasharray:none;stroke-opacity:1"
         id="rect4877"
         width="31.177673"
         height="31.177673"
         x="459.14929"
         y="103.14893" />
      <rect
         y="103.14893"
         x="415.57663"
         height="31.177673"
         width="31.177673"
         id="rect4879"
         style="fill:none;fill-opacity:1;stroke:#000000;stroke-width:2.56672096;stroke-miterlimit:4;stroke-dasharray:none;stroke-opacity:1" />
      <rect
         style="fill:none;fill-opacity:1;stroke:#000000;stroke-width:2.2134707;stroke-miterlimit:4;stroke-dasharray:none;stroke-opacity:1"
         id="rect4881"
         width="141.20567"
         height="45.235531"
         x="359.45953"
         y="96.120003" />
    </g>
    <path
       inkscape:connector-curvature="0"
       d="m 335.86479,228.76832 c -2.27725,-0.35969 -4.60098,-0.6255 -6.94894,-0.78214 -1.31496,-0.0861 -2.64031,-0.0769 -3.96161,-0.0766 -1.26996,0.008 -2.53992,0.009 -3.80994,0.005 -1.56366,-0.12022 -2.99093,0.15893 -4.50349,0.29799 -1.82931,0.0589 -3.57716,0.34016 -5.3729,0.51279 -2.00695,0.23875 -4.06643,0.1429 -6.07978,0.33201 -2.61438,0.20612 -5.21635,0.4882 -7.84094,0.65451 -3.44328,0.26654 -6.8998,0.4897 -10.33723,0.78136 -3.85201,0.30705 -7.62365,0.86074 -11.46415,1.19696 -3.82449,0.29329 -7.62232,0.68544 -11.37574,1.19251 -3.36413,0.46431 -6.69809,0.98992 -10.00998,1.5609 -2.92403,0.51268 -5.82521,1.06548 -8.73139,1.60926 -2.87161,0.57039 -5.58724,1.36124 -8.41538,2.00033 -2.83067,0.69604 -5.66682,1.41015 -8.41625,2.20701 -3.03135,0.80565 -6.07959,1.60428 -9.14211,2.37761 -2.90116,0.7926 -5.83875,1.55374 -8.69905,2.39417 -2.70403,0.88542 -5.67027,1.45611 -8.47809,2.2167 -2.48064,0.79323 -5.1864,1.3422 -7.64375,2.15202 20.79238,-6.90479 9.89073,-3.225 5.1838,-1.57135 -2.24156,0.78585 -4.40043,1.63312 -6.68141,2.38366 -6.84958,2.34788 -13.68267,4.7113 -20.73649,6.86363 -4.19476,1.36496 -12.04144,3.74713 7.27807,-2.3638 0.43891,-0.13885 -0.84137,0.31169 -1.25838,0.47069 -1.08074,0.41211 -1.55976,0.60709 -2.60697,1.02405 -2.60896,0.98766 -5.08143,2.08037 -7.57737,3.15527 -2.32902,0.98831 -4.53745,2.05872 -6.51266,3.26896 -2.09982,1.257 -3.55082,2.77887 -5.16732,4.23053 -1.47911,1.41053 -2.98125,2.82121 -4.02424,4.35523 -0.83769,1.45048 -1.77819,2.88724 -2.37985,4.37654 -0.51753,1.48401 -0.58451,3.00252 -0.61386,4.51041 -0.0276,1.48086 -0.0196,2.96219 0.002,4.44312 0.0223,1.432 0.72877,2.80354 1.50729,4.1525 0.75573,1.52994 1.97551,2.95792 3.25793,4.36416 1.2562,1.53906 3.32891,2.76285 5.26306,4.03186 2.37554,1.42228 4.9235,2.73349 7.71584,3.88746 3.29769,1.23832 6.71297,2.37055 10.25111,3.37363 3.95618,1.14009 8.02042,2.1541 12.07056,3.18136 4.67581,0.97714 9.41971,1.84438 14.24442,2.55381 5.13537,0.91464 10.35787,1.64368 15.62844,2.25828 5.21021,0.77676 10.44638,1.49147 15.71599,2.12712 5.42275,0.64534 10.88145,1.19133 16.35515,1.67846 6.51245,0.59054 13.04612,1.10571 19.58442,1.59573 7.01901,0.55783 14.03469,1.1099 21.10186,1.42839 7.10972,0.33961 14.19491,0.81134 21.3136,1.08999 6.58256,0.2991 13.13227,0.77088 19.71728,1.05313 6.1142,0.15096 12.21118,0.44938 18.32398,0.61776 6.58371,0.0822 13.14857,0.37405 19.72661,0.53462 7.48013,0.34552 14.97434,0.55163 22.4765,0.64988 7.29307,0.0825 14.58857,0.10323 21.88302,0.0878 6.6465,-8.8e-4 13.29324,0.008 19.93971,-0.014 5.84547,0.0788 11.6779,-0.1625 17.50998,-0.34556 5.654,-0.20709 11.26754,-0.65203 16.86342,-1.14016 5.3798,-0.29926 10.74391,-0.66115 16.08357,-1.13805 4.45481,-0.39087 8.86681,-0.91008 13.23143,-1.54528 2.97609,-0.41997 5.83957,-1.04116 8.7098,-1.64396 4.79552,-1.70675 -0.15652,0.0676 -9.86169,3.15809 -0.30684,0.0977 0.58844,-0.21914 0.87336,-0.3362 0.68748,-0.28238 1.31527,-0.60469 1.93618,-0.93136 1.25736,-0.67767 2.18025,-1.51755 2.79823,-2.43017 0.6973,-0.99231 1.17464,-2.01412 1.41439,-3.07192 0.22357,-1.24273 0.22827,-2.49559 0.22643,-3.74373 -0.19624,-1.35298 -0.50921,-2.70522 -0.97466,-4.03777 -0.7194,-1.59835 -1.20345,-3.2238 -2.03955,-4.80501 -1.07589,-1.86605 -2.063,-3.74756 -3.29308,-5.5838 -1.22513,-2.27691 -2.63417,-4.5153 -4.28865,-6.70341 -1.46331,-2.31598 -2.99323,-4.61725 -4.44793,-6.93481 -1.46167,-2.29376 -2.74116,-4.62306 -4.28422,-6.90014 -1.27476,-1.98302 -2.7439,-3.92256 -4.18938,-5.86691 -1.2521,-1.59509 -2.68022,-3.14586 -4.24768,-4.64878 -1.20406,-1.30467 -2.70897,-2.49286 -4.39745,-3.6078 -1.47406,-1.08311 -3.01463,-2.13379 -4.45003,-3.2333 -1.45332,-1.11649 -3.10679,-2.14205 -4.80273,-3.14069 -1.65329,-1.05873 -3.62445,-1.92672 -5.53613,-2.82736 -1.80266,-0.98659 -3.813,-1.8306 -5.87115,-2.6363 -2.2115,-0.98412 -4.4471,-1.94596 -6.80536,-2.8151 -2.52287,-0.98618 -5.07729,-1.91207 -7.85954,-2.64411 -3.22326,-0.94154 -6.4371,-1.87731 -9.80554,-2.64222 -3.96025,-0.93453 -8.04478,-1.68408 -12.09753,-2.47733 -4.47799,-0.99413 -9.08238,-1.78365 -13.6522,-2.62817 -5.17417,-1.0196 -10.35372,-2.01756 -15.64799,-2.81921 -5.45199,-0.93441 -10.99549,-1.67609 -16.56595,-2.3437 -5.1509,-0.58799 -10.31543,-1.13914 -15.48187,-1.68191 -4.48143,-0.48478 -8.92521,-1.06054 -13.44718,-1.4126 -1.79488,-0.1857 -3.59175,-0.35682 -5.39774,-0.50334 0,0 11.29053,-4.49348 11.29053,-4.49348 l 0,0 c 1.79197,0.16177 3.57305,0.3529 5.36501,0.51479 4.50021,0.41292 8.93984,0.99231 13.42255,1.46089 5.15629,0.57671 10.32904,1.10568 15.47575,1.71003 5.56451,0.71915 11.11442,1.46772 16.59005,2.38381 5.29889,0.85307 10.51603,1.83962 15.73805,2.83189 4.56872,0.86907 9.18744,1.65292 13.6909,2.62898 4.07246,0.81573 8.19271,1.55722 12.18517,2.49612 3.36176,0.81 6.60913,1.74475 9.87726,2.66785 2.80153,0.78706 5.41659,1.73303 8.0092,2.72177 2.32433,0.90537 4.57041,1.8681 6.82366,2.82849 2.07464,0.8346 4.09648,1.70025 5.95223,2.6897 1.93065,0.9319 3.9212,1.82613 5.60981,2.90538 1.71144,1.03757 3.42347,2.07664 4.9129,3.22163 1.3877,1.09607 2.93761,2.12057 4.38283,3.19195 1.70164,1.16712 3.2709,2.38134 4.49359,3.73289 1.56486,1.54703 3.02587,3.1239 4.30354,4.7548 1.38558,1.9681 2.92056,3.90178 4.16138,5.90189 1.49256,2.29526 2.80964,4.62264 4.30456,6.9177 1.37247,2.31626 2.93988,4.59347 4.39839,6.89216 1.61061,2.2078 3.09857,4.43701 4.34905,6.71939 1.2158,1.85665 2.29069,3.73644 3.37233,5.61956 0.84898,1.60522 1.40325,3.23694 2.14573,4.8585 0.47791,1.38112 0.83869,2.77018 1.11876,4.16902 -0.0102,1.27235 0.007,2.54509 -0.11913,3.81617 -0.21643,1.10251 -0.52232,2.19078 -1.28228,3.22273 -0.5562,1.0114 -1.32743,1.93522 -2.51676,2.76627 -4.70591,2.65811 -10.62542,4.50679 -16.79167,5.95056 -2.87089,0.58621 -5.75251,1.15647 -8.73174,1.54588 -4.3755,0.58549 -8.78749,1.07275 -13.23326,1.45625 -5.33668,0.4357 -10.69252,0.76462 -16.04675,1.12059 -5.62661,0.45861 -11.26108,0.90241 -16.94234,1.08058 -5.8354,0.15784 -11.66669,0.38512 -17.5133,0.29808 -6.63078,-0.0179 -13.26173,-0.003 -19.89255,-0.007 -7.2867,-0.0259 -14.57407,-0.0166 -21.85919,-0.12311 -7.52283,-0.14268 -15.03868,-0.33446 -22.54697,-0.63912 -6.58853,-0.19262 -13.17302,-0.4243 -19.76905,-0.52334 -6.1174,-0.2033 -12.22991,-0.44185 -18.34846,-0.6356 -6.5615,-0.33667 -13.10297,-0.78289 -19.6735,-1.06411 -7.10777,-0.33335 -14.19409,-0.78398 -21.30429,-1.10331 -7.07833,-0.37211 -14.11433,-0.91292 -21.15833,-1.45299 -6.55544,-0.52656 -13.12405,-1.00027 -19.66419,-1.58657 -5.49681,-0.51713 -10.9945,-1.03258 -16.44351,-1.69709 -5.24534,-0.67704 -10.47403,-1.38815 -15.69139,-2.13009 -5.27714,-0.65796 -10.51483,-1.39159 -15.68494,-2.28482 -4.87264,-0.76098 -9.70485,-1.6074 -14.42116,-2.64129 -4.04816,-1.05994 -8.15318,-2.05115 -12.12464,-3.20276 -3.57683,-1.05231 -7.06728,-2.19022 -10.40374,-3.47408 -2.83305,-1.2179 -5.49005,-2.54777 -7.91848,-4.02266 -1.98223,-1.32976 -4.1393,-2.58952 -5.46061,-4.18364 -1.26624,-1.45467 -2.5651,-2.90462 -3.37225,-4.46712 -0.8042,-1.42641 -1.5955,-2.8566 -1.71438,-4.36562 0.008,-1.48661 -0.008,-2.97327 0.005,-4.4599 0.0482,-1.55272 0.061,-3.10998 0.47534,-4.64924 0.5758,-1.52908 1.49037,-2.98862 2.32188,-4.47911 0.21998,-0.35193 0.78013,-1.27321 1.04826,-1.59371 0.83744,-1.00095 2.02245,-1.91332 2.85042,-2.91906 1.69918,-1.45073 3.08397,-3.01271 5.08383,-4.34537 1.94537,-1.25727 4.05143,-2.40625 6.42314,-3.41057 2.51472,-1.06619 4.94849,-2.19272 7.56525,-3.17982 6.43532,-2.57567 13.30329,-4.76209 20.21616,-6.90401 3.78182,-1.19307 9.816,-3.10295 -8.69182,2.87188 -0.49222,0.15889 0.95306,-0.34703 1.43296,-0.51755 1.43137,-0.50868 2.85405,-1.02641 4.31733,-1.50533 2.26992,-0.75716 4.51656,-1.51103 6.67382,-2.36586 6.14547,-2.09405 12.04784,-4.40871 18.54873,-6.17197 2.54605,-0.71281 5.12256,-1.39177 7.67097,-2.10235 2.84237,-0.71125 5.71761,-1.383 8.44135,-2.23656 2.8935,-0.8044 5.78444,-1.61464 8.72317,-2.36484 3.04359,-0.80053 6.1324,-1.54564 9.12711,-2.40326 2.79728,-0.75811 5.60312,-1.51388 8.48232,-2.16767 2.80962,-0.67507 5.55886,-1.44437 8.47925,-1.95886 2.90124,-0.54747 5.80752,-1.08779 8.73786,-1.58363 3.31981,-0.55658 6.66505,-1.06522 10.03832,-1.50803 3.77183,-0.47053 7.57846,-0.8371 11.40174,-1.14709 3.83912,-0.39993 7.64963,-0.89253 11.51891,-1.19659 3.45147,-0.27192 6.9091,-0.52171 10.3635,-0.78144 2.63841,-0.22986 5.27145,-0.47748 7.91741,-0.67841 2.02037,-0.0976 4.05769,-0.12743 6.04413,-0.38315 1.78775,-0.21965 3.59305,-0.34132 5.39507,-0.51462 1.54605,-0.18224 3.08613,-0.22489 4.66488,-0.18767 1.27755,-0.008 2.55531,-0.0148 3.8329,-0.005 1.35202,0.0109 2.70505,0.0398 4.03915,0.17654 2.36424,0.22473 4.6957,0.53959 7.02878,0.84939 0,0 -11.47453,4.47562 -11.47453,4.47562 z"
       id="path4937"
       style="fill:#808080;fill-opacity:1;stroke:#808080;stroke-width:3.83807564;stroke-miterlimit:4;stroke-dasharray:none;stroke-opacity:1"
       inkscape:export-filename="/Users/sjt/Projects/kx/code/q/docs/ref/img/each-parallel.png"
       inkscape:export-xdpi="39.695133"
       inkscape:export-ydpi="39.695133" />
    <rect
       style="fill:none;fill-opacity:1;stroke:#000000;stroke-width:2.56672096;stroke-miterlimit:4;stroke-dasharray:none;stroke-opacity:1"
       id="rect4935"
       width="31.177673"
       height="31.177673"
       x="338.91086"
       y="261.99606"
       inkscape:export-filename="/Users/sjt/Projects/kx/code/q/docs/ref/img/each-parallel.png"
       inkscape:export-xdpi="39.695133"
       inkscape:export-ydpi="39.695133" />
    <rect
       y="261.99606"
       x="426.05615"
       height="31.177673"
       width="31.177673"
       id="rect4939"
       style="fill:none;fill-opacity:1;stroke:#000000;stroke-width:2.56672096;stroke-miterlimit:4;stroke-dasharray:none;stroke-opacity:1"
       inkscape:export-filename="/Users/sjt/Projects/kx/code/q/docs/ref/img/each-parallel.png"
       inkscape:export-xdpi="39.695133"
       inkscape:export-ydpi="39.695133" />
    <rect
       style="fill:none;fill-opacity:1;stroke:#000000;stroke-width:2.56672096;stroke-miterlimit:4;stroke-dasharray:none;stroke-opacity:1"
       id="rect4941"
       width="31.177673"
       height="31.177673"
       x="382.48349"
       y="261.99606"
       inkscape:export-filename="/Users/sjt/Projects/kx/code/q/docs/ref/img/each-parallel.png"
       inkscape:export-xdpi="39.695133"
       inkscape:export-ydpi="39.695133" />
    <rect
       y="254.96713"
       x="326.36639"
       height="45.235531"
       width="141.20567"
       id="rect4943"
       style="fill:none;fill-opacity:1;stroke:#000000;stroke-width:2.2134707;stroke-miterlimit:4;stroke-dasharray:none;stroke-opacity:1"
       inkscape:export-filename="/Users/sjt/Projects/kx/code/q/docs/ref/img/each-parallel.png"
       inkscape:export-xdpi="39.695133"
       inkscape:export-ydpi="39.695133" />
    <flowRoot
       xml:space="preserve"
       id="flowRoot5087"
       style="font-style:normal;font-variant:normal;font-weight:normal;font-stretch:normal;font-size:40px;line-height:125%;font-family:'Courier New';-inkscape-font-specification:'Courier New';letter-spacing:0px;word-spacing:0px;fill:#000000;fill-opacity:1;stroke:none;stroke-width:1px;stroke-linecap:butt;stroke-linejoin:miter;stroke-opacity:1"
       transform="translate(71.701828,-273.57005)"
       inkscape:export-filename="/Users/sjt/Projects/kx/code/q/docs/ref/img/each-parallel.png"
       inkscape:export-xdpi="39.695133"
       inkscape:export-ydpi="39.695133"><flowRegion
         id="flowRegion5089"><rect
           id="rect5091"
           width="173.18748"
           height="59.567665"
           x="95.970139"
           y="526.18109"
           style="font-style:normal;font-variant:normal;font-weight:normal;font-stretch:normal;font-family:'Courier New';-inkscape-font-specification:'Courier New'" /></flowRegion><flowPara
         id="flowPara5093">f each</flowPara></flowRoot>    <g
       transform="translate(56.258357,9.9279439)"
       id="g5137"
       inkscape:export-filename="/Users/sjt/Projects/kx/code/q/docs/ref/img/each-parallel.png"
       inkscape:export-xdpi="39.695133"
       inkscape:export-ydpi="39.695133">
      <path
         inkscape:connector-curvature="0"
         d="m 284.01885,337.97572 c -2.27725,-0.35969 -4.60098,-0.6255 -6.94894,-0.78214 -1.31496,-0.0861 -2.64031,-0.0769 -3.96161,-0.0766 -1.26996,0.008 -2.53992,0.009 -3.80994,0.005 -1.56366,-0.12022 -2.99093,0.15893 -4.50349,0.29799 -1.82931,0.0589 -3.57716,0.34016 -5.3729,0.51279 -2.00695,0.23875 -4.06643,0.1429 -6.07978,0.33201 -2.61438,0.20612 -5.21635,0.4882 -7.84094,0.65451 -3.44328,0.26654 -6.8998,0.4897 -10.33723,0.78136 -3.85201,0.30705 -7.62365,0.86074 -11.46415,1.19696 -3.82449,0.29329 -7.62232,0.68544 -11.37574,1.19251 -3.36413,0.46431 -6.69809,0.98992 -10.00998,1.5609 -2.92403,0.51268 -5.82521,1.06548 -8.73139,1.60926 -2.87161,0.57039 -5.58724,1.36124 -8.41538,2.00033 -2.83067,0.69604 -5.66682,1.41015 -8.41625,2.20701 -3.03135,0.80565 -6.07959,1.60428 -9.14211,2.37761 -2.90116,0.7926 -5.83875,1.55374 -8.69905,2.39417 -2.70403,0.88542 -5.67027,1.45611 -8.47809,2.2167 -2.48064,0.79323 -5.1864,1.3422 -7.64375,2.15202 20.79238,-6.90479 9.89073,-3.225 5.1838,-1.57135 -2.24156,0.78585 -4.40043,1.63312 -6.68141,2.38366 -6.84958,2.34788 -13.68267,4.7113 -20.73649,6.86363 -4.19476,1.36496 -12.04144,3.74713 7.27807,-2.3638 0.43891,-0.13885 -0.84137,0.31169 -1.25838,0.47069 -1.08074,0.41211 -1.55976,0.60709 -2.60697,1.02405 -2.60896,0.98766 -5.08143,2.08037 -7.57737,3.15527 -2.32902,0.98831 -4.53745,2.05872 -6.51266,3.26896 -2.09982,1.257 -3.55082,2.77887 -5.16732,4.23053 -1.47911,1.41053 -2.98125,2.82121 -4.02424,4.35523 -0.837683,1.45048 -1.778186,2.88724 -2.379846,4.37654 -0.517535,1.48401 -0.584514,3.00252 -0.613861,4.51041 -0.02758,1.48086 -0.01964,2.96219 0.002,4.44312 0.02228,1.432 0.728769,2.80354 1.50729,4.1525 0.755726,1.52994 1.975507,2.95792 3.257927,4.36416 1.2562,1.53906 3.32891,2.76285 5.26306,4.03186 2.37554,1.42228 4.9235,2.73349 7.71584,3.88746 3.29769,1.23832 6.71297,2.37055 10.25111,3.37363 3.95618,1.14009 8.02042,2.1541 12.07056,3.18136 4.67581,0.97714 9.41971,1.84438 14.24442,2.55381 5.13537,0.91464 10.35787,1.64368 15.62844,2.25828 5.21021,0.77676 10.44638,1.49147 15.71599,2.12712 5.42275,0.64534 10.88145,1.19133 16.35515,1.67846 6.51245,0.59054 13.04612,1.10571 19.58442,1.59573 7.01901,0.55783 14.03469,1.1099 21.10186,1.42839 7.10972,0.33961 14.19491,0.81134 21.3136,1.08999 6.58256,0.2991 13.13227,0.77088 19.71728,1.05313 6.1142,0.15096 12.21118,0.44938 18.32398,0.61776 6.58371,0.0822 13.14857,0.37405 19.72661,0.53462 7.48013,0.34552 14.97434,0.55163 22.4765,0.64988 7.29307,0.0825 14.58857,0.10323 21.88302,0.0878 6.6465,-8.8e-4 13.29324,0.008 19.93971,-0.014 5.84547,0.0788 11.6779,-0.1625 17.50998,-0.34556 5.654,-0.20709 11.26754,-0.65203 16.86342,-1.14016 5.3798,-0.29926 10.74391,-0.66115 16.08357,-1.13805 4.45481,-0.39087 8.86681,-0.91008 13.23143,-1.54528 2.97609,-0.41997 5.83957,-1.04116 8.7098,-1.64396 4.79552,-1.70675 -0.15652,0.0676 -9.86169,3.15809 -0.30684,0.0977 0.58844,-0.21914 0.87336,-0.3362 0.68748,-0.28238 1.31527,-0.60469 1.93618,-0.93136 1.25736,-0.67767 2.18025,-1.51755 2.79823,-2.43017 0.6973,-0.99231 1.17464,-2.01412 1.41439,-3.07192 0.22357,-1.24273 0.22827,-2.49559 0.22643,-3.74373 -0.19624,-1.35298 -0.50921,-2.70522 -0.97466,-4.03777 -0.7194,-1.59835 -1.20345,-3.2238 -2.03955,-4.80501 -1.07589,-1.86605 -2.063,-3.74756 -3.29308,-5.5838 -1.22513,-2.27691 -2.63417,-4.5153 -4.28865,-6.70341 -1.46331,-2.31598 -2.99323,-4.61725 -4.44793,-6.93481 -1.46167,-2.29376 -2.74116,-4.62306 -4.28422,-6.90014 -1.27476,-1.98302 -2.7439,-3.92256 -4.18938,-5.86691 -1.2521,-1.59509 -2.68022,-3.14586 -4.24768,-4.64878 -1.20406,-1.30467 -2.70897,-2.49286 -4.39745,-3.6078 -1.47406,-1.08311 -3.01463,-2.13379 -4.45003,-3.2333 -1.45332,-1.11649 -3.10679,-2.14205 -4.80273,-3.14069 -1.65329,-1.05873 -3.62445,-1.92672 -5.53613,-2.82736 -1.80266,-0.98659 -3.813,-1.8306 -5.87115,-2.6363 -2.2115,-0.98412 -4.4471,-1.94596 -6.80536,-2.8151 -2.52287,-0.98618 -5.07729,-1.91207 -7.85954,-2.64411 -3.22326,-0.94154 -6.4371,-1.87731 -9.80554,-2.64222 -3.96025,-0.93453 -8.04478,-1.68408 -12.09753,-2.47733 -4.47799,-0.99413 -9.08238,-1.78365 -13.6522,-2.62817 -5.17417,-1.0196 -10.35372,-2.01756 -15.64799,-2.81921 -5.45199,-0.93441 -10.99549,-1.67609 -16.56595,-2.3437 -5.1509,-0.58799 -10.31543,-1.13914 -15.48187,-1.68191 -4.48143,-0.48478 -8.92521,-1.06054 -13.44718,-1.4126 -1.79488,-0.1857 -3.59175,-0.35682 -5.39774,-0.50334 0,0 11.29053,-4.49348 11.29053,-4.49348 l 0,0 c 1.79197,0.16177 3.57305,0.3529 5.36501,0.51479 4.50021,0.41292 8.93984,0.99231 13.42255,1.46089 5.15629,0.57671 10.32904,1.10568 15.47575,1.71003 5.56451,0.71915 11.11442,1.46772 16.59005,2.38381 5.29889,0.85307 10.51603,1.83962 15.73805,2.83189 4.56872,0.86907 9.18744,1.65292 13.6909,2.62898 4.07246,0.81573 8.19271,1.55722 12.18517,2.49612 3.36176,0.81 6.60913,1.74475 9.87726,2.66785 2.80153,0.78706 5.41659,1.73303 8.0092,2.72177 2.32433,0.90537 4.57041,1.8681 6.82366,2.82849 2.07464,0.8346 4.09648,1.70025 5.95223,2.6897 1.93065,0.9319 3.9212,1.82613 5.60981,2.90538 1.71144,1.03757 3.42347,2.07664 4.9129,3.22163 1.3877,1.09607 2.93761,2.12057 4.38283,3.19195 1.70164,1.16712 3.2709,2.38134 4.49359,3.73289 1.56486,1.54703 3.02587,3.1239 4.30354,4.7548 1.38558,1.9681 2.92056,3.90178 4.16138,5.90189 1.49256,2.29526 2.80964,4.62264 4.30456,6.9177 1.37247,2.31626 2.93988,4.59347 4.39839,6.89216 1.61061,2.2078 3.09857,4.43701 4.34905,6.71939 1.2158,1.85665 2.29069,3.73644 3.37233,5.61956 0.84898,1.60522 1.40325,3.23694 2.14573,4.8585 0.47791,1.38112 0.83869,2.77018 1.11876,4.16902 -0.0102,1.27235 0.007,2.54509 -0.11913,3.81617 -0.21643,1.10251 -0.52232,2.19078 -1.28228,3.22273 -0.5562,1.0114 -1.32743,1.93522 -2.51676,2.76627 -4.70591,2.65811 -10.62542,4.50679 -16.79167,5.95056 -2.87089,0.58621 -5.75251,1.15647 -8.73174,1.54588 -4.3755,0.58549 -8.78749,1.07275 -13.23326,1.45625 -5.33668,0.4357 -10.69252,0.76462 -16.04675,1.12059 -5.62661,0.45861 -11.26108,0.90241 -16.94234,1.08058 -5.8354,0.15784 -11.66669,0.38512 -17.5133,0.29808 -6.63078,-0.0179 -13.26173,-0.003 -19.89255,-0.007 -7.2867,-0.0259 -14.57407,-0.0166 -21.85919,-0.12311 -7.52283,-0.14268 -15.03868,-0.33446 -22.54697,-0.63912 -6.58853,-0.19262 -13.17302,-0.4243 -19.76905,-0.52334 -6.1174,-0.2033 -12.22991,-0.44185 -18.34846,-0.6356 -6.5615,-0.33667 -13.10297,-0.78289 -19.6735,-1.06411 -7.10777,-0.33335 -14.19409,-0.78398 -21.30429,-1.10331 -7.07833,-0.37211 -14.11433,-0.91292 -21.15833,-1.45299 -6.55544,-0.52656 -13.12405,-1.00027 -19.66419,-1.58657 -5.49681,-0.51713 -10.9945,-1.03258 -16.44351,-1.69709 -5.24534,-0.67704 -10.47403,-1.38815 -15.69139,-2.13009 -5.27714,-0.65796 -10.51483,-1.39159 -15.68494,-2.28482 -4.87264,-0.76098 -9.70485,-1.6074 -14.42116,-2.64129 -4.04816,-1.05994 -8.15318,-2.05115 -12.12464,-3.20276 -3.57683,-1.05231 -7.06728,-2.19022 -10.40374,-3.47408 -2.83305,-1.2179 -5.490044,-2.54777 -7.918472,-4.02266 -1.982237,-1.32976 -4.1393,-2.58952 -5.460614,-4.18364 -1.266237,-1.45467 -2.565104,-2.90462 -3.372254,-4.46712 -0.804193,-1.42641 -1.595493,-2.8566 -1.714373,-4.36562 0.0083,-1.48661 -0.0083,-2.97327 0.005,-4.4599 0.04817,-1.55272 0.06097,-3.10998 0.475334,-4.64924 0.575805,-1.52908 1.490371,-2.98862 2.321878,-4.47911 0.219982,-0.35193 0.780135,-1.27321 1.048267,-1.59371 0.83744,-1.00095 2.022445,-1.91332 2.850414,-2.91906 1.69918,-1.45073 3.08397,-3.01271 5.083833,-4.34537 1.945369,-1.25727 4.051427,-2.40625 6.423137,-3.41057 2.51472,-1.06619 4.94849,-2.19272 7.56525,-3.17982 6.43532,-2.57567 13.30329,-4.76209 20.21616,-6.90401 3.78182,-1.19307 9.816,-3.10295 -8.69182,2.87188 -0.49222,0.15889 0.95306,-0.34703 1.43296,-0.51755 1.43137,-0.50868 2.85405,-1.02641 4.31733,-1.50533 2.26992,-0.75716 4.51656,-1.51103 6.67382,-2.36586 6.14547,-2.09405 12.04784,-4.40871 18.54873,-6.17197 2.54605,-0.71281 5.12256,-1.39177 7.67097,-2.10235 2.84237,-0.71125 5.71761,-1.383 8.44135,-2.23656 2.8935,-0.8044 5.78444,-1.61464 8.72317,-2.36484 3.04359,-0.80053 6.1324,-1.54564 9.12711,-2.40326 2.79728,-0.75811 5.60312,-1.51388 8.48232,-2.16767 2.80962,-0.67507 5.55886,-1.44437 8.47925,-1.95886 2.90124,-0.54747 5.80752,-1.08779 8.73786,-1.58363 3.31981,-0.55658 6.66505,-1.06522 10.03832,-1.50803 3.77183,-0.47053 7.57846,-0.8371 11.40174,-1.14709 3.83912,-0.39993 7.64963,-0.89253 11.51891,-1.19659 3.45147,-0.27192 6.9091,-0.52171 10.3635,-0.78144 2.63841,-0.22986 5.27145,-0.47748 7.91741,-0.67841 2.02037,-0.0976 4.05769,-0.12743 6.04413,-0.38315 1.78775,-0.21965 3.59305,-0.34132 5.39507,-0.51462 1.54605,-0.18224 3.08613,-0.22489 4.66488,-0.18767 1.27755,-0.008 2.55531,-0.0148 3.8329,-0.005 1.35202,0.0109 2.70505,0.0398 4.03915,0.17654 2.36424,0.22473 4.6957,0.53959 7.02878,0.84939 0,0 -11.47453,4.47562 -11.47453,4.47562 z"
         id="path5139"
         style="fill:#808080;fill-opacity:1;stroke:#808080;stroke-width:3.83807564;stroke-miterlimit:4;stroke-dasharray:none;stroke-opacity:1" />
      <g
         id="g5141">
        <rect
           y="371.20346"
           x="287.06491"
           height="31.177673"
           width="31.177673"
           id="rect5143"
           style="fill:none;fill-opacity:1;stroke:#000000;stroke-width:2.56672096;stroke-miterlimit:4;stroke-dasharray:none;stroke-opacity:1" />
        <rect
           style="fill:none;fill-opacity:1;stroke:#000000;stroke-width:2.56672096;stroke-miterlimit:4;stroke-dasharray:none;stroke-opacity:1"
           id="rect5145"
           width="31.177673"
           height="31.177673"
           x="374.21021"
           y="371.20346" />
        <rect
           y="371.20346"
           x="330.63754"
           height="31.177673"
           width="31.177673"
           id="rect5147"
           style="fill:none;fill-opacity:1;stroke:#000000;stroke-width:2.56672096;stroke-miterlimit:4;stroke-dasharray:none;stroke-opacity:1" />
        <rect
           style="fill:none;fill-opacity:1;stroke:#000000;stroke-width:2.2134707;stroke-miterlimit:4;stroke-dasharray:none;stroke-opacity:1"
           id="rect5149"
           width="141.20567"
           height="45.235531"
           x="274.52045"
           y="364.17453" />
        <flowRoot
           transform="translate(19.855891,-164.36265)"
           style="font-style:normal;font-variant:normal;font-weight:normal;font-stretch:normal;font-size:40px;line-height:125%;font-family:'Courier New';-inkscape-font-specification:'Courier New';letter-spacing:0px;word-spacing:0px;fill:#000000;fill-opacity:1;stroke:none;stroke-width:1px;stroke-linecap:butt;stroke-linejoin:miter;stroke-opacity:1"
           id="flowRoot5151"
           xml:space="preserve"><flowRegion
             id="flowRegion5153"><rect
               style="font-style:normal;font-variant:normal;font-weight:normal;font-stretch:normal;font-family:'Courier New';-inkscape-font-specification:'Courier New'"
               y="526.18109"
               x="95.970139"
               height="59.567665"
               width="173.18748"
               id="rect5155" /></flowRegion><flowPara
             id="flowPara5157">f each</flowPara></flowRoot>      </g>
    </g>
    <path
       inkscape:connector-curvature="0"
       d="m 342.48342,478.07006 c -2.27725,-0.35969 -4.60098,-0.6255 -6.94894,-0.78214 -1.31496,-0.0861 -2.64031,-0.0769 -3.96161,-0.0766 -1.26996,0.008 -2.53992,0.009 -3.80994,0.005 -1.56366,-0.12022 -2.99093,0.15893 -4.50349,0.29799 -1.82931,0.0589 -3.57716,0.34016 -5.3729,0.51279 -2.00695,0.23875 -4.06643,0.1429 -6.07978,0.33201 -2.61438,0.20612 -5.21635,0.4882 -7.84094,0.65451 -3.44328,0.26654 -6.8998,0.4897 -10.33723,0.78136 -3.85201,0.30705 -7.62365,0.86074 -11.46415,1.19696 -3.82449,0.29329 -7.62232,0.68544 -11.37574,1.19251 -3.36413,0.46431 -6.69809,0.98992 -10.00998,1.5609 -2.92403,0.51268 -5.82521,1.06548 -8.73139,1.60926 -2.87161,0.57039 -5.58724,1.36124 -8.41538,2.00033 -2.83067,0.69604 -5.66682,1.41015 -8.41625,2.20701 -3.03135,0.80565 -6.07959,1.60428 -9.14211,2.37761 -2.90116,0.7926 -5.83875,1.55374 -8.69905,2.39417 -2.70403,0.88542 -5.67027,1.45611 -8.47809,2.2167 -2.48064,0.79323 -5.1864,1.3422 -7.64375,2.15202 20.79238,-6.90479 9.89073,-3.225 5.1838,-1.57135 -2.24156,0.78585 -4.40043,1.63312 -6.68141,2.38366 -6.84958,2.34788 -13.68267,4.7113 -20.73649,6.86363 -4.19476,1.36496 -12.04144,3.74713 7.27807,-2.3638 0.43891,-0.13885 -0.84137,0.31169 -1.25838,0.47069 -1.08074,0.41211 -1.55976,0.60709 -2.60697,1.02405 -2.60896,0.98766 -5.08143,2.08037 -7.57737,3.15527 -2.32902,0.98831 -4.53745,2.05872 -6.51266,3.26896 -2.09982,1.257 -3.55082,2.77887 -5.16732,4.23053 -1.47911,1.41053 -2.98125,2.82121 -4.02424,4.35523 -0.83769,1.45048 -1.77819,2.88724 -2.37985,4.37654 -0.51753,1.48401 -0.58451,3.00252 -0.61386,4.51041 -0.0276,1.48086 -0.0196,2.96219 0.002,4.44312 0.0223,1.432 0.72877,2.80354 1.50729,4.1525 0.75573,1.52994 1.97551,2.95792 3.25793,4.36416 1.2562,1.53906 3.32891,2.76285 5.26306,4.03186 2.37554,1.42228 4.9235,2.73349 7.71584,3.88746 3.29769,1.23832 6.71297,2.37055 10.25111,3.37363 3.95618,1.14009 8.02042,2.1541 12.07056,3.18136 4.67581,0.97714 9.41971,1.84438 14.24442,2.55381 5.13537,0.91464 10.35787,1.64368 15.62844,2.25828 5.21021,0.77676 10.44638,1.49147 15.71599,2.12712 5.42275,0.64534 10.88145,1.19133 16.35515,1.67846 6.51245,0.59054 13.04612,1.10571 19.58442,1.59573 7.01901,0.55783 14.03469,1.1099 21.10186,1.42839 7.10972,0.33961 14.19491,0.81134 21.3136,1.08999 6.58256,0.2991 13.13227,0.77088 19.71728,1.05313 6.1142,0.15096 12.21118,0.44938 18.32398,0.61776 6.58371,0.0822 13.14857,0.37405 19.72661,0.53462 7.48013,0.34552 14.97434,0.55163 22.4765,0.64988 7.29307,0.0825 14.58857,0.10323 21.88302,0.0878 6.6465,-8.8e-4 13.29324,0.008 19.93971,-0.014 5.84547,0.0788 11.6779,-0.1625 17.50998,-0.34556 5.654,-0.20709 11.26754,-0.65203 16.86342,-1.14016 5.3798,-0.29926 10.74391,-0.66115 16.08357,-1.13805 4.45481,-0.39087 8.86681,-0.91008 13.23143,-1.54528 2.97609,-0.41997 5.83957,-1.04116 8.7098,-1.64396 4.79552,-1.70675 -0.15652,0.0676 -9.86169,3.15809 -0.30684,0.0977 0.58844,-0.21914 0.87336,-0.3362 0.68748,-0.28238 1.31527,-0.60469 1.93618,-0.93136 1.25736,-0.67767 2.18025,-1.51755 2.79823,-2.43017 0.6973,-0.99231 1.17464,-2.01412 1.41439,-3.07192 0.22357,-1.24273 0.22827,-2.49559 0.22643,-3.74373 -0.19624,-1.35298 -0.50921,-2.70522 -0.97466,-4.03777 -0.7194,-1.59835 -1.20345,-3.2238 -2.03955,-4.80501 -1.07589,-1.86605 -2.063,-3.74756 -3.29308,-5.5838 -1.22513,-2.27691 -2.63417,-4.5153 -4.28865,-6.70341 -1.46331,-2.31598 -2.99323,-4.61725 -4.44793,-6.93481 -1.46167,-2.29376 -2.74116,-4.62306 -4.28422,-6.90014 -1.27476,-1.98302 -2.7439,-3.92256 -4.18938,-5.86691 -1.2521,-1.59509 -2.68022,-3.14586 -4.24768,-4.64878 -1.20406,-1.30467 -2.70897,-2.49286 -4.39745,-3.6078 -1.47406,-1.08311 -3.01463,-2.13379 -4.45003,-3.2333 -1.45332,-1.11649 -3.10679,-2.14205 -4.80273,-3.14069 -1.65329,-1.05873 -3.62445,-1.92672 -5.53613,-2.82736 -1.80266,-0.98659 -3.813,-1.8306 -5.87115,-2.6363 -2.2115,-0.98412 -4.4471,-1.94596 -6.80536,-2.8151 -2.52287,-0.98618 -5.07729,-1.91207 -7.85954,-2.64411 -3.22326,-0.94154 -6.4371,-1.87731 -9.80554,-2.64222 -3.96025,-0.93453 -8.04478,-1.68408 -12.09753,-2.47733 -4.47799,-0.99413 -9.08238,-1.78365 -13.6522,-2.62817 -5.17417,-1.0196 -10.35372,-2.01756 -15.64799,-2.81921 -5.45199,-0.93441 -10.99549,-1.67609 -16.56595,-2.3437 -5.1509,-0.58799 -10.31543,-1.13914 -15.48187,-1.68191 -4.48143,-0.48478 -8.92521,-1.06054 -13.44718,-1.4126 -1.79488,-0.1857 -3.59175,-0.35682 -5.39774,-0.50334 0,0 11.29053,-4.49348 11.29053,-4.49348 l 0,0 c 1.79197,0.16177 3.57305,0.3529 5.36501,0.51479 4.50021,0.41292 8.93984,0.99231 13.42255,1.46089 5.15629,0.57671 10.32904,1.10568 15.47575,1.71003 5.56451,0.71915 11.11442,1.46772 16.59005,2.38381 5.29889,0.85307 10.51603,1.83962 15.73805,2.83189 4.56872,0.86907 9.18744,1.65292 13.6909,2.62898 4.07246,0.81573 8.19271,1.55722 12.18517,2.49612 3.36176,0.81 6.60913,1.74475 9.87726,2.66785 2.80153,0.78706 5.41659,1.73303 8.0092,2.72177 2.32433,0.90537 4.57041,1.8681 6.82366,2.82849 2.07464,0.8346 4.09648,1.70025 5.95223,2.6897 1.93065,0.9319 3.9212,1.82613 5.60981,2.90538 1.71144,1.03757 3.42347,2.07664 4.9129,3.22163 1.3877,1.09607 2.93761,2.12057 4.38283,3.19195 1.70164,1.16712 3.2709,2.38134 4.49359,3.73289 1.56486,1.54703 3.02587,3.1239 4.30354,4.7548 1.38558,1.9681 2.92056,3.90178 4.16138,5.90189 1.49256,2.29526 2.80964,4.62264 4.30456,6.9177 1.37247,2.31626 2.93988,4.59347 4.39839,6.89216 1.61061,2.2078 3.09857,4.43701 4.34905,6.71939 1.2158,1.85665 2.29069,3.73644 3.37233,5.61956 0.84898,1.60522 1.40325,3.23694 2.14573,4.8585 0.47791,1.38112 0.83869,2.77018 1.11876,4.16902 -0.0102,1.27235 0.007,2.54509 -0.11913,3.81617 -0.21643,1.10251 -0.52232,2.19078 -1.28228,3.22273 -0.5562,1.0114 -1.32743,1.93522 -2.51676,2.76627 -4.70591,2.65811 -10.62542,4.50679 -16.79167,5.95056 -2.87089,0.58621 -5.75251,1.15647 -8.73174,1.54588 -4.3755,0.58549 -8.78749,1.07275 -13.23326,1.45625 -5.33668,0.4357 -10.69252,0.76462 -16.04675,1.12059 -5.62661,0.45861 -11.26108,0.90241 -16.94234,1.08058 -5.8354,0.15784 -11.66669,0.38512 -17.5133,0.29808 -6.63078,-0.0179 -13.26173,-0.003 -19.89255,-0.007 -7.2867,-0.0259 -14.57407,-0.0166 -21.85919,-0.12311 -7.52283,-0.14268 -15.03868,-0.33446 -22.54697,-0.63912 -6.58853,-0.19262 -13.17302,-0.4243 -19.76905,-0.52334 -6.1174,-0.2033 -12.22991,-0.44185 -18.34846,-0.6356 -6.5615,-0.33667 -13.10297,-0.78289 -19.6735,-1.06411 -7.10777,-0.33335 -14.19409,-0.78398 -21.30429,-1.10331 -7.07833,-0.37211 -14.11433,-0.91292 -21.15833,-1.45299 -6.55544,-0.52656 -13.12405,-1.00027 -19.66419,-1.58657 -5.49681,-0.51713 -10.9945,-1.03258 -16.44351,-1.69709 -5.24534,-0.67704 -10.47403,-1.38815 -15.69139,-2.13009 -5.27714,-0.65796 -10.51483,-1.39159 -15.68494,-2.28482 -4.87264,-0.76098 -9.70485,-1.6074 -14.42116,-2.64129 -4.04816,-1.05994 -8.15318,-2.05115 -12.12464,-3.20276 -3.57683,-1.05231 -7.06728,-2.19022 -10.40374,-3.47408 -2.83305,-1.2179 -5.49005,-2.54777 -7.91848,-4.02266 -1.98223,-1.32976 -4.1393,-2.58952 -5.46061,-4.18364 -1.26624,-1.45467 -2.5651,-2.90462 -3.37225,-4.46712 -0.8042,-1.42641 -1.5955,-2.8566 -1.71438,-4.36562 0.008,-1.48661 -0.008,-2.97327 0.005,-4.4599 0.0482,-1.55272 0.061,-3.10998 0.47534,-4.64924 0.5758,-1.52908 1.49037,-2.98862 2.32188,-4.47911 0.21998,-0.35193 0.78013,-1.27321 1.04826,-1.59371 0.83744,-1.00095 2.02245,-1.91332 2.85042,-2.91906 1.69918,-1.45073 3.08397,-3.01271 5.08383,-4.34537 1.94537,-1.25727 4.05143,-2.40625 6.42314,-3.41057 2.51472,-1.06619 4.94849,-2.19272 7.56525,-3.17982 6.43532,-2.57567 13.30329,-4.76209 20.21616,-6.90401 3.78182,-1.19307 9.816,-3.10295 -8.69182,2.87188 -0.49222,0.15889 0.95306,-0.34703 1.43296,-0.51755 1.43137,-0.50868 2.85405,-1.02641 4.31733,-1.50533 2.26992,-0.75716 4.51656,-1.51103 6.67382,-2.36586 6.14547,-2.09405 12.04784,-4.40871 18.54873,-6.17197 2.54605,-0.71281 5.12256,-1.39177 7.67097,-2.10235 2.84237,-0.71125 5.71761,-1.383 8.44135,-2.23656 2.8935,-0.8044 5.78444,-1.61464 8.72317,-2.36484 3.04359,-0.80053 6.1324,-1.54564 9.12711,-2.40326 2.79728,-0.75811 5.60312,-1.51388 8.48232,-2.16767 2.80962,-0.67507 5.55886,-1.44437 8.47925,-1.95886 2.90124,-0.54747 5.80752,-1.08779 8.73786,-1.58363 3.31981,-0.55658 6.66505,-1.06522 10.03832,-1.50803 3.77183,-0.47053 7.57846,-0.8371 11.40174,-1.14709 3.83912,-0.39993 7.64963,-0.89253 11.51891,-1.19659 3.45147,-0.27192 6.9091,-0.52171 10.3635,-0.78144 2.63841,-0.22986 5.27145,-0.47748 7.91741,-0.67841 2.02037,-0.0976 4.05769,-0.12743 6.04413,-0.38315 1.78775,-0.21965 3.59305,-0.34132 5.39507,-0.51462 1.54605,-0.18224 3.08613,-0.22489 4.66488,-0.18767 1.27755,-0.008 2.55531,-0.0148 3.8329,-0.005 1.35202,0.0109 2.70505,0.0398 4.03915,0.17654 2.36424,0.22473 4.6957,0.53959 7.02878,0.84939 0,0 -11.47453,4.47562 -11.47453,4.47562 z"
       id="path5161"
       style="fill:#808080;fill-opacity:1;stroke:#808080;stroke-width:3.83807564;stroke-miterlimit:4;stroke-dasharray:none;stroke-opacity:1"
       inkscape:export-filename="/Users/sjt/Projects/kx/code/q/docs/ref/img/each-parallel.png"
       inkscape:export-xdpi="39.695133"
       inkscape:export-ydpi="39.695133" />
    <flowRoot
       xml:space="preserve"
       id="flowRoot5173"
       style="font-style:normal;font-variant:normal;font-weight:normal;font-stretch:normal;font-size:40px;line-height:125%;font-family:'Courier New';-inkscape-font-specification:'Courier New';letter-spacing:0px;word-spacing:0px;fill:#000000;fill-opacity:1;stroke:none;stroke-width:1px;stroke-linecap:butt;stroke-linejoin:miter;stroke-opacity:1"
       transform="translate(78.320458,-24.26831)"
       inkscape:export-filename="/Users/sjt/Projects/kx/code/q/docs/ref/img/each-parallel.png"
       inkscape:export-xdpi="39.695133"
       inkscape:export-ydpi="39.695133"><flowRegion
         id="flowRegion5175"><rect
           id="rect5177"
           width="173.18748"
           height="59.567665"
           x="95.970139"
           y="526.18109"
           style="font-style:normal;font-variant:normal;font-weight:normal;font-stretch:normal;font-family:'Courier New';-inkscape-font-specification:'Courier New'" /></flowRegion><flowPara
         id="flowPara5179">f each</flowPara></flowRoot>    <g
       id="g5199"
       transform="translate(-91.557718,405.94265)"
       inkscape:export-filename="/Users/sjt/Projects/kx/code/q/docs/ref/img/each-parallel.png"
       inkscape:export-xdpi="39.695133"
       inkscape:export-ydpi="39.695133">
      <g
         id="g5201"
         transform="translate(-34.19626,6.6186337)">
        <rect
           style="fill:none;fill-opacity:1;stroke:#000000;stroke-width:2.56672096;stroke-miterlimit:4;stroke-dasharray:none;stroke-opacity:1"
           id="rect5203"
           width="31.177673"
           height="31.177673"
           x="479.00519"
           y="100.94272" />
        <rect
           y="92.681213"
           x="465.22815"
           height="45.494465"
           width="109.47456"
           id="rect5205"
           style="fill:none;fill-opacity:1;stroke:#000000;stroke-width:1.95453644;stroke-miterlimit:4;stroke-dasharray:none;stroke-opacity:1" />
        <rect
           style="fill:none;fill-opacity:1;stroke:#000000;stroke-width:2.56672096;stroke-miterlimit:4;stroke-dasharray:none;stroke-opacity:1"
           id="rect5207"
           width="31.177673"
           height="31.177673"
           x="522.57782"
           y="100.94272" />
      </g>
    </g>
    <flowRoot
       transform="matrix(0.49252504,0,0,0.56776293,58.393087,-264.41786)"
       style="font-style:normal;font-weight:normal;font-size:40px;line-height:125%;font-family:sans-serif;letter-spacing:0px;word-spacing:0px;fill:#000000;fill-opacity:1;stroke:none;stroke-width:1px;stroke-linecap:butt;stroke-linejoin:miter;stroke-opacity:1"
       id="flowRoot5225"
       xml:space="preserve"
       inkscape:export-filename="/Users/sjt/Projects/kx/code/q/docs/ref/img/each-parallel.png"
       inkscape:export-xdpi="39.695133"
       inkscape:export-ydpi="39.695133"><flowRegion
         id="flowRegion5227"><rect
           y="651.93506"
           x="122.44466"
           height="75.011139"
           width="45.227325"
           id="rect5229" /></flowRegion><flowPara
         id="flowPara5231">a</flowPara></flowRoot>    <flowRoot
       transform="matrix(0.49252504,0,0,0.56776293,286.18428,-108.88005)"
       style="font-style:normal;font-weight:normal;font-size:40px;line-height:125%;font-family:sans-serif;letter-spacing:0px;word-spacing:0px;fill:#000000;fill-opacity:1;stroke:none;stroke-width:1px;stroke-linecap:butt;stroke-linejoin:miter;stroke-opacity:1"
       id="flowRoot5233"
       xml:space="preserve"
       inkscape:export-filename="/Users/sjt/Projects/kx/code/q/docs/ref/img/each-parallel.png"
       inkscape:export-xdpi="39.695133"
       inkscape:export-ydpi="39.695133"><flowRegion
         id="flowRegion5235"><rect
           y="651.93506"
           x="122.44466"
           height="75.011139"
           width="45.227325"
           id="rect5237" /></flowRegion><flowPara
         id="flowPara5239">a</flowPara></flowRoot>    <flowRoot
       transform="matrix(0.49252504,0,0,0.56776293,100.14953,-263.15321)"
       style="font-style:normal;font-weight:normal;font-size:40px;line-height:125%;font-family:sans-serif;letter-spacing:0px;word-spacing:0px;fill:#000000;fill-opacity:1;stroke:none;stroke-width:1px;stroke-linecap:butt;stroke-linejoin:miter;stroke-opacity:1"
       id="flowRoot5241"
       xml:space="preserve"
       inkscape:export-filename="/Users/sjt/Projects/kx/code/q/docs/ref/img/each-parallel.png"
       inkscape:export-xdpi="39.695133"
       inkscape:export-ydpi="39.695133"><flowRegion
         id="flowRegion5243"><rect
           y="651.93506"
           x="122.44466"
           height="75.011139"
           width="45.227325"
           id="rect5245" /></flowRegion><flowPara
         id="flowPara5247">b</flowPara></flowRoot>    <flowRoot
       transform="matrix(0.49252504,0,0,0.56776293,330.30848,-107.77694)"
       style="font-style:normal;font-weight:normal;font-size:40px;line-height:125%;font-family:sans-serif;letter-spacing:0px;word-spacing:0px;fill:#000000;fill-opacity:1;stroke:none;stroke-width:1px;stroke-linecap:butt;stroke-linejoin:miter;stroke-opacity:1"
       id="flowRoot5257"
       xml:space="preserve"
       inkscape:export-filename="/Users/sjt/Projects/kx/code/q/docs/ref/img/each-parallel.png"
       inkscape:export-xdpi="39.695133"
       inkscape:export-ydpi="39.695133"><flowRegion
         id="flowRegion5259"><rect
           y="651.93506"
           x="122.44466"
           height="75.011139"
           width="45.227325"
           id="rect5261" /></flowRegion><flowPara
         id="flowPara5263">b</flowPara></flowRoot>    <flowRoot
       transform="matrix(0.49252504,0,0,0.56776293,145.12066,-264.96941)"
       style="font-style:normal;font-weight:normal;font-size:40px;line-height:125%;font-family:sans-serif;letter-spacing:0px;word-spacing:0px;fill:#000000;fill-opacity:1;stroke:none;stroke-width:1px;stroke-linecap:butt;stroke-linejoin:miter;stroke-opacity:1"
       id="flowRoot5265"
       xml:space="preserve"
       inkscape:export-filename="/Users/sjt/Projects/kx/code/q/docs/ref/img/each-parallel.png"
       inkscape:export-xdpi="39.695133"
       inkscape:export-ydpi="39.695133"><flowRegion
         id="flowRegion5267"><rect
           y="651.93506"
           x="122.44466"
           height="75.011139"
           width="45.227325"
           id="rect5269" /></flowRegion><flowPara
         id="flowPara5271">c</flowPara></flowRoot>    <flowRoot
       xml:space="preserve"
       id="flowRoot5273"
       style="font-style:normal;font-weight:normal;font-size:40px;line-height:125%;font-family:sans-serif;letter-spacing:0px;word-spacing:0px;fill:#000000;fill-opacity:1;stroke:none;stroke-width:1px;stroke-linecap:butt;stroke-linejoin:miter;stroke-opacity:1"
       transform="matrix(0.49252504,0,0,0.56776293,373.32957,-107.77694)"
       inkscape:export-filename="/Users/sjt/Projects/kx/code/q/docs/ref/img/each-parallel.png"
       inkscape:export-xdpi="39.695133"
       inkscape:export-ydpi="39.695133"><flowRegion
         id="flowRegion5275"><rect
           id="rect5277"
           width="45.227325"
           height="75.011139"
           x="122.44466"
           y="651.93506" /></flowRegion><flowPara
         id="flowPara5279">c</flowPara></flowRoot>    <flowRoot
       transform="matrix(0.49252504,0,0,0.56776293,224.96195,-263.8663)"
       style="font-style:normal;font-weight:normal;font-size:40px;line-height:125%;font-family:sans-serif;letter-spacing:0px;word-spacing:0px;fill:#000000;fill-opacity:1;stroke:none;stroke-width:1px;stroke-linecap:butt;stroke-linejoin:miter;stroke-opacity:1"
       id="flowRoot5281"
       xml:space="preserve"
       inkscape:export-filename="/Users/sjt/Projects/kx/code/q/docs/ref/img/each-parallel.png"
       inkscape:export-xdpi="39.695133"
       inkscape:export-ydpi="39.695133"><flowRegion
         id="flowRegion5283"><rect
           y="651.93506"
           x="122.44466"
           height="75.011139"
           width="45.227325"
           id="rect5285" /></flowRegion><flowPara
         id="flowPara5287">d</flowPara></flowRoot>    <flowRoot
       xml:space="preserve"
       id="flowRoot5289"
       style="font-style:normal;font-weight:normal;font-size:40px;line-height:125%;font-family:sans-serif;letter-spacing:0px;word-spacing:0px;fill:#000000;fill-opacity:1;stroke:none;stroke-width:1px;stroke-linecap:butt;stroke-linejoin:miter;stroke-opacity:1"
       transform="matrix(0.49252504,0,0,0.56776293,291.14825,11.358407)"
       inkscape:export-filename="/Users/sjt/Projects/kx/code/q/docs/ref/img/each-parallel.png"
       inkscape:export-xdpi="39.695133"
       inkscape:export-ydpi="39.695133"><flowRegion
         id="flowRegion5291"><rect
           id="rect5293"
           width="45.227325"
           height="75.011139"
           x="122.44466"
           y="651.93506" /></flowRegion><flowPara
         id="flowPara5295">d</flowPara></flowRoot>    <flowRoot
       transform="matrix(0.49252504,0,0,0.56776293,269.08615,-263.86631)"
       style="font-style:normal;font-weight:normal;font-size:40px;line-height:125%;font-family:sans-serif;letter-spacing:0px;word-spacing:0px;fill:#000000;fill-opacity:1;stroke:none;stroke-width:1px;stroke-linecap:butt;stroke-linejoin:miter;stroke-opacity:1"
       id="flowRoot5297"
       xml:space="preserve"
       inkscape:transform-center-x="1.6546576"
       inkscape:transform-center-y="2.7577626"
       inkscape:export-filename="/Users/sjt/Projects/kx/code/q/docs/ref/img/each-parallel.png"
       inkscape:export-xdpi="39.695133"
       inkscape:export-ydpi="39.695133"><flowRegion
         id="flowRegion5299"><rect
           y="651.93506"
           x="122.44466"
           height="75.011139"
           width="45.227325"
           id="rect5301" /></flowRegion><flowPara
         id="flowPara5303">e</flowPara></flowRoot>    <flowRoot
       xml:space="preserve"
       id="flowRoot5305"
       style="font-style:normal;font-weight:normal;font-size:40px;line-height:125%;font-family:sans-serif;letter-spacing:0px;word-spacing:0px;fill:#000000;fill-opacity:1;stroke:none;stroke-width:1px;stroke-linecap:butt;stroke-linejoin:miter;stroke-opacity:1"
       transform="matrix(0.49252504,0,0,0.56776293,334.16934,11.358402)"
       inkscape:export-filename="/Users/sjt/Projects/kx/code/q/docs/ref/img/each-parallel.png"
       inkscape:export-xdpi="39.695133"
       inkscape:export-ydpi="39.695133"><flowRegion
         id="flowRegion5307"><rect
           id="rect5309"
           width="45.227325"
           height="75.011139"
           x="122.44466"
           y="651.93506" /></flowRegion><flowPara
         id="flowPara5311">e</flowPara></flowRoot>    <flowRoot
       transform="translate(-66.186302,-349.6843)"
       style="font-style:normal;font-variant:normal;font-weight:normal;font-stretch:normal;font-size:40px;line-height:125%;font-family:'Courier New';-inkscape-font-specification:'Courier New';letter-spacing:0px;word-spacing:0px;fill:#000000;fill-opacity:1;stroke:none;stroke-width:1px;stroke-linecap:butt;stroke-linejoin:miter;stroke-opacity:1"
       id="flowRoot5331"
       xml:space="preserve"
       inkscape:export-filename="/Users/sjt/Projects/kx/code/q/docs/ref/img/each-parallel.png"
       inkscape:export-xdpi="39.695133"
       inkscape:export-ydpi="39.695133"><flowRegion
         id="flowRegion5333"><rect
           style="font-style:normal;font-variant:normal;font-weight:normal;font-stretch:normal;font-family:'Courier New';-inkscape-font-specification:'Courier New'"
           y="526.18109"
           x="95.970139"
           height="59.567665"
           width="173.18748"
           id="rect5335" /></flowRegion><flowPara
         id="flowPara5337">f':x</flowPara></flowRoot>    <flowRoot
       inkscape:export-ydpi="39.695133"
       inkscape:export-xdpi="39.695133"
       inkscape:export-filename="/Users/sjt/Projects/kx/code/q/docs/ref/img/each-parallel.png"
       xml:space="preserve"
       id="flowRoot5339"
       style="font-style:normal;font-variant:normal;font-weight:normal;font-stretch:normal;font-size:40px;line-height:125%;font-family:'Courier New';-inkscape-font-specification:'Courier New';letter-spacing:0px;word-spacing:0px;fill:#000000;fill-opacity:1;stroke:none;stroke-width:1px;stroke-linecap:butt;stroke-linejoin:miter;stroke-opacity:1"
       transform="translate(-60.670777,-434.62339)"><flowRegion
         id="flowRegion5341"><rect
           id="rect5343"
           width="173.18748"
           height="59.567665"
           x="95.970139"
           y="526.18109"
           style="font-style:normal;font-variant:normal;font-weight:normal;font-stretch:normal;font-family:'Courier New';-inkscape-font-specification:'Courier New'" /></flowRegion><flowPara
         id="flowPara5345">x</flowPara></flowRoot>  </g>
</svg>
