<?xml version="1.0" encoding="UTF-8" standalone="no"?>
<!-- Created with Inkscape (http://www.inkscape.org/) -->

<svg
   xmlns:dc="http://purl.org/dc/elements/1.1/"
   xmlns:cc="http://creativecommons.org/ns#"
   xmlns:rdf="http://www.w3.org/1999/02/22-rdf-syntax-ns#"
   xmlns:svg="http://www.w3.org/2000/svg"
   xmlns="http://www.w3.org/2000/svg"
   xmlns:sodipodi="http://sodipodi.sourceforge.net/DTD/sodipodi-0.dtd"
   xmlns:inkscape="http://www.inkscape.org/namespaces/inkscape"
   width="210mm"
   height="297mm"
   viewBox="0 0 744.09448819 1052.3622047"
   id="svg2"
   version="1.1"
   inkscape:version="0.91 r13725"
   sodipodi:docname="each-right.svg">
  <defs
     id="defs4">
    <inkscape:perspective
       sodipodi:type="inkscape:persp3d"
       inkscape:vp_x="0 : 526.1811 : 1"
       inkscape:vp_y="0 : 1000 : 0"
       inkscape:vp_z="744.09449 : 526.1811 : 1"
       inkscape:persp3d-origin="372.04724 : 350.7874 : 1"
       id="perspective4171" />
  </defs>
  <sodipodi:namedview
     id="base"
     pagecolor="#ffffff"
     bordercolor="#666666"
     borderopacity="1.0"
     inkscape:pageopacity="0.0"
     inkscape:pageshadow="2"
     inkscape:zoom="1.8111635"
     inkscape:cx="372.04724"
     inkscape:cy="744.81393"
     inkscape:document-units="px"
     inkscape:current-layer="layer1"
     showgrid="false"
     inkscape:window-width="1920"
     inkscape:window-height="1155"
     inkscape:window-x="1920"
     inkscape:window-y="1"
     inkscape:window-maximized="1" />
  <metadata
     id="metadata7">
    <rdf:RDF>
      <cc:Work
         rdf:about="">
        <dc:format>image/svg+xml</dc:format>
        <dc:type
           rdf:resource="http://purl.org/dc/dcmitype/StillImage" />
        <dc:title></dc:title>
      </cc:Work>
    </rdf:RDF>
  </metadata>
  <g
     inkscape:label="Layer 1"
     inkscape:groupmode="layer"
     id="layer1">
    <rect
       style="fill:none;fill-opacity:1;stroke:#000000;stroke-width:5;stroke-miterlimit:4;stroke-dasharray:none;stroke-opacity:1"
       id="rect4140"
       width="60.73444"
       height="60.73444"
       x="168.43086"
       y="103.80068"
       inkscape:export-filename="/Users/sjt/Projects/kx/code/q/docs/ref/img/each-right.png"
       inkscape:export-xdpi="40.849998"
       inkscape:export-ydpi="40.849998" />
    <g
       id="g4159"
       transform="translate(154.59676,0)"
       inkscape:export-filename="/Users/sjt/Projects/kx/code/q/docs/ref/img/each-right.png"
       inkscape:export-xdpi="40.849998"
       inkscape:export-ydpi="40.849998">
      <rect
         style="fill:none;fill-opacity:1;stroke:#000000;stroke-width:5;stroke-miterlimit:4;stroke-dasharray:none;stroke-opacity:1"
         id="rect4161"
         width="60.73444"
         height="60.73444"
         x="168.43086"
         y="103.80068" />
      <rect
         y="189.6571"
         x="168.43086"
         height="60.73444"
         width="60.73444"
         id="rect4163"
         style="fill:none;fill-opacity:1;stroke:#000000;stroke-width:5;stroke-miterlimit:4;stroke-dasharray:none;stroke-opacity:1" />
      <rect
         style="fill:none;fill-opacity:1;stroke:#000000;stroke-width:5;stroke-miterlimit:4;stroke-dasharray:none;stroke-opacity:1"
         id="rect4165"
         width="60.73444"
         height="60.73444"
         x="168.43086"
         y="275.51352" />
      <rect
         y="361.36987"
         x="168.43086"
         height="60.73444"
         width="60.73444"
         id="rect4167"
         style="fill:none;fill-opacity:1;stroke:#000000;stroke-width:5;stroke-miterlimit:4;stroke-dasharray:none;stroke-opacity:1" />
      <rect
         style="fill:none;fill-opacity:1;stroke:#000000;stroke-width:5;stroke-miterlimit:4;stroke-dasharray:none;stroke-opacity:1"
         id="rect4169"
         width="60.73444"
         height="60.73444"
         x="168.43086"
         y="447.22632" />
    </g>
    <g
       id="g4215"
       transform="matrix(1.2577703,0,0,1.4639942,101.1214,-97.020692)"
       inkscape:export-filename="/Users/sjt/Projects/kx/code/q/docs/ref/img/each-right.png"
       inkscape:export-xdpi="40.849998"
       inkscape:export-ydpi="40.849998">
      <path
         inkscape:connector-curvature="0"
         d="m 67.322257,113.49652 c 0.462565,-0.47213 0.963151,-0.9049 1.483028,-1.31238 1.840183,-1.22523 2.658104,-2.20815 4.419706,-2.15606 0.262902,0.007 0.525812,0.0119 0.7888,0.0132 0.256206,-0.0519 0.425611,0.11248 0.654123,0.18762 0.213629,0.11215 0.425783,0.26729 0.62334,0.41771 0.243349,0.18686 0.395126,0.46987 0.583244,0.71001 0.169053,0.21871 0.378857,0.40127 0.529517,0.63287 0.09428,0.19898 0.219097,0.38007 0.319752,0.57474 0.09296,0.21534 0.308914,0.33033 0.450886,0.51414 0.236213,0.27433 0.352881,0.60139 0.484884,0.93186 0.127552,0.32813 0.278878,0.64396 0.42355,0.96431 0.125845,0.3219 0.211682,0.6591 0.309953,0.99071 0.121772,0.36819 0.15419,0.75298 0.17336,1.1376 0.01476,0.32875 0.01758,0.658 0.01611,0.98705 -1.79e-4,0.27901 6.55e-4,0.55803 -0.0013,0.83704 0.0088,0.37369 -0.104166,0.73792 -0.204285,1.09448 -0.152493,0.41319 -0.376748,0.79523 -0.624478,1.15768 -0.275599,0.35672 -0.569998,0.69686 -0.849683,1.05051 -0.332069,0.35578 -0.695951,0.68129 -1.061636,1.00201 -0.363077,0.26985 -0.72756,0.53637 -1.075715,0.8255 -1.216344,1.1003 -2.678983,1.96284 -4.219308,2.52773 -1.375923,0.44866 4.662445,-2.88852 3.172188,-1.79512 -1.225397,0.15064 -2.385203,2.03567 -3.860048,2.03437 -0.150465,6.5e-4 -0.300922,1.3e-4 -0.451376,-0.002 -0.340237,-0.0559 -0.194471,0.11521 -0.472388,0.19155 -0.243833,0.0781 -0.506791,0.0747 -0.760996,0.0881 -0.157307,0.004 -0.314959,0.001 -0.472415,-2e-4 -0.03293,0.004 -0.06478,-0.003 -0.09479,-0.01 -0.0734,-0.11502 -0.14862,-0.21619 -0.21387,-0.33378 0,0 3.574362,-2.06184 3.574362,-2.06184 l 0,0 c 0.06539,0.105 0.141254,0.17747 0.0053,-0.0161 0.01317,-0.002 0.05272,-0.0151 0.07416,-0.007 0.14829,-2.5e-4 0.296377,-0.004 0.44377,-0.022 0.237674,-0.0264 0.467197,-0.0756 0.677153,-0.19576 0.188527,-0.11886 0.365935,-0.0498 0.578367,-0.0575 0.149401,-8.9e-4 0.298756,7.9e-4 0.448141,0.003 1.585573,-2.7e-4 -3.863366,3.28708 -3.300419,1.95962 0.991991,-1.14898 2.73411,-1.43362 3.884017,-2.34738 1.175208,-0.69902 2.438807,-1.43389 -3.267302,1.89067 -0.09995,0.0582 0.212352,-0.096 0.305623,-0.16437 0.05354,-0.0393 0.09731,-0.0904 0.145962,-0.13554 0.334496,-0.31034 0.68807,-0.60117 1.070936,-0.85036 0.397292,-0.26992 0.722873,-0.63038 1.089701,-0.9394 0.325828,-0.30098 0.532778,-0.70551 0.860483,-1.01027 0.265666,-0.32266 0.486965,-0.67146 0.666688,-1.04934 0.145167,-0.28911 0.215885,-0.64314 0.262375,-0.95845 -0.0014,-0.27936 6.17e-4,-0.55875 0.0023,-0.83811 2e-6,-0.32482 0.0056,-0.64965 -0.0013,-0.97445 -0.01151,-0.35309 -0.02496,-0.7087 -0.126992,-1.04979 -0.08991,-0.31558 -0.195848,-0.62576 -0.287322,-0.93984 -0.141675,-0.32544 -0.301726,-0.64056 -0.423002,-0.97497 -0.126083,-0.29004 -0.211887,-0.58398 -0.433202,-0.82236 -0.173804,-0.18963 -0.409105,-0.33373 -0.497706,-0.58832 -0.0933,-0.18124 -0.219332,-0.34336 -0.294371,-0.53491 -0.151972,-0.21518 -0.357206,-0.39031 -0.507571,-0.60808 -0.166259,-0.20775 -0.297797,-0.45524 -0.524522,-0.6029 -0.189574,-0.11638 -0.346639,-0.27795 -0.567438,-0.33252 -0.196785,-0.0812 -0.364067,-0.0751 -0.57613,-0.0695 -0.258079,-0.006 -0.51647,-0.0119 -0.774504,-0.002 -1.385758,0.12871 -3.88274,2.44577 2.733808,-1.76136 -0.582851,0.28794 -1.053664,0.79812 -1.526944,1.23143 0,0 -3.784571,1.56762 -3.784571,1.56762 z"
         id="path4203"
         style="fill:#000000;fill-opacity:1;stroke:#000000;stroke-width:1.39999998;stroke-miterlimit:4;stroke-dasharray:none;stroke-opacity:1" />
      <path
         inkscape:connector-curvature="0"
         d="m 85.176174,107.57432 c -0.0802,0.6592 -0.239243,1.30481 -0.398987,1.94824 -0.07188,0.31214 -0.09793,0.62736 -0.218673,0.92588 -0.09566,0.3458 -0.293416,0.64505 -0.463521,0.95687 -0.151224,0.38063 -0.362151,0.73122 -0.552951,1.09228 -0.129105,0.32546 -0.305768,0.62778 -0.43665,0.95207 -0.06822,0.30847 -0.202362,0.59341 -0.312961,0.88778 -0.123924,0.3236 -0.274871,0.64119 -0.475771,0.92459 -0.119763,0.21513 -0.139554,0.45973 -0.231978,0.68678 -0.06832,0.21832 -0.237922,0.36896 -0.342326,0.56616 -0.102509,0.15595 -0.112073,0.32825 -0.122562,0.50987 -0.0026,0.18548 -0.0027,0.37107 6.05e-4,0.55656 0.01299,0.17379 -0.0012,0.39134 -0.160893,0.49686 -0.07503,0.11634 -0.09921,0.24556 -0.111498,0.38071 -0.0046,0.16774 -0.0055,0.33567 -0.0031,0.50347 0.002,0.1698 -0.0015,0.3396 3.61e-4,0.50943 5.35e-4,0.20424 -0.02111,0.10313 0.07797,0.29777 0.06278,0.16792 0.139737,0.31736 0.249854,0.45815 0.01511,0.0181 0.02447,0.0433 0.04532,0.0543 0.154138,0.0813 -0.140751,-0.17254 0.08953,-0.007 0.08432,0.0607 0.156587,0.17476 0.218699,0.25811 0.01284,0.0189 0.0179,0.0468 0.03851,0.0567 0.01043,0.005 0.0018,-0.0265 0.01156,-0.0327 0.109813,-0.0703 0.229568,0.0169 0.308163,0.0796 0.18315,0.12555 0.373772,0.24118 0.558643,0.37356 0.151487,0.096 0.306963,0.0661 0.449772,0.18402 0.12954,0.15503 0.299188,0.14849 0.451111,0.25143 0.154319,0.12695 0.297633,0.17664 0.488075,0.20417 0.0956,0.0195 0.184444,-0.008 0.279824,-0.0116 0.156937,-0.004 0.314028,-7.4e-4 0.471046,-0.002 0.153323,6.1e-4 0.306704,-0.002 0.460024,-5.9e-4 0.176908,0.003 0.353836,-0.001 0.530739,5.1e-4 0.158799,-0.001 0.317566,-0.001 0.476361,6.3e-4 0.170867,-0.001 0.341726,-6e-5 0.512589,-0.001 0.168956,-6.3e-4 0.3379,0.002 0.506868,7e-4 0.117318,-0.003 0.234608,-8.9e-4 0.351936,-10e-4 0.128012,10e-4 0.256065,-8.9e-4 0.384076,8e-4 0.175905,0.003 0.35183,-8.6e-4 0.52773,6.4e-4 0.108154,3e-4 0.216302,-10e-4 0.324433,-0.003 0.0099,-1.3e-4 0.01977,-5.4e-4 0.02965,-8.1e-4 0,0 -3.349478,2.43354 -3.349478,2.43354 l 0,0 c -0.0091,-2.7e-4 -0.01828,-7e-4 -0.02742,-8.1e-4 -0.10529,-0.002 -0.210597,-0.003 -0.315911,-0.003 -0.176488,0.001 -0.352999,-0.002 -0.529493,6.4e-4 -0.128747,0.002 -0.257533,-5.3e-4 -0.386281,8e-4 -0.115983,-5.8e-4 -0.231928,0.002 -0.347898,-0.001 -0.169608,-10e-4 -0.339194,0.001 -0.50879,6.9e-4 -0.169682,-0.001 -0.339358,6e-5 -0.509042,-0.001 -0.159374,0.002 -0.31872,0.002 -0.478097,6.2e-4 -0.177302,0.001 -0.354628,-0.002 -0.531935,5.3e-4 -0.152666,0.002 -0.305382,-9e-4 -0.458053,6.1e-4 -0.15932,-3.6e-4 -0.318682,0.005 -0.477927,0.002 -0.116948,-0.006 -0.226524,-0.0333 -0.336362,-0.0744 -0.191596,-0.0699 -0.353174,-0.1874 -0.532971,-0.28137 -0.175793,-0.0506 -0.302021,-0.17108 -0.459699,-0.25743 -0.174851,0.009 -0.337721,-0.13751 -0.47371,-0.22806 -0.167963,-0.11815 -0.349825,-0.21457 -0.526101,-0.31753 -0.174824,0.0529 -0.372824,-0.131 -0.461693,-0.26194 -0.09761,-0.1228 -0.279921,-0.15212 -0.352228,-0.3102 -0.118137,-0.16298 -0.223936,-0.32635 -0.284013,-0.52003 -0.08059,-0.15621 -0.212544,-0.27921 -0.172248,-0.46815 0.0016,-0.16905 -0.002,-0.33802 -0.0018,-0.50704 9.39e-4,-0.17286 -0.0025,-0.34569 2.15e-4,-0.51856 -0.0037,-0.1771 -0.0098,-0.3514 0.03936,-0.52384 0.01257,-0.10063 0.06279,-0.22428 0.168855,-0.2732 0.02032,-0.009 0.0509,0.012 0.06705,-0.003 0.01479,-0.0142 4.47e-4,-0.041 6.71e-4,-0.0615 9.97e-4,-0.19029 -0.0025,-0.38056 6.51e-4,-0.57085 -0.0019,-0.21743 -0.01807,-0.45065 0.04679,-0.65866 0.08721,-0.22034 0.167368,-0.41255 0.340194,-0.57597 0.130592,-0.22648 0.209403,-0.42184 0.235339,-0.68498 0.106072,-0.32843 0.393917,-0.56777 0.496733,-0.90215 0.115886,-0.28218 0.226363,-0.56965 0.323633,-0.85349 0.0776,-0.36745 0.271976,-0.67063 0.420178,-1.0102 0.153707,-0.38106 0.396389,-0.71399 0.550556,-1.09347 0.129471,-0.32288 0.337827,-0.60157 0.471322,-0.91758 0.09408,-0.29976 0.241999,-0.56406 0.248172,-0.89159 0.148895,-0.63439 0.386025,-1.25347 0.425098,-1.90967 0,0 3.674748,-1.81517 3.674748,-1.81517 z"
         id="path4205"
         style="fill:#000000;fill-opacity:1;stroke:#000000;stroke-width:1.39999998;stroke-miterlimit:4;stroke-dasharray:none;stroke-opacity:1" />
    </g>
    <g
       id="g4219"
       transform="matrix(1.4376464,0,0,1.2521051,196.38694,-111.75958)"
       inkscape:export-filename="/Users/sjt/Projects/kx/code/q/docs/ref/img/each-right.png"
       inkscape:export-xdpi="40.849998"
       inkscape:export-ydpi="40.849998">
      <path
         inkscape:connector-curvature="0"
         d="m 105.70798,140.82896 c 0.42146,0.70185 0.75471,1.44308 1.08562,2.18959 0.27359,0.50125 0.46459,1.03274 0.66385,1.56518 0.19003,0.40937 0.35693,0.82926 0.54604,1.23881 0.10496,0.25559 0.29676,0.45539 0.43657,0.68813 0.0743,0.19006 0.26363,0.24931 0.37018,0.41139 0.0805,0.13186 0.19302,0.14097 0.28482,0.28331 0.059,0.10138 0.0943,0.21274 0.12568,0.32489 0.0615,0.12704 -0.11855,-0.13327 0.0569,0.0429 0.081,0.0268 0.21524,0.4965 0.17398,0.33951 0.10176,0.0523 0.19032,0.21903 0.25622,0.33957 0.10976,0.17758 -0.13353,-0.0825 0.0399,-0.10503 0.0442,-0.002 0.0877,-0.008 0.13017,-0.019 0.10257,-0.11912 0.18275,0.28717 0.18354,0.41089 0.003,0.089 -0.002,0.17784 -0.002,0.26689 0.001,0.15498 -0.01,0.31003 0.002,0.46475 0.0827,0.18564 0.15,0.37704 0.22765,0.5648 0.0991,0.19816 0.15348,0.39023 0.33219,0.52901 0.1032,0.0226 0.25118,0.48306 0.20565,0.30856 0.0486,-0.0231 0.10435,-0.0139 0.15608,-0.0298 0.016,-0.0295 -0.004,-0.0468 -0.0234,-0.0746 0,0 -3.27154,2.53827 -3.27154,2.53827 l 0,0 c -0.0246,-0.03 -0.0473,-0.0592 -0.0839,-0.0749 -0.10353,-0.046 -0.20719,-0.0915 -0.28604,-0.17677 -0.0836,-0.113 -0.10711,-0.22941 -0.20758,-0.32198 -0.18759,-0.19705 -0.29737,-0.42096 -0.4076,-0.66624 -0.10274,-0.20226 -0.15643,-0.42587 -0.26238,-0.62888 -0.0658,-0.18471 -0.0713,-0.36163 -0.0635,-0.55714 5.4e-4,-0.089 -0.004,-0.17787 7.6e-4,-0.26685 0.004,-0.23467 0.0952,0.11384 0.16291,0.16318 -0.05,-0.008 -0.10047,-0.0128 -0.1507,-0.0197 -0.13404,-0.0274 -0.23412,-0.12096 -0.27288,-0.25628 -0.0464,-0.10011 -0.10063,-0.16749 -0.1894,-0.23219 -0.0832,-0.11843 -0.10244,-0.22823 -0.17361,-0.34083 -0.0567,-0.0584 -0.24677,-0.23364 -0.19377,-0.26879 0.003,-0.0535 -0.005,-0.10679 -0.0242,-0.15733 -0.036,-0.0113 -0.2466,-0.15751 -0.28219,-0.282 -0.15262,-0.11677 -0.29659,-0.26141 -0.37676,-0.44092 -0.15162,-0.243 -0.34541,-0.45917 -0.44819,-0.73266 -0.19885,-0.41611 -0.35221,-0.85466 -0.55434,-1.27 -0.20239,-0.52413 -0.37064,-1.05821 -0.64045,-1.55538 -0.31801,-0.73655 -0.61764,-1.47872 -1.07641,-2.14454 0,0 3.55042,-2.04773 3.55042,-2.04773 z"
         id="path4211"
         style="fill:#000000;fill-opacity:1;stroke:#000000;stroke-width:1.39999998;stroke-miterlimit:4;stroke-dasharray:none;stroke-opacity:1" />
      <path
         inkscape:connector-curvature="0"
         d="m 117.19979,137.66547 c -0.13949,0.80007 -0.15797,1.61354 -0.25214,2.41838 -0.0965,0.66996 -0.21043,1.33572 -0.38789,1.98925 -0.20602,0.64551 -0.35821,1.3059 -0.54652,1.95654 -0.18813,0.71073 -0.4602,1.39363 -0.7438,2.07043 -0.25322,0.63897 -0.5138,1.27557 -0.81476,1.89371 -0.27077,0.4948 -0.55637,0.98121 -0.82845,1.47541 -0.24308,0.43261 -0.42447,0.89538 -0.60317,1.3572 -0.10069,0.38625 -0.27766,0.73318 -0.49633,1.06383 -0.16077,0.32775 -0.22049,0.68817 -0.35512,1.02636 -0.10534,0.28537 -0.15127,0.58255 -0.27406,0.86166 -0.0806,0.28018 -0.23822,0.52505 -0.34717,0.79307 -0.0898,0.20376 -0.1086,0.41812 -0.20969,0.61838 -0.0828,0.25755 -0.21221,0.49225 -0.35019,0.72336 -0.17631,0.18574 -0.28544,0.37335 -0.3435,0.62271 -0.11922,0.20144 -0.23168,0.41389 -0.37256,0.60493 -0.13053,0.26971 -0.28608,0.52374 -0.40653,0.79827 -0.15715,0.2512 -0.23461,0.53714 -0.42723,0.7637 -0.22034,0.17234 -0.35882,0.35274 -0.45104,0.61547 -0.14042,0.23241 -0.17103,0.52557 -0.36185,0.72292 -0.13468,0.21149 -0.28667,0.40955 -0.39753,0.63503 -0.10081,0.23612 -0.0528,0.50315 -0.19315,0.72142 -0.12452,0.20612 -0.16403,0.44193 -0.26486,0.65962 -0.0858,0.2171 -0.25271,0.37555 -0.36691,0.57517 -0.0577,0.13306 -0.0734,0.27736 -0.10523,0.41726 -0.008,0.1547 -0.006,0.30965 -0.011,0.46451 -0.0288,0.18551 -0.15782,0.32175 -0.21496,0.49356 -0.0428,0.10908 -0.0487,0.22351 -0.0516,0.33928 0.062,0.37706 0.0389,0.19774 -0.18495,0.36125 -0.0425,0.0363 -0.055,0.0451 -0.0868,7.7e-4 -0.0156,0.0963 -0.008,0.19946 -0.007,0.29806 0.003,0.10293 0.003,0.20572 0.002,0.30864 6e-5,0.0658 10e-4,0.13165 0.003,0.19744 0.002,0.0324 -0.002,0.0647 -0.002,0.0972 0.006,1.76576 3.07044,-2.03323 -3.59673,2.37917 -1.08141,0.71568 4.3895,-2.74275 3.37489,-1.93516 -0.0891,0.0732 -0.1226,-0.0622 -0.15868,-0.12772 -0.78157,-1.34506 -0.82829,0.2185 -3.57259,1.88484 0.004,-0.15684 0.002,-0.0767 0.006,-0.24057 0,0 3.67223,-1.86919 3.67223,-1.86919 l 0,0 c 0.002,0.1721 0.002,0.0872 -3.7e-4,0.25461 -2.38199,1.63363 -2.68148,3.48984 -3.61584,2.16371 -0.0819,-0.12892 -0.15562,-0.25526 -0.11181,-0.41283 0.58082,-1.42914 -0.46068,1.07607 3.64342,-2.27174 3.96392,-3.23346 -4.58433,1.23282 -3.32356,2.13865 0.0236,0.0169 -0.0255,-0.10963 3.3e-4,-0.0871 -6e-4,-0.0317 -0.004,-0.0633 -0.002,-0.095 0.002,-0.0668 0.003,-0.13367 0.003,-0.20053 -6.1e-4,-0.10248 -0.002,-0.20487 3.9e-4,-0.30737 -8.3e-4,-0.10562 0.003,-0.21343 -0.0143,-0.31762 -0.0273,-0.0686 -0.0259,-0.13247 4.4e-4,-0.20262 0.0135,-0.0362 0.11109,-0.31266 0.1693,-0.27729 0.0574,0.0349 0.0714,0.11457 0.11575,0.16501 0.007,0.008 -1.1e-4,-0.0225 -1.7e-4,-0.0337 0.001,-0.14252 -0.002,-0.28712 0.014,-0.42797 0.0378,-0.19677 0.0645,-0.36826 0.20634,-0.52171 0.11138,-0.0683 0.0435,-0.2393 0.0548,-0.35988 -0.0129,-0.17757 0.0341,-0.35221 0.0644,-0.52624 0.0493,-0.26221 0.15378,-0.44804 0.33618,-0.63597 0.1313,-0.21301 0.22675,-0.40181 0.26809,-0.64991 0.0399,-0.10114 0.14222,-0.14219 0.17504,-0.22853 0.0502,-0.13196 -0.0157,-0.30373 0.0505,-0.43514 0.0552,-0.28512 0.18253,-0.50684 0.34537,-0.74054 0.0652,-0.13602 0.15749,-0.13652 0.23061,-0.24964 0.0787,-0.12168 0.0512,-0.30458 0.16397,-0.41203 0.14427,-0.24708 0.12597,-0.58302 0.38767,-0.75824 0.0751,-0.058 0.23344,-0.14011 0.28734,-0.21931 0.0864,-0.12693 0.0691,-0.31817 0.19449,-0.42632 0.16064,-0.24921 0.24529,-0.54476 0.40415,-0.79544 0.0799,-0.21312 0.2351,-0.43364 0.36731,-0.60687 0.19854,-0.15315 0.0777,-0.53401 0.3167,-0.68626 0.17374,-0.16688 0.31697,-0.3938 0.39958,-0.61719 0.0659,-0.2158 0.21204,-0.37496 0.20944,-0.6129 0.0996,-0.278 0.22611,-0.5323 0.35291,-0.79431 0.0932,-0.28884 0.25001,-0.54473 0.28,-0.85564 0.1134,-0.35765 0.27369,-0.69431 0.34205,-1.06744 0.12571,-0.3662 0.44903,-0.62821 0.519,-1.02507 0.15421,-0.48679 0.36034,-0.96303 0.58722,-1.41949 0.25998,-0.50029 0.53407,-0.99333 0.83024,-1.47321 0.33717,-0.59243 0.58348,-1.23131 0.84113,-1.86118 0.26431,-0.67365 0.57792,-1.3301 0.76417,-2.03231 0.18528,-0.65072 0.33174,-1.31263 0.5407,-1.95557 0.19822,-0.63389 0.30365,-1.2842 0.41795,-1.93715 0.12683,-0.79589 0.13052,-1.60665 0.23787,-2.40576 0,0 3.67475,-1.81517 3.67475,-1.81517 z"
         id="path4213"
         style="fill:#000000;fill-opacity:1;stroke:#000000;stroke-width:1.39999998;stroke-miterlimit:4;stroke-dasharray:none;stroke-opacity:1" />
    </g>
    <g
       id="g4251"
       inkscape:export-filename="/Users/sjt/Projects/kx/code/q/docs/ref/img/each-right.png"
       inkscape:export-xdpi="40.849998"
       inkscape:export-ydpi="40.849998">
      <g
         transform="matrix(0.49273522,0,0,0.63001659,14.760172,5.7321755)"
         id="g4239">
        <path
           style="fill:#000000;fill-opacity:1;stroke:#000000;stroke-width:1.39999998;stroke-miterlimit:4;stroke-dasharray:none;stroke-opacity:1"
           id="path4235"
           d="m 557.70352,176.43755 c -1.3831,0.14033 -2.775,0.21441 -4.04836,0.81374 -0.14114,0.076 -0.28228,0.15207 -0.42342,0.2281 0.32564,-0.1939 -1.17471,0.67192 -0.88142,0.50327 11.4167,-6.5648 8.1295,-4.84283 5.78265,-3.25605 -2.70069,1.76716 -5.59445,3.25506 -8.36163,4.88617 -2.169,1.27852 4.3592,-2.52076 6.54409,-3.77195 0.1387,-0.0794 -0.27045,0.17043 -0.40515,0.25647 -0.15488,0.0989 -0.30906,0.19897 -0.46359,0.29846 -3.93918,2.48428 -16.02782,9.11858 -1.95822,1.16605 0.17741,-0.10028 -0.34019,0.22463 -0.50617,0.34287 -0.19441,0.13848 -0.38315,0.28474 -0.57473,0.42712 -1.15515,0.87081 -2.14251,1.91335 -3.0779,3.00868 -1.00215,1.11042 -1.95082,2.23953 -2.74586,3.50792 -0.75532,1.30309 -1.59548,2.54528 -2.28648,3.88521 -0.63873,1.39009 -1.26101,2.78882 -1.75739,4.23666 -0.35719,1.33086 -0.76497,2.64699 -1.22255,3.94657 -0.46393,1.20049 -0.7782,2.44894 -1.19017,3.66722 -0.45036,1.36047 -0.97632,2.69526 -1.50227,4.02799 -0.65025,1.50238 -1.17755,3.0484 -1.68137,4.60433 -0.52872,1.86007 -1.19294,3.67131 -1.90337,5.46817 -0.77097,1.85681 -1.29859,3.79986 -2.00452,5.67949 -0.82938,1.764 -1.39402,3.60784 -1.87072,5.49087 -0.37574,1.63973 -0.82099,3.26179 -1.39932,4.84178 -0.52377,1.32761 -1.04671,2.65598 -1.61895,3.96365 -0.47562,1.09854 -0.98104,2.18324 -1.61342,3.2008 -0.44701,0.69465 -1.00139,1.30844 -1.57252,1.90161 -0.41609,0.63797 -0.84896,1.22062 -1.43056,1.71689 -2.16599,-0.36843 -5.50041,4.54363 -8.76314,4.46264 -0.46242,-0.0103 -0.88348,0.0683 -1.26127,-0.2095 0,0 6.84887,-4.60261 6.84887,-4.60261 l 0,0 c 0.29453,-0.16524 0.71222,0.019 1.03228,-0.10828 2.83516,-0.77011 6.4023,-3.90381 -5.51429,3.43849 0.68466,-0.31131 1.20886,-0.75658 1.53436,-1.44675 0.4288,-0.70728 1.14077,-1.18874 1.6092,-1.87416 0.71176,-0.94396 1.22916,-1.99728 1.70314,-3.07755 0.58307,-1.29534 1.10977,-2.61252 1.64423,-3.92813 0.61824,-1.54801 1.10218,-3.13963 1.4712,-4.7659 0.46517,-1.91196 0.94809,-3.81829 1.8335,-5.58991 0.75987,-1.86166 1.24122,-3.82138 2.00842,-5.6811 0.69133,-1.78648 1.40378,-3.5628 1.91386,-5.41297 0.48286,-1.5692 0.95543,-3.14418 1.62724,-4.64578 0.53208,-1.31542 1.03547,-2.64392 1.5131,-3.97969 0.40119,-1.22906 0.74921,-2.47524 1.18617,-3.68965 0.47905,-1.28272 0.89254,-2.59186 1.2419,-3.91575 0.42936,-1.5029 1.09379,-2.91896 1.71894,-4.34857 0.62405,-1.3961 1.44699,-2.65297 2.24867,-3.94827 0.75248,-1.32797 1.61327,-2.53928 2.68716,-3.63015 0.93988,-1.11555 1.84977,-2.25298 3.01321,-3.15238 2.58203,-2.21819 5.42062,-3.40454 8.57677,-5.25168 0.15535,-0.0909 0.62493,-0.35757 0.46921,-0.26729 -2.16799,1.25687 -4.33603,2.51365 -6.50601,3.76708 -0.14769,0.0853 0.29271,-0.17513 0.43906,-0.2627 4.60295,-2.78414 15.73241,-9.19544 1.79063,-1.11777 -0.30122,0.17452 1.14376,-0.6414 0.89786,-0.53343 3.11762,-1.97254 6.20112,-4.08336 9.61278,-5.50429 1.36275,-0.38379 2.7693,-0.47402 4.16753,-0.66635 0,0 -6.57126,4.90031 -6.57126,4.90031 z"
           inkscape:connector-curvature="0" />
        <path
           style="fill:#000000;fill-opacity:1;stroke:#000000;stroke-width:1.39999998;stroke-miterlimit:4;stroke-dasharray:none;stroke-opacity:1"
           id="path4237"
           d="m 523.4,199.11862 c 1.67021,-0.0539 3.36775,-0.19978 5.01509,-0.50178 1.52164,-0.35491 3.08327,-0.47586 4.64021,-0.54729 1.39532,-0.0559 2.79284,-0.0575 4.18923,-0.0552 1.14145,-0.002 2.28288,-2.8e-4 3.42434,-0.002 0.77815,0.003 1.55628,-0.009 2.33442,-0.01 0.49171,-0.004 0.98343,6.6e-4 1.47514,-0.004 0.18811,0.001 0.37622,-0.0109 0.56427,-0.006 0.24969,-9e-5 0.49932,0.002 0.749,0.005 0.49249,0.003 0.985,0.002 1.47749,0.004 0.70553,0.005 1.41115,6.9e-4 2.11669,0.007 0.72611,-0.001 1.45223,4.7e-4 2.17831,-0.007 0.35282,-4.4e-4 0.70578,-0.009 1.05859,-0.005 0.19781,7.2e-4 0.3956,-0.002 0.59337,-0.005 2.98846,-0.0459 -4.35628,4.77534 -7.15901,4.86151 -3.0419,0.13986 4.34024,-4.86734 7.14763,-4.85545 0.34411,0.004 0.68828,-0.003 1.03238,-2e-5 0.42427,0.001 0.84852,0.005 1.27281,0.002 0.16998,-0.002 0.33995,-0.004 0.50988,-0.008 2.92243,0.33078 -4.42092,4.86853 -7.20808,4.85921 -0.21465,9.1e-4 -0.10106,0.001 -0.34076,-10e-4 0,0 6.67556,-4.85008 6.67556,-4.85008 l 0,0 c 0.24439,-0.002 0.12964,-0.002 0.34427,-10e-4 3.11889,-0.0103 -3.3121,4.45904 -6.16816,4.8592 -0.16218,-0.005 -0.32442,-0.007 -0.48666,-0.008 -0.42573,-0.003 -0.85142,5.3e-4 -1.27714,0.002 -0.34408,0.003 -0.68821,-0.004 -1.0323,-3e-5 -3.15628,0.0132 3.41866,-4.99118 6.21826,-4.85544 3.04037,0.10211 -3.45232,4.9069 -6.22358,4.8615 -0.19279,-0.004 -0.38561,-0.006 -0.57845,-0.005 -0.34816,0.003 -0.69646,-0.004 -1.04463,-0.005 -0.71936,-0.008 -1.43878,-0.006 -2.15818,-0.007 -0.71153,0.006 -1.42313,10e-4 -2.13465,0.007 -0.49626,0.002 -0.99253,0.001 -1.48879,0.004 -0.25424,0.003 -0.50845,0.005 -0.76271,0.005 -0.18293,0.005 -0.36585,-0.006 -0.54884,-0.006 -0.48848,-0.004 -0.97696,9e-5 -1.46544,-0.004 -0.76846,-10e-4 -1.53693,-0.0139 -2.30541,-0.0125 -1.13463,-0.004 -2.26924,-0.007 -3.40387,-0.0109 -1.38324,0.005 -2.7672,0.002 -4.14872,0.083 -1.53938,0.10783 -3.06643,0.29886 -4.58054,0.60271 -1.7012,0.22483 -3.41612,0.41406 -5.13325,0.43054 0,0 6.63223,-4.81859 6.63223,-4.81859 z"
           inkscape:connector-curvature="0" />
      </g>
      <path
         inkscape:connector-curvature="0"
         d="m 244.5737,132.31074 c 1.62363,0.0292 3.24751,0.008 4.87125,0.0138 1.35043,-0.003 2.70083,-0.007 4.05125,-0.0123 0.75126,-0.005 1.50254,-0.0123 2.25382,-0.0117 0.40261,-0.005 0.80523,-0.004 1.20785,-0.007 0.1424,5e-5 0.28472,-0.008 0.42705,-0.003 0.14618,0.002 0.29236,1.9e-4 0.43852,-0.002 0.10242,-0.001 0.20479,0.003 0.30729,0.003 0.30856,0.002 0.61709,0.006 0.92569,0.004 0.15516,-10e-4 0.31033,-0.003 0.46546,-0.007 2.89971,-0.10495 -4.24002,4.80151 -7.03572,4.85987 -0.33348,-9e-4 -0.66691,-0.003 -1.00038,7.6e-4 -0.30985,-0.002 -0.61968,-0.004 -0.92954,-0.002 0,0 6.67693,-4.85108 6.67693,-4.85108 l 0,0 c 0.31186,0.002 0.62369,1.7e-4 0.93554,-0.002 0.33278,0.004 0.66551,0.002 0.9983,7.5e-4 2.91528,0.0646 -3.60237,4.96875 -6.34237,4.85988 -0.14852,-0.004 -0.29708,-0.006 -0.44565,-0.007 -0.31217,-0.002 -0.62429,0.002 -0.93643,0.004 -0.10495,0 -0.20979,0.004 -0.31466,0.003 -0.14419,-0.002 -0.28842,-0.004 -0.43263,-0.002 -0.13941,0.004 -0.27872,-0.003 -0.4182,-0.003 -0.39579,-0.003 -0.79159,-0.002 -1.18738,-0.007 -0.74059,6e-4 -1.48118,-0.007 -2.22175,-0.0116 -1.33912,-0.005 -2.67822,-0.009 -4.01735,-0.0123 -1.63636,0.005 -3.27286,-0.0153 -4.90911,0.0138 0,0 6.63222,-4.81859 6.63222,-4.81859 z"
         id="path4247"
         style="fill:#000000;fill-opacity:1;stroke:#000000;stroke-width:1.39999998;stroke-miterlimit:4;stroke-dasharray:none;stroke-opacity:1" />
      <path
         style="fill:#000000;fill-opacity:1;stroke:#000000;stroke-width:1.39999998;stroke-miterlimit:4;stroke-dasharray:none;stroke-opacity:1"
         id="path4249"
         d="m 300.89108,131.20648 c 1.62363,0.0292 3.24751,0.008 4.87125,0.0138 1.35043,-0.003 2.70083,-0.007 4.05125,-0.0123 0.75126,-0.005 1.50254,-0.0123 2.25382,-0.0117 0.40261,-0.005 0.80523,-0.004 1.20785,-0.007 0.1424,5e-5 0.28472,-0.008 0.42705,-0.003 0.14618,0.002 0.29236,1.9e-4 0.43852,-0.002 0.10242,-0.001 0.20479,0.003 0.30729,0.003 0.30856,0.002 0.61709,0.006 0.92569,0.004 0.15516,-0.001 0.31033,-0.003 0.46546,-0.007 2.89971,-0.10495 -4.24002,4.80151 -7.03572,4.85987 -0.33348,-9e-4 -0.66691,-0.003 -1.00038,7.6e-4 -0.30985,-0.002 -0.61968,-0.004 -0.92954,-0.002 0,0 6.67693,-4.85108 6.67693,-4.85108 l 0,0 c 0.31186,0.002 0.62369,1.7e-4 0.93554,-0.002 0.33278,0.004 0.66551,0.002 0.9983,7.5e-4 2.91528,0.0646 -3.60237,4.96875 -6.34237,4.85988 -0.14852,-0.004 -0.29708,-0.006 -0.44565,-0.007 -0.31217,-0.002 -0.62429,0.002 -0.93643,0.004 -0.10495,0 -0.20979,0.004 -0.31466,0.003 -0.14419,-0.002 -0.28842,-0.004 -0.43263,-0.002 -0.13941,0.004 -0.27872,-0.003 -0.4182,-0.003 -0.39579,-0.003 -0.79159,-0.002 -1.18738,-0.007 -0.74059,6e-4 -1.48118,-0.007 -2.22175,-0.0116 -1.33912,-0.005 -2.67822,-0.009 -4.01735,-0.0123 -1.63636,0.005 -3.27286,-0.0153 -4.90911,0.0138 0,0 6.63222,-4.81859 6.63222,-4.81859 z"
         inkscape:connector-curvature="0" />
    </g>
  </g>
</svg>
