<?xml version="1.0" encoding="UTF-8" standalone="no"?>
<!-- Created with Inkscape (http://www.inkscape.org/) -->

<svg
   xmlns:dc="http://purl.org/dc/elements/1.1/"
   xmlns:cc="http://creativecommons.org/ns#"
   xmlns:rdf="http://www.w3.org/1999/02/22-rdf-syntax-ns#"
   xmlns:svg="http://www.w3.org/2000/svg"
   xmlns="http://www.w3.org/2000/svg"
   xmlns:sodipodi="http://sodipodi.sourceforge.net/DTD/sodipodi-0.dtd"
   xmlns:inkscape="http://www.inkscape.org/namespaces/inkscape"
   width="210mm"
   height="297mm"
   viewBox="0 0 744.09448819 1052.3622047"
   id="svg2"
   version="1.1"
   inkscape:version="0.91 r13725"
   sodipodi:docname="each-prior.svg">
  <defs
     id="defs4">
    <inkscape:perspective
       sodipodi:type="inkscape:persp3d"
       inkscape:vp_x="0 : 526.1811 : 1"
       inkscape:vp_y="0 : 1000 : 0"
       inkscape:vp_z="744.09449 : 526.1811 : 1"
       inkscape:persp3d-origin="372.04724 : 350.7874 : 1"
       id="perspective4171" />
  </defs>
  <sodipodi:namedview
     id="base"
     pagecolor="#ffffff"
     bordercolor="#666666"
     borderopacity="1.0"
     inkscape:pageopacity="0.0"
     inkscape:pageshadow="2"
     inkscape:zoom="1.8111635"
     inkscape:cx="281.77378"
     inkscape:cy="722.72868"
     inkscape:document-units="px"
     inkscape:current-layer="layer1"
     showgrid="false"
     inkscape:window-width="1920"
     inkscape:window-height="1155"
     inkscape:window-x="1920"
     inkscape:window-y="1"
     inkscape:window-maximized="1" />
  <metadata
     id="metadata7">
    <rdf:RDF>
      <cc:Work
         rdf:about="">
        <dc:format>image/svg+xml</dc:format>
        <dc:type
           rdf:resource="http://purl.org/dc/dcmitype/StillImage" />
        <dc:title></dc:title>
      </cc:Work>
    </rdf:RDF>
  </metadata>
  <g
     inkscape:label="Layer 1"
     inkscape:groupmode="layer"
     id="layer1">
    <g
       id="g4152"
       inkscape:export-filename="/Users/sjt/Projects/kx/code/q/docs/ref/img/each-prior.png"
       inkscape:export-xdpi="39.842487"
       inkscape:export-ydpi="39.842487">
      <rect
         y="103.80068"
         x="168.43086"
         height="60.73444"
         width="60.73444"
         id="rect4140"
         style="fill:none;fill-opacity:1;stroke:#000000;stroke-width:5;stroke-miterlimit:4;stroke-dasharray:none;stroke-opacity:1" />
      <rect
         style="fill:none;fill-opacity:1;stroke:#000000;stroke-width:5;stroke-miterlimit:4;stroke-dasharray:none;stroke-opacity:1"
         id="rect4144"
         width="60.73444"
         height="60.73444"
         x="168.43086"
         y="189.6571" />
      <rect
         y="275.51352"
         x="168.43086"
         height="60.73444"
         width="60.73444"
         id="rect4146"
         style="fill:none;fill-opacity:1;stroke:#000000;stroke-width:5;stroke-miterlimit:4;stroke-dasharray:none;stroke-opacity:1" />
      <rect
         style="fill:none;fill-opacity:1;stroke:#000000;stroke-width:5;stroke-miterlimit:4;stroke-dasharray:none;stroke-opacity:1"
         id="rect4148"
         width="60.73444"
         height="60.73444"
         x="168.43086"
         y="361.36987" />
      <rect
         y="447.22632"
         x="168.43086"
         height="60.73444"
         width="60.73444"
         id="rect4150"
         style="fill:none;fill-opacity:1;stroke:#000000;stroke-width:5;stroke-miterlimit:4;stroke-dasharray:none;stroke-opacity:1" />
    </g>
    <rect
       style="fill:none;fill-opacity:1;stroke:#000000;stroke-width:5;stroke-miterlimit:4;stroke-dasharray:none;stroke-opacity:1"
       id="rect4163"
       width="60.73444"
       height="60.73444"
       x="323.02762"
       y="189.6571"
       inkscape:export-filename="/Users/sjt/Projects/kx/code/q/docs/ref/img/each-prior.png"
       inkscape:export-xdpi="39.842487"
       inkscape:export-ydpi="39.842487" />
    <rect
       y="275.51352"
       x="323.02762"
       height="60.73444"
       width="60.73444"
       id="rect4165"
       style="fill:none;fill-opacity:1;stroke:#000000;stroke-width:5;stroke-miterlimit:4;stroke-dasharray:none;stroke-opacity:1"
       inkscape:export-filename="/Users/sjt/Projects/kx/code/q/docs/ref/img/each-prior.png"
       inkscape:export-xdpi="39.842487"
       inkscape:export-ydpi="39.842487" />
    <rect
       style="fill:none;fill-opacity:1;stroke:#000000;stroke-width:5;stroke-miterlimit:4;stroke-dasharray:none;stroke-opacity:1"
       id="rect4167"
       width="60.73444"
       height="60.73444"
       x="323.02762"
       y="361.36987"
       inkscape:export-filename="/Users/sjt/Projects/kx/code/q/docs/ref/img/each-prior.png"
       inkscape:export-xdpi="39.842487"
       inkscape:export-ydpi="39.842487" />
    <rect
       y="447.22632"
       x="323.02762"
       height="60.73444"
       width="60.73444"
       id="rect4169"
       style="fill:none;fill-opacity:1;stroke:#000000;stroke-width:5;stroke-miterlimit:4;stroke-dasharray:none;stroke-opacity:1"
       inkscape:export-filename="/Users/sjt/Projects/kx/code/q/docs/ref/img/each-prior.png"
       inkscape:export-xdpi="39.842487"
       inkscape:export-ydpi="39.842487" />
    <path
       style="fill:#808080;fill-opacity:1;stroke:#808080;stroke-width:1.9;stroke-miterlimit:4;stroke-dasharray:none;stroke-opacity:1"
       id="path4203"
       d="m 338.18557,129.31986 c 0.5818,-0.69119 1.21142,-1.32477 1.8653,-1.92131 2.31453,-1.79373 3.34329,-3.23272 5.55898,-3.15646 0.33067,0.0102 0.66135,0.0174 0.99213,0.0193 0.32225,-0.076 0.53532,0.16467 0.82273,0.27468 0.2687,0.16418 0.53554,0.39131 0.78402,0.61152 0.30608,0.27356 0.49698,0.68789 0.73359,1.03945 0.21263,0.32019 0.47652,0.58746 0.66601,0.92652 0.11858,0.29131 0.27557,0.55642 0.40218,0.84142 0.11692,0.31525 0.38854,0.4836 0.56711,0.75269 0.2971,0.40162 0.44384,0.88044 0.60987,1.36424 0.16043,0.48038 0.35076,0.94276 0.53273,1.41175 0.15828,0.47126 0.26625,0.96491 0.38985,1.45039 0.15316,0.53903 0.19393,1.10236 0.21804,1.66544 0.0186,0.48129 0.0221,0.96331 0.0203,1.44503 -2.3e-4,0.40847 8.2e-4,0.81696 -0.002,1.22543 0.0111,0.54708 -0.13101,1.08031 -0.25694,1.60231 -0.1918,0.60491 -0.47386,1.16421 -0.78545,1.69484 -0.34664,0.52223 -0.71693,1.02019 -1.06871,1.53794 -0.41766,0.52086 -0.87534,0.9974 -1.33529,1.46693 -0.45667,0.39506 -0.91511,0.78525 -1.353,1.20853 -1.52989,1.61083 -3.36955,2.87359 -5.30692,3.70058 -1.7306,0.65684 5.86428,-4.22877 3.98988,-2.62804 -1.54127,0.22053 -3.00004,2.98021 -4.85505,2.9783 -0.18925,9.5e-4 -0.37849,1.9e-4 -0.56773,-0.003 -0.42794,-0.0818 -0.2446,0.16867 -0.59416,0.28043 -0.30668,0.11434 -0.63742,0.10936 -0.95716,0.12898 -0.19785,0.006 -0.39614,0.001 -0.59418,-2.9e-4 -0.0414,0.006 -0.0815,-0.004 -0.11923,-0.0146 -0.0923,-0.16839 -0.18693,-0.3165 -0.269,-0.48865 0,0 4.49573,-3.01853 4.49573,-3.01853 l 0,0 c 0.0822,0.15372 0.17766,0.25982 0.007,-0.0236 0.0166,-0.003 0.0663,-0.0221 0.0933,-0.0102 0.18652,-3.7e-4 0.37277,-0.006 0.55816,-0.0322 0.29894,-0.0386 0.58763,-0.11068 0.8517,-0.28659 0.23713,-0.17401 0.46027,-0.0729 0.72746,-0.0842 0.18791,-10e-4 0.37576,0.001 0.56366,0.004 1.99428,-4e-4 -4.85923,4.81227 -4.15117,2.86887 1.24769,-1.6821 3.43888,-2.09881 4.8852,-3.43655 1.47814,-1.02336 3.06746,-2.09921 -4.10952,2.76793 -0.12571,0.0852 0.26709,-0.14054 0.38441,-0.24064 0.0673,-0.0575 0.12239,-0.13234 0.18358,-0.19843 0.42072,-0.45433 0.86544,-0.88011 1.34699,-1.24492 0.49971,-0.39516 0.90921,-0.92287 1.3706,-1.37527 0.40981,-0.44064 0.67011,-1.03287 1.08229,-1.47903 0.33414,-0.47238 0.61249,-0.98302 0.83854,-1.53623 0.18258,-0.42326 0.27153,-0.94155 0.33001,-1.40317 -0.002,-0.40898 7.7e-4,-0.818 0.003,-1.22698 0,-0.47554 0.007,-0.95109 -0.002,-1.42659 -0.0145,-0.51693 -0.0314,-1.03754 -0.15972,-1.53689 -0.11309,-0.46201 -0.24634,-0.91611 -0.36139,-1.37592 -0.17819,-0.47644 -0.3795,-0.93778 -0.53204,-1.42735 -0.15858,-0.42462 -0.2665,-0.85494 -0.54487,-1.20393 -0.2186,-0.27762 -0.51456,-0.48858 -0.626,-0.8613 -0.11735,-0.26533 -0.27587,-0.50268 -0.37025,-0.7831 -0.19114,-0.31503 -0.44928,-0.57142 -0.63841,-0.89023 -0.20911,-0.30414 -0.37456,-0.66647 -0.65972,-0.88264 -0.23844,-0.17038 -0.436,-0.40692 -0.71371,-0.48681 -0.24751,-0.11888 -0.45791,-0.10994 -0.72464,-0.10175 -0.3246,-0.009 -0.6496,-0.0174 -0.97415,-0.003 -1.74296,0.18843 -4.88359,3.58059 3.4385,-2.57863 -0.73309,0.42155 -1.32526,1.16845 -1.92054,1.80281 0,0 -4.76012,2.29499 -4.76012,2.29499 z"
       inkscape:connector-curvature="0"
       inkscape:export-filename="/Users/sjt/Projects/kx/code/q/docs/ref/img/each-prior.png"
       inkscape:export-xdpi="39.842487"
       inkscape:export-ydpi="39.842487" />
    <path
       style="fill:#808080;fill-opacity:1;stroke:#808080;stroke-width:1.89975846;stroke-miterlimit:4;stroke-dasharray:none;stroke-opacity:1"
       id="path4205"
       d="m 360.64169,120.6498 c -0.10087,0.96506 -0.30091,1.91023 -0.50183,2.85221 -0.0904,0.45697 -0.12318,0.91845 -0.27504,1.35548 -0.12032,0.50625 -0.36905,0.94435 -0.58301,1.40085 -0.1902,0.55724 -0.4555,1.07051 -0.69548,1.5991 -0.16239,0.47647 -0.38459,0.91906 -0.54921,1.39382 -0.0858,0.4516 -0.25452,0.86875 -0.39363,1.29971 -0.15587,0.47374 -0.34572,0.93869 -0.59841,1.35359 -0.15063,0.31495 -0.17553,0.67304 -0.29177,1.00544 -0.0859,0.31962 -0.29926,0.54016 -0.43057,0.82886 -0.12894,0.22831 -0.14096,0.48055 -0.15416,0.74644 -0.003,0.27154 -0.003,0.54325 7.6e-4,0.8148 0.0163,0.25443 -0.002,0.57292 -0.20236,0.7274 -0.0944,0.17032 -0.12479,0.3595 -0.14024,0.55736 -0.006,0.24557 -0.007,0.49142 -0.004,0.73708 0.003,0.24858 -0.002,0.49717 4.5e-4,0.7458 6.8e-4,0.29901 -0.0265,0.15098 0.0981,0.43593 0.079,0.24584 0.17576,0.46462 0.31426,0.67073 0.019,0.0265 0.0308,0.0634 0.057,0.0795 0.19387,0.11902 -0.17703,-0.2526 0.11261,-0.0102 0.10606,0.0889 0.19695,0.25585 0.27507,0.37787 0.0162,0.0277 0.0225,0.0685 0.0484,0.083 0.0131,0.007 0.002,-0.0388 0.0145,-0.0479 0.13812,-0.10292 0.28874,0.0247 0.3876,0.11653 0.23036,0.18381 0.47012,0.35309 0.70264,0.54689 0.19054,0.14054 0.38609,0.0968 0.56571,0.26941 0.16293,0.22696 0.37631,0.21738 0.5674,0.36809 0.1941,0.18585 0.37435,0.2586 0.61388,0.2989 0.12025,0.0285 0.23199,-0.0117 0.35196,-0.017 0.19739,-0.006 0.39497,-10e-4 0.59247,-0.003 0.19284,8.9e-4 0.38576,-0.003 0.5786,-8.6e-4 0.22251,0.004 0.44504,-10e-4 0.66755,7.4e-4 0.19973,-0.001 0.39942,-0.001 0.59915,9.3e-4 0.21491,-0.001 0.42981,-9e-5 0.64472,-0.001 0.21251,-9.2e-4 0.425,0.003 0.63752,0.001 0.14756,-0.004 0.29509,-0.001 0.44266,-0.001 0.16101,0.001 0.32207,-0.001 0.48308,0.001 0.22125,0.004 0.44252,-0.001 0.66376,9.4e-4 0.13603,4.4e-4 0.27206,-10e-4 0.40806,-0.004 0.0125,-1.9e-4 0.0249,-7.9e-4 0.0373,-0.001 0,0 -4.21288,3.56269 -4.21288,3.56269 l 0,0 c -0.0114,-3.9e-4 -0.023,-0.001 -0.0345,-0.001 -0.13243,-0.003 -0.26488,-0.004 -0.39734,-0.004 -0.22198,0.001 -0.44399,-0.003 -0.66598,9.4e-4 -0.16193,0.003 -0.32392,-7.8e-4 -0.48585,0.001 -0.14588,-8.5e-4 -0.29172,0.003 -0.43758,-0.001 -0.21333,-10e-4 -0.42663,0.001 -0.63994,0.001 -0.21342,-0.001 -0.42683,9e-5 -0.64026,-0.001 -0.20045,0.003 -0.40087,0.003 -0.60133,9.1e-4 -0.22301,0.001 -0.44604,-0.003 -0.66906,7.8e-4 -0.19201,0.003 -0.3841,-0.001 -0.57612,8.9e-4 -0.20039,-5.3e-4 -0.40083,0.007 -0.60112,0.003 -0.1471,-0.009 -0.28492,-0.0488 -0.42307,-0.10892 -0.24098,-0.10234 -0.44421,-0.27435 -0.67036,-0.41193 -0.2211,-0.0741 -0.37987,-0.25046 -0.57819,-0.37687 -0.21992,0.0132 -0.42478,-0.20132 -0.59582,-0.33388 -0.21126,-0.17297 -0.44,-0.31413 -0.66171,-0.46486 -0.21989,0.0774 -0.46893,-0.19179 -0.58071,-0.38348 -0.12277,-0.17978 -0.35207,-0.2227 -0.44302,-0.45413 -0.14859,-0.2386 -0.28166,-0.47778 -0.35722,-0.76132 -0.10137,-0.22869 -0.26733,-0.40877 -0.21665,-0.68537 0.002,-0.24749 -0.003,-0.49486 -0.002,-0.74231 10e-4,-0.25306 -0.003,-0.50608 2.7e-4,-0.75916 -0.005,-0.25928 -0.0123,-0.51445 0.0495,-0.7669 0.0158,-0.14733 0.079,-0.32835 0.21238,-0.39997 0.0256,-0.0132 0.064,0.0176 0.0843,-0.004 0.0186,-0.0208 5.6e-4,-0.06 8.4e-4,-0.09 0.001,-0.27859 -0.003,-0.55714 8.2e-4,-0.83573 -0.002,-0.31831 -0.0227,-0.65974 0.0589,-0.96427 0.10969,-0.32258 0.21051,-0.60397 0.42789,-0.84322 0.16425,-0.33156 0.26338,-0.61757 0.296,-1.0028 0.13341,-0.48082 0.49546,-0.83122 0.62477,-1.32075 0.14576,-0.41311 0.28472,-0.83396 0.40706,-1.2495 0.0976,-0.53794 0.34208,-0.9818 0.52849,-1.47893 0.19333,-0.55787 0.49856,-1.04527 0.69247,-1.60083 0.16285,-0.4727 0.42491,-0.8807 0.59282,-1.34333 0.11833,-0.43885 0.30437,-0.82578 0.31214,-1.30529 0.18727,-0.92874 0.48553,-1.83507 0.53467,-2.79574 0,0 4.62199,-2.6574 4.62199,-2.6574 z"
       inkscape:connector-curvature="0"
       inkscape:export-filename="/Users/sjt/Projects/kx/code/q/docs/ref/img/each-prior.png"
       inkscape:export-xdpi="39.842487"
       inkscape:export-ydpi="39.842487" />
    <g
       id="g4219"
       transform="matrix(1.4376464,0,0,1.2521051,45.102973,372.45955)"
       inkscape:export-filename="/Users/sjt/Projects/kx/code/q/docs/ref/img/each-prior.png"
       inkscape:export-xdpi="39.842487"
       inkscape:export-ydpi="39.842487">
      <path
         inkscape:connector-curvature="0"
         d="m 105.70798,140.82896 c 0.42146,0.70185 0.75471,1.44308 1.08562,2.18959 0.27359,0.50125 0.46459,1.03274 0.66385,1.56518 0.19003,0.40937 0.35693,0.82926 0.54604,1.23881 0.10496,0.25559 0.29676,0.45539 0.43657,0.68813 0.0743,0.19006 0.26363,0.24931 0.37018,0.41139 0.0805,0.13186 0.19302,0.14097 0.28482,0.28331 0.059,0.10138 0.0943,0.21274 0.12568,0.32489 0.0615,0.12704 -0.11855,-0.13327 0.0569,0.0429 0.081,0.0268 0.21524,0.4965 0.17398,0.33951 0.10176,0.0523 0.19032,0.21903 0.25622,0.33957 0.10976,0.17758 -0.13353,-0.0825 0.0399,-0.10503 0.0442,-0.002 0.0877,-0.008 0.13017,-0.019 0.10257,-0.11912 0.18275,0.28717 0.18354,0.41089 0.003,0.089 -0.002,0.17784 -0.002,0.26689 0.001,0.15498 -0.01,0.31003 0.002,0.46475 0.0827,0.18564 0.15,0.37704 0.22765,0.5648 0.0991,0.19816 0.15348,0.39023 0.33219,0.52901 0.1032,0.0226 0.25118,0.48306 0.20565,0.30856 0.0486,-0.0231 0.10435,-0.0139 0.15608,-0.0298 0.016,-0.0295 -0.004,-0.0468 -0.0234,-0.0746 0,0 -3.27154,2.53827 -3.27154,2.53827 l 0,0 c -0.0246,-0.03 -0.0473,-0.0592 -0.0839,-0.0749 -0.10353,-0.046 -0.20719,-0.0915 -0.28604,-0.17677 -0.0836,-0.113 -0.10711,-0.22941 -0.20758,-0.32198 -0.18759,-0.19705 -0.29737,-0.42096 -0.4076,-0.66624 -0.10274,-0.20226 -0.15643,-0.42587 -0.26238,-0.62888 -0.0658,-0.18471 -0.0713,-0.36163 -0.0635,-0.55714 5.4e-4,-0.089 -0.004,-0.17787 7.6e-4,-0.26685 0.004,-0.23467 0.0952,0.11384 0.16291,0.16318 -0.05,-0.008 -0.10047,-0.0128 -0.1507,-0.0197 -0.13404,-0.0274 -0.23412,-0.12096 -0.27288,-0.25628 -0.0464,-0.10011 -0.10063,-0.16749 -0.1894,-0.23219 -0.0832,-0.11843 -0.10244,-0.22823 -0.17361,-0.34083 -0.0567,-0.0584 -0.24677,-0.23364 -0.19377,-0.26879 0.003,-0.0535 -0.005,-0.10679 -0.0242,-0.15733 -0.036,-0.0113 -0.2466,-0.15751 -0.28219,-0.282 -0.15262,-0.11677 -0.29659,-0.26141 -0.37676,-0.44092 -0.15162,-0.243 -0.34541,-0.45917 -0.44819,-0.73266 -0.19885,-0.41611 -0.35221,-0.85466 -0.55434,-1.27 -0.20239,-0.52413 -0.37064,-1.05821 -0.64045,-1.55538 -0.31801,-0.73655 -0.61764,-1.47872 -1.07641,-2.14454 0,0 3.55042,-2.04773 3.55042,-2.04773 z"
         id="path4211"
         style="fill:#000000;fill-opacity:1;stroke:#000000;stroke-width:1.39999998;stroke-miterlimit:4;stroke-dasharray:none;stroke-opacity:1" />
      <path
         inkscape:connector-curvature="0"
         d="m 117.19979,137.66547 c -0.13949,0.80007 -0.15797,1.61354 -0.25214,2.41838 -0.0965,0.66996 -0.21043,1.33572 -0.38789,1.98925 -0.20602,0.64551 -0.35821,1.3059 -0.54652,1.95654 -0.18813,0.71073 -0.4602,1.39363 -0.7438,2.07043 -0.25322,0.63897 -0.5138,1.27557 -0.81476,1.89371 -0.27077,0.4948 -0.55637,0.98121 -0.82845,1.47541 -0.24308,0.43261 -0.42447,0.89538 -0.60317,1.3572 -0.10069,0.38625 -0.27766,0.73318 -0.49633,1.06383 -0.16077,0.32775 -0.22049,0.68817 -0.35512,1.02636 -0.10534,0.28537 -0.15127,0.58255 -0.27406,0.86166 -0.0806,0.28018 -0.23822,0.52505 -0.34717,0.79307 -0.0898,0.20376 -0.1086,0.41812 -0.20969,0.61838 -0.0828,0.25755 -0.21221,0.49225 -0.35019,0.72336 -0.17631,0.18574 -0.28544,0.37335 -0.3435,0.62271 -0.11922,0.20144 -0.23168,0.41389 -0.37256,0.60493 -0.13053,0.26971 -0.28608,0.52374 -0.40653,0.79827 -0.15715,0.2512 -0.23461,0.53714 -0.42723,0.7637 -0.22034,0.17234 -0.35882,0.35274 -0.45104,0.61547 -0.14042,0.23241 -0.17103,0.52557 -0.36185,0.72292 -0.13468,0.21149 -0.28667,0.40955 -0.39753,0.63503 -0.10081,0.23612 -0.0528,0.50315 -0.19315,0.72142 -0.12452,0.20612 -0.16403,0.44193 -0.26486,0.65962 -0.0858,0.2171 -0.25271,0.37555 -0.36691,0.57517 -0.0577,0.13306 -0.0734,0.27736 -0.10523,0.41726 -0.008,0.1547 -0.006,0.30965 -0.011,0.46451 -0.0288,0.18551 -0.15782,0.32175 -0.21496,0.49356 -0.0428,0.10908 -0.0487,0.22351 -0.0516,0.33928 0.062,0.37706 0.0389,0.19774 -0.18495,0.36125 -0.0425,0.0363 -0.055,0.0451 -0.0868,7.7e-4 -0.0156,0.0963 -0.008,0.19946 -0.007,0.29806 0.003,0.10293 0.003,0.20572 0.002,0.30864 6e-5,0.0658 10e-4,0.13165 0.003,0.19744 0.002,0.0324 -0.002,0.0647 -0.002,0.0972 0.006,1.76576 3.07044,-2.03323 -3.59673,2.37917 -1.08141,0.71568 4.3895,-2.74275 3.37489,-1.93516 -0.0891,0.0732 -0.1226,-0.0622 -0.15868,-0.12772 -0.78157,-1.34506 -0.82829,0.2185 -3.57259,1.88484 0.004,-0.15684 0.002,-0.0767 0.006,-0.24057 0,0 3.67223,-1.86919 3.67223,-1.86919 l 0,0 c 0.002,0.1721 0.002,0.0872 -3.7e-4,0.25461 -2.38199,1.63363 -2.68148,3.48984 -3.61584,2.16371 -0.0819,-0.12892 -0.15562,-0.25526 -0.11181,-0.41283 0.58082,-1.42914 -0.46068,1.07607 3.64342,-2.27174 3.96392,-3.23346 -4.58433,1.23282 -3.32356,2.13865 0.0236,0.0169 -0.0255,-0.10963 3.3e-4,-0.0871 -6e-4,-0.0317 -0.004,-0.0633 -0.002,-0.095 0.002,-0.0668 0.003,-0.13367 0.003,-0.20053 -6.1e-4,-0.10248 -0.002,-0.20487 3.9e-4,-0.30737 -8.3e-4,-0.10562 0.003,-0.21343 -0.0143,-0.31762 -0.0273,-0.0686 -0.0259,-0.13247 4.4e-4,-0.20262 0.0135,-0.0362 0.11109,-0.31266 0.1693,-0.27729 0.0574,0.0349 0.0714,0.11457 0.11575,0.16501 0.007,0.008 -1.1e-4,-0.0225 -1.7e-4,-0.0337 0.001,-0.14252 -0.002,-0.28712 0.014,-0.42797 0.0378,-0.19677 0.0645,-0.36826 0.20634,-0.52171 0.11138,-0.0683 0.0435,-0.2393 0.0548,-0.35988 -0.0129,-0.17757 0.0341,-0.35221 0.0644,-0.52624 0.0493,-0.26221 0.15378,-0.44804 0.33618,-0.63597 0.1313,-0.21301 0.22675,-0.40181 0.26809,-0.64991 0.0399,-0.10114 0.14222,-0.14219 0.17504,-0.22853 0.0502,-0.13196 -0.0157,-0.30373 0.0505,-0.43514 0.0552,-0.28512 0.18253,-0.50684 0.34537,-0.74054 0.0652,-0.13602 0.15749,-0.13652 0.23061,-0.24964 0.0787,-0.12168 0.0512,-0.30458 0.16397,-0.41203 0.14427,-0.24708 0.12597,-0.58302 0.38767,-0.75824 0.0751,-0.058 0.23344,-0.14011 0.28734,-0.21931 0.0864,-0.12693 0.0691,-0.31817 0.19449,-0.42632 0.16064,-0.24921 0.24529,-0.54476 0.40415,-0.79544 0.0799,-0.21312 0.2351,-0.43364 0.36731,-0.60687 0.19854,-0.15315 0.0777,-0.53401 0.3167,-0.68626 0.17374,-0.16688 0.31697,-0.3938 0.39958,-0.61719 0.0659,-0.2158 0.21204,-0.37496 0.20944,-0.6129 0.0996,-0.278 0.22611,-0.5323 0.35291,-0.79431 0.0932,-0.28884 0.25001,-0.54473 0.28,-0.85564 0.1134,-0.35765 0.27369,-0.69431 0.34205,-1.06744 0.12571,-0.3662 0.44903,-0.62821 0.519,-1.02507 0.15421,-0.48679 0.36034,-0.96303 0.58722,-1.41949 0.25998,-0.50029 0.53407,-0.99333 0.83024,-1.47321 0.33717,-0.59243 0.58348,-1.23131 0.84113,-1.86118 0.26431,-0.67365 0.57792,-1.3301 0.76417,-2.03231 0.18528,-0.65072 0.33174,-1.31263 0.5407,-1.95557 0.19822,-0.63389 0.30365,-1.2842 0.41795,-1.93715 0.12683,-0.79589 0.13052,-1.60665 0.23787,-2.40576 0,0 3.67475,-1.81517 3.67475,-1.81517 z"
         id="path4213"
         style="fill:#000000;fill-opacity:1;stroke:#000000;stroke-width:1.39999998;stroke-miterlimit:4;stroke-dasharray:none;stroke-opacity:1" />
    </g>
    <g
       id="g4251"
       inkscape:export-filename="/Users/sjt/Projects/kx/code/q/docs/ref/img/each-prior.png"
       inkscape:export-xdpi="39.842487"
       inkscape:export-ydpi="39.842487">
      <g
         transform="matrix(0.49273522,0,0,0.63001659,14.760172,5.7321755)"
         id="g4239">
        <path
           style="fill:#000000;fill-opacity:1;stroke:#000000;stroke-width:1.39999998;stroke-miterlimit:4;stroke-dasharray:none;stroke-opacity:1"
           id="path4235"
           d="m 557.70352,176.43755 c -1.3831,0.14033 -2.775,0.21441 -4.04836,0.81374 -0.14114,0.076 -0.28228,0.15207 -0.42342,0.2281 0.32564,-0.1939 -1.17471,0.67192 -0.88142,0.50327 11.4167,-6.5648 8.1295,-4.84283 5.78265,-3.25605 -2.70069,1.76716 -5.59445,3.25506 -8.36163,4.88617 -2.169,1.27852 4.3592,-2.52076 6.54409,-3.77195 0.1387,-0.0794 -0.27045,0.17043 -0.40515,0.25647 -0.15488,0.0989 -0.30906,0.19897 -0.46359,0.29846 -3.93918,2.48428 -16.02782,9.11858 -1.95822,1.16605 0.17741,-0.10028 -0.34019,0.22463 -0.50617,0.34287 -0.19441,0.13848 -0.38315,0.28474 -0.57473,0.42712 -1.15515,0.87081 -2.14251,1.91335 -3.0779,3.00868 -1.00215,1.11042 -1.95082,2.23953 -2.74586,3.50792 -0.75532,1.30309 -1.59548,2.54528 -2.28648,3.88521 -0.63873,1.39009 -1.26101,2.78882 -1.75739,4.23666 -0.35719,1.33086 -0.76497,2.64699 -1.22255,3.94657 -0.46393,1.20049 -0.7782,2.44894 -1.19017,3.66722 -0.45036,1.36047 -0.97632,2.69526 -1.50227,4.02799 -0.65025,1.50238 -1.17755,3.0484 -1.68137,4.60433 -0.52872,1.86007 -1.19294,3.67131 -1.90337,5.46817 -0.77097,1.85681 -1.29859,3.79986 -2.00452,5.67949 -0.82938,1.764 -1.39402,3.60784 -1.87072,5.49087 -0.37574,1.63973 -0.82099,3.26179 -1.39932,4.84178 -0.52377,1.32761 -1.04671,2.65598 -1.61895,3.96365 -0.47562,1.09854 -0.98104,2.18324 -1.61342,3.2008 -0.44701,0.69465 -1.00139,1.30844 -1.57252,1.90161 -0.41609,0.63797 -0.84896,1.22062 -1.43056,1.71689 -2.16599,-0.36843 -5.50041,4.54363 -8.76314,4.46264 -0.46242,-0.0103 -0.88348,0.0683 -1.26127,-0.2095 0,0 6.84887,-4.60261 6.84887,-4.60261 l 0,0 c 0.29453,-0.16524 0.71222,0.019 1.03228,-0.10828 2.83516,-0.77011 6.4023,-3.90381 -5.51429,3.43849 0.68466,-0.31131 1.20886,-0.75658 1.53436,-1.44675 0.4288,-0.70728 1.14077,-1.18874 1.6092,-1.87416 0.71176,-0.94396 1.22916,-1.99728 1.70314,-3.07755 0.58307,-1.29534 1.10977,-2.61252 1.64423,-3.92813 0.61824,-1.54801 1.10218,-3.13963 1.4712,-4.7659 0.46517,-1.91196 0.94809,-3.81829 1.8335,-5.58991 0.75987,-1.86166 1.24122,-3.82138 2.00842,-5.6811 0.69133,-1.78648 1.40378,-3.5628 1.91386,-5.41297 0.48286,-1.5692 0.95543,-3.14418 1.62724,-4.64578 0.53208,-1.31542 1.03547,-2.64392 1.5131,-3.97969 0.40119,-1.22906 0.74921,-2.47524 1.18617,-3.68965 0.47905,-1.28272 0.89254,-2.59186 1.2419,-3.91575 0.42936,-1.5029 1.09379,-2.91896 1.71894,-4.34857 0.62405,-1.3961 1.44699,-2.65297 2.24867,-3.94827 0.75248,-1.32797 1.61327,-2.53928 2.68716,-3.63015 0.93988,-1.11555 1.84977,-2.25298 3.01321,-3.15238 2.58203,-2.21819 5.42062,-3.40454 8.57677,-5.25168 0.15535,-0.0909 0.62493,-0.35757 0.46921,-0.26729 -2.16799,1.25687 -4.33603,2.51365 -6.50601,3.76708 -0.14769,0.0853 0.29271,-0.17513 0.43906,-0.2627 4.60295,-2.78414 15.73241,-9.19544 1.79063,-1.11777 -0.30122,0.17452 1.14376,-0.6414 0.89786,-0.53343 3.11762,-1.97254 6.20112,-4.08336 9.61278,-5.50429 1.36275,-0.38379 2.7693,-0.47402 4.16753,-0.66635 0,0 -6.57126,4.90031 -6.57126,4.90031 z"
           inkscape:connector-curvature="0" />
        <path
           style="fill:#000000;fill-opacity:1;stroke:#000000;stroke-width:1.39999998;stroke-miterlimit:4;stroke-dasharray:none;stroke-opacity:1"
           id="path4237"
           d="m 523.4,199.11862 c 1.67021,-0.0539 3.36775,-0.19978 5.01509,-0.50178 1.52164,-0.35491 3.08327,-0.47586 4.64021,-0.54729 1.39532,-0.0559 2.79284,-0.0575 4.18923,-0.0552 1.14145,-0.002 2.28288,-2.8e-4 3.42434,-0.002 0.77815,0.003 1.55628,-0.009 2.33442,-0.01 0.49171,-0.004 0.98343,6.6e-4 1.47514,-0.004 0.18811,0.001 0.37622,-0.0109 0.56427,-0.006 0.24969,-9e-5 0.49932,0.002 0.749,0.005 0.49249,0.003 0.985,0.002 1.47749,0.004 0.70553,0.005 1.41115,6.9e-4 2.11669,0.007 0.72611,-0.001 1.45223,4.7e-4 2.17831,-0.007 0.35282,-4.4e-4 0.70578,-0.009 1.05859,-0.005 0.19781,7.2e-4 0.3956,-0.002 0.59337,-0.005 2.98846,-0.0459 -4.35628,4.77534 -7.15901,4.86151 -3.0419,0.13986 4.34024,-4.86734 7.14763,-4.85545 0.34411,0.004 0.68828,-0.003 1.03238,-2e-5 0.42427,0.001 0.84852,0.005 1.27281,0.002 0.16998,-0.002 0.33995,-0.004 0.50988,-0.008 2.92243,0.33078 -4.42092,4.86853 -7.20808,4.85921 -0.21465,9.1e-4 -0.10106,0.001 -0.34076,-10e-4 0,0 6.67556,-4.85008 6.67556,-4.85008 l 0,0 c 0.24439,-0.002 0.12964,-0.002 0.34427,-10e-4 3.11889,-0.0103 -3.3121,4.45904 -6.16816,4.8592 -0.16218,-0.005 -0.32442,-0.007 -0.48666,-0.008 -0.42573,-0.003 -0.85142,5.3e-4 -1.27714,0.002 -0.34408,0.003 -0.68821,-0.004 -1.0323,-3e-5 -3.15628,0.0132 3.41866,-4.99118 6.21826,-4.85544 3.04037,0.10211 -3.45232,4.9069 -6.22358,4.8615 -0.19279,-0.004 -0.38561,-0.006 -0.57845,-0.005 -0.34816,0.003 -0.69646,-0.004 -1.04463,-0.005 -0.71936,-0.008 -1.43878,-0.006 -2.15818,-0.007 -0.71153,0.006 -1.42313,10e-4 -2.13465,0.007 -0.49626,0.002 -0.99253,0.001 -1.48879,0.004 -0.25424,0.003 -0.50845,0.005 -0.76271,0.005 -0.18293,0.005 -0.36585,-0.006 -0.54884,-0.006 -0.48848,-0.004 -0.97696,9e-5 -1.46544,-0.004 -0.76846,-10e-4 -1.53693,-0.0139 -2.30541,-0.0125 -1.13463,-0.004 -2.26924,-0.007 -3.40387,-0.0109 -1.38324,0.005 -2.7672,0.002 -4.14872,0.083 -1.53938,0.10783 -3.06643,0.29886 -4.58054,0.60271 -1.7012,0.22483 -3.41612,0.41406 -5.13325,0.43054 0,0 6.63223,-4.81859 6.63223,-4.81859 z"
           inkscape:connector-curvature="0" />
      </g>
      <path
         inkscape:connector-curvature="0"
         d="m 244.5737,132.31074 c 1.62363,0.0292 3.24751,0.008 4.87125,0.0138 1.35043,-0.003 2.70083,-0.007 4.05125,-0.0123 0.75126,-0.005 1.50254,-0.0123 2.25382,-0.0117 0.40261,-0.005 0.80523,-0.004 1.20785,-0.007 0.1424,5e-5 0.28472,-0.008 0.42705,-0.003 0.14618,0.002 0.29236,1.9e-4 0.43852,-0.002 0.10242,-0.001 0.20479,0.003 0.30729,0.003 0.30856,0.002 0.61709,0.006 0.92569,0.004 0.15516,-10e-4 0.31033,-0.003 0.46546,-0.007 2.89971,-0.10495 -4.24002,4.80151 -7.03572,4.85987 -0.33348,-9e-4 -0.66691,-0.003 -1.00038,7.6e-4 -0.30985,-0.002 -0.61968,-0.004 -0.92954,-0.002 0,0 6.67693,-4.85108 6.67693,-4.85108 l 0,0 c 0.31186,0.002 0.62369,1.7e-4 0.93554,-0.002 0.33278,0.004 0.66551,0.002 0.9983,7.5e-4 2.91528,0.0646 -3.60237,4.96875 -6.34237,4.85988 -0.14852,-0.004 -0.29708,-0.006 -0.44565,-0.007 -0.31217,-0.002 -0.62429,0.002 -0.93643,0.004 -0.10495,0 -0.20979,0.004 -0.31466,0.003 -0.14419,-0.002 -0.28842,-0.004 -0.43263,-0.002 -0.13941,0.004 -0.27872,-0.003 -0.4182,-0.003 -0.39579,-0.003 -0.79159,-0.002 -1.18738,-0.007 -0.74059,6e-4 -1.48118,-0.007 -2.22175,-0.0116 -1.33912,-0.005 -2.67822,-0.009 -4.01735,-0.0123 -1.63636,0.005 -3.27286,-0.0153 -4.90911,0.0138 0,0 6.63222,-4.81859 6.63222,-4.81859 z"
         id="path4247"
         style="fill:#000000;fill-opacity:1;stroke:#000000;stroke-width:1.39999998;stroke-miterlimit:4;stroke-dasharray:none;stroke-opacity:1" />
      <path
         style="fill:#000000;fill-opacity:1;stroke:#000000;stroke-width:1.39999998;stroke-miterlimit:4;stroke-dasharray:none;stroke-opacity:1"
         id="path4249"
         d="m 300.89108,131.20648 c 1.62363,0.0292 3.24751,0.008 4.87125,0.0138 1.35043,-0.003 2.70083,-0.007 4.05125,-0.0123 0.75126,-0.005 1.50254,-0.0123 2.25382,-0.0117 0.40261,-0.005 0.80523,-0.004 1.20785,-0.007 0.1424,5e-5 0.28472,-0.008 0.42705,-0.003 0.14618,0.002 0.29236,1.9e-4 0.43852,-0.002 0.10242,-0.001 0.20479,0.003 0.30729,0.003 0.30856,0.002 0.61709,0.006 0.92569,0.004 0.15516,-0.001 0.31033,-0.003 0.46546,-0.007 2.89971,-0.10495 -4.24002,4.80151 -7.03572,4.85987 -0.33348,-9e-4 -0.66691,-0.003 -1.00038,7.6e-4 -0.30985,-0.002 -0.61968,-0.004 -0.92954,-0.002 0,0 6.67693,-4.85108 6.67693,-4.85108 l 0,0 c 0.31186,0.002 0.62369,1.7e-4 0.93554,-0.002 0.33278,0.004 0.66551,0.002 0.9983,7.5e-4 2.91528,0.0646 -3.60237,4.96875 -6.34237,4.85988 -0.14852,-0.004 -0.29708,-0.006 -0.44565,-0.007 -0.31217,-0.002 -0.62429,0.002 -0.93643,0.004 -0.10495,0 -0.20979,0.004 -0.31466,0.003 -0.14419,-0.002 -0.28842,-0.004 -0.43263,-0.002 -0.13941,0.004 -0.27872,-0.003 -0.4182,-0.003 -0.39579,-0.003 -0.79159,-0.002 -1.18738,-0.007 -0.74059,6e-4 -1.48118,-0.007 -2.22175,-0.0116 -1.33912,-0.005 -2.67822,-0.009 -4.01735,-0.0123 -1.63636,0.005 -3.27286,-0.0153 -4.90911,0.0138 0,0 6.63222,-4.81859 6.63222,-4.81859 z"
         inkscape:connector-curvature="0" />
    </g>
    <g
       id="g4886"
       transform="translate(-1.6563938,83.371821)"
       inkscape:export-filename="/Users/sjt/Projects/kx/code/q/docs/ref/img/each-prior.png"
       inkscape:export-xdpi="39.842487"
       inkscape:export-ydpi="39.842487">
      <g
         id="g4888"
         transform="matrix(0.49273522,0,0,0.63001659,14.760172,5.7321755)">
        <path
           inkscape:connector-curvature="0"
           d="m 557.70352,176.43755 c -1.3831,0.14033 -2.775,0.21441 -4.04836,0.81374 -0.14114,0.076 -0.28228,0.15207 -0.42342,0.2281 0.32564,-0.1939 -1.17471,0.67192 -0.88142,0.50327 11.4167,-6.5648 8.1295,-4.84283 5.78265,-3.25605 -2.70069,1.76716 -5.59445,3.25506 -8.36163,4.88617 -2.169,1.27852 4.3592,-2.52076 6.54409,-3.77195 0.1387,-0.0794 -0.27045,0.17043 -0.40515,0.25647 -0.15488,0.0989 -0.30906,0.19897 -0.46359,0.29846 -3.93918,2.48428 -16.02782,9.11858 -1.95822,1.16605 0.17741,-0.10028 -0.34019,0.22463 -0.50617,0.34287 -0.19441,0.13848 -0.38315,0.28474 -0.57473,0.42712 -1.15515,0.87081 -2.14251,1.91335 -3.0779,3.00868 -1.00215,1.11042 -1.95082,2.23953 -2.74586,3.50792 -0.75532,1.30309 -1.59548,2.54528 -2.28648,3.88521 -0.63873,1.39009 -1.26101,2.78882 -1.75739,4.23666 -0.35719,1.33086 -0.76497,2.64699 -1.22255,3.94657 -0.46393,1.20049 -0.7782,2.44894 -1.19017,3.66722 -0.45036,1.36047 -0.97632,2.69526 -1.50227,4.02799 -0.65025,1.50238 -1.17755,3.0484 -1.68137,4.60433 -0.52872,1.86007 -1.19294,3.67131 -1.90337,5.46817 -0.77097,1.85681 -1.29859,3.79986 -2.00452,5.67949 -0.82938,1.764 -1.39402,3.60784 -1.87072,5.49087 -0.37574,1.63973 -0.82099,3.26179 -1.39932,4.84178 -0.52377,1.32761 -1.04671,2.65598 -1.61895,3.96365 -0.47562,1.09854 -0.98104,2.18324 -1.61342,3.2008 -0.44701,0.69465 -1.00139,1.30844 -1.57252,1.90161 -0.41609,0.63797 -0.84896,1.22062 -1.43056,1.71689 -2.16599,-0.36843 -5.50041,4.54363 -8.76314,4.46264 -0.46242,-0.0103 -0.88348,0.0683 -1.26127,-0.2095 0,0 6.84887,-4.60261 6.84887,-4.60261 l 0,0 c 0.29453,-0.16524 0.71222,0.019 1.03228,-0.10828 2.83516,-0.77011 6.4023,-3.90381 -5.51429,3.43849 0.68466,-0.31131 1.20886,-0.75658 1.53436,-1.44675 0.4288,-0.70728 1.14077,-1.18874 1.6092,-1.87416 0.71176,-0.94396 1.22916,-1.99728 1.70314,-3.07755 0.58307,-1.29534 1.10977,-2.61252 1.64423,-3.92813 0.61824,-1.54801 1.10218,-3.13963 1.4712,-4.7659 0.46517,-1.91196 0.94809,-3.81829 1.8335,-5.58991 0.75987,-1.86166 1.24122,-3.82138 2.00842,-5.6811 0.69133,-1.78648 1.40378,-3.5628 1.91386,-5.41297 0.48286,-1.5692 0.95543,-3.14418 1.62724,-4.64578 0.53208,-1.31542 1.03547,-2.64392 1.5131,-3.97969 0.40119,-1.22906 0.74921,-2.47524 1.18617,-3.68965 0.47905,-1.28272 0.89254,-2.59186 1.2419,-3.91575 0.42936,-1.5029 1.09379,-2.91896 1.71894,-4.34857 0.62405,-1.3961 1.44699,-2.65297 2.24867,-3.94827 0.75248,-1.32797 1.61327,-2.53928 2.68716,-3.63015 0.93988,-1.11555 1.84977,-2.25298 3.01321,-3.15238 2.58203,-2.21819 5.42062,-3.40454 8.57677,-5.25168 0.15535,-0.0909 0.62493,-0.35757 0.46921,-0.26729 -2.16799,1.25687 -4.33603,2.51365 -6.50601,3.76708 -0.14769,0.0853 0.29271,-0.17513 0.43906,-0.2627 4.60295,-2.78414 15.73241,-9.19544 1.79063,-1.11777 -0.30122,0.17452 1.14376,-0.6414 0.89786,-0.53343 3.11762,-1.97254 6.20112,-4.08336 9.61278,-5.50429 1.36275,-0.38379 2.7693,-0.47402 4.16753,-0.66635 0,0 -6.57126,4.90031 -6.57126,4.90031 z"
           id="path4890"
           style="fill:#000000;fill-opacity:1;stroke:#000000;stroke-width:1.39999998;stroke-miterlimit:4;stroke-dasharray:none;stroke-opacity:1" />
        <path
           inkscape:connector-curvature="0"
           d="m 523.4,199.11862 c 1.67021,-0.0539 3.36775,-0.19978 5.01509,-0.50178 1.52164,-0.35491 3.08327,-0.47586 4.64021,-0.54729 1.39532,-0.0559 2.79284,-0.0575 4.18923,-0.0552 1.14145,-0.002 2.28288,-2.8e-4 3.42434,-0.002 0.77815,0.003 1.55628,-0.009 2.33442,-0.01 0.49171,-0.004 0.98343,6.6e-4 1.47514,-0.004 0.18811,0.001 0.37622,-0.0109 0.56427,-0.006 0.24969,-9e-5 0.49932,0.002 0.749,0.005 0.49249,0.003 0.985,0.002 1.47749,0.004 0.70553,0.005 1.41115,6.9e-4 2.11669,0.007 0.72611,-0.001 1.45223,4.7e-4 2.17831,-0.007 0.35282,-4.4e-4 0.70578,-0.009 1.05859,-0.005 0.19781,7.2e-4 0.3956,-0.002 0.59337,-0.005 2.98846,-0.0459 -4.35628,4.77534 -7.15901,4.86151 -3.0419,0.13986 4.34024,-4.86734 7.14763,-4.85545 0.34411,0.004 0.68828,-0.003 1.03238,-2e-5 0.42427,0.001 0.84852,0.005 1.27281,0.002 0.16998,-0.002 0.33995,-0.004 0.50988,-0.008 2.92243,0.33078 -4.42092,4.86853 -7.20808,4.85921 -0.21465,9.1e-4 -0.10106,0.001 -0.34076,-10e-4 0,0 6.67556,-4.85008 6.67556,-4.85008 l 0,0 c 0.24439,-0.002 0.12964,-0.002 0.34427,-10e-4 3.11889,-0.0103 -3.3121,4.45904 -6.16816,4.8592 -0.16218,-0.005 -0.32442,-0.007 -0.48666,-0.008 -0.42573,-0.003 -0.85142,5.3e-4 -1.27714,0.002 -0.34408,0.003 -0.68821,-0.004 -1.0323,-3e-5 -3.15628,0.0132 3.41866,-4.99118 6.21826,-4.85544 3.04037,0.10211 -3.45232,4.9069 -6.22358,4.8615 -0.19279,-0.004 -0.38561,-0.006 -0.57845,-0.005 -0.34816,0.003 -0.69646,-0.004 -1.04463,-0.005 -0.71936,-0.008 -1.43878,-0.006 -2.15818,-0.007 -0.71153,0.006 -1.42313,10e-4 -2.13465,0.007 -0.49626,0.002 -0.99253,0.001 -1.48879,0.004 -0.25424,0.003 -0.50845,0.005 -0.76271,0.005 -0.18293,0.005 -0.36585,-0.006 -0.54884,-0.006 -0.48848,-0.004 -0.97696,9e-5 -1.46544,-0.004 -0.76846,-10e-4 -1.53693,-0.0139 -2.30541,-0.0125 -1.13463,-0.004 -2.26924,-0.007 -3.40387,-0.0109 -1.38324,0.005 -2.7672,0.002 -4.14872,0.083 -1.53938,0.10783 -3.06643,0.29886 -4.58054,0.60271 -1.7012,0.22483 -3.41612,0.41406 -5.13325,0.43054 0,0 6.63223,-4.81859 6.63223,-4.81859 z"
           id="path4892"
           style="fill:#000000;fill-opacity:1;stroke:#000000;stroke-width:1.39999998;stroke-miterlimit:4;stroke-dasharray:none;stroke-opacity:1" />
      </g>
      <path
         style="fill:#000000;fill-opacity:1;stroke:#000000;stroke-width:1.39999998;stroke-miterlimit:4;stroke-dasharray:none;stroke-opacity:1"
         id="path4894"
         d="m 244.5737,132.31074 c 1.62363,0.0292 3.24751,0.008 4.87125,0.0138 1.35043,-0.003 2.70083,-0.007 4.05125,-0.0123 0.75126,-0.005 1.50254,-0.0123 2.25382,-0.0117 0.40261,-0.005 0.80523,-0.004 1.20785,-0.007 0.1424,5e-5 0.28472,-0.008 0.42705,-0.003 0.14618,0.002 0.29236,1.9e-4 0.43852,-0.002 0.10242,-0.001 0.20479,0.003 0.30729,0.003 0.30856,0.002 0.61709,0.006 0.92569,0.004 0.15516,-10e-4 0.31033,-0.003 0.46546,-0.007 2.89971,-0.10495 -4.24002,4.80151 -7.03572,4.85987 -0.33348,-9e-4 -0.66691,-0.003 -1.00038,7.6e-4 -0.30985,-0.002 -0.61968,-0.004 -0.92954,-0.002 0,0 6.67693,-4.85108 6.67693,-4.85108 l 0,0 c 0.31186,0.002 0.62369,1.7e-4 0.93554,-0.002 0.33278,0.004 0.66551,0.002 0.9983,7.5e-4 2.91528,0.0646 -3.60237,4.96875 -6.34237,4.85988 -0.14852,-0.004 -0.29708,-0.006 -0.44565,-0.007 -0.31217,-0.002 -0.62429,0.002 -0.93643,0.004 -0.10495,0 -0.20979,0.004 -0.31466,0.003 -0.14419,-0.002 -0.28842,-0.004 -0.43263,-0.002 -0.13941,0.004 -0.27872,-0.003 -0.4182,-0.003 -0.39579,-0.003 -0.79159,-0.002 -1.18738,-0.007 -0.74059,6e-4 -1.48118,-0.007 -2.22175,-0.0116 -1.33912,-0.005 -2.67822,-0.009 -4.01735,-0.0123 -1.63636,0.005 -3.27286,-0.0153 -4.90911,0.0138 0,0 6.63222,-4.81859 6.63222,-4.81859 z"
         inkscape:connector-curvature="0" />
      <path
         inkscape:connector-curvature="0"
         d="m 300.89108,131.20648 c 1.62363,0.0292 3.24751,0.008 4.87125,0.0138 1.35043,-0.003 2.70083,-0.007 4.05125,-0.0123 0.75126,-0.005 1.50254,-0.0123 2.25382,-0.0117 0.40261,-0.005 0.80523,-0.004 1.20785,-0.007 0.1424,5e-5 0.28472,-0.008 0.42705,-0.003 0.14618,0.002 0.29236,1.9e-4 0.43852,-0.002 0.10242,-0.001 0.20479,0.003 0.30729,0.003 0.30856,0.002 0.61709,0.006 0.92569,0.004 0.15516,-0.001 0.31033,-0.003 0.46546,-0.007 2.89971,-0.10495 -4.24002,4.80151 -7.03572,4.85987 -0.33348,-9e-4 -0.66691,-0.003 -1.00038,7.6e-4 -0.30985,-0.002 -0.61968,-0.004 -0.92954,-0.002 0,0 6.67693,-4.85108 6.67693,-4.85108 l 0,0 c 0.31186,0.002 0.62369,1.7e-4 0.93554,-0.002 0.33278,0.004 0.66551,0.002 0.9983,7.5e-4 2.91528,0.0646 -3.60237,4.96875 -6.34237,4.85988 -0.14852,-0.004 -0.29708,-0.006 -0.44565,-0.007 -0.31217,-0.002 -0.62429,0.002 -0.93643,0.004 -0.10495,0 -0.20979,0.004 -0.31466,0.003 -0.14419,-0.002 -0.28842,-0.004 -0.43263,-0.002 -0.13941,0.004 -0.27872,-0.003 -0.4182,-0.003 -0.39579,-0.003 -0.79159,-0.002 -1.18738,-0.007 -0.74059,6e-4 -1.48118,-0.007 -2.22175,-0.0116 -1.33912,-0.005 -2.67822,-0.009 -4.01735,-0.0123 -1.63636,0.005 -3.27286,-0.0153 -4.90911,0.0138 0,0 6.63222,-4.81859 6.63222,-4.81859 z"
         id="path4896"
         style="fill:#000000;fill-opacity:1;stroke:#000000;stroke-width:1.39999998;stroke-miterlimit:4;stroke-dasharray:none;stroke-opacity:1" />
    </g>
    <flowRoot
       xml:space="preserve"
       id="flowRoot4898"
       style="font-style:normal;font-weight:normal;font-size:40px;line-height:125%;font-family:sans-serif;letter-spacing:0px;word-spacing:0px;fill:#000000;fill-opacity:1;stroke:none;stroke-width:1px;stroke-linecap:butt;stroke-linejoin:miter;stroke-opacity:1"
       transform="translate(-92.758053,109.87412)"
       inkscape:export-filename="/Users/sjt/Projects/kx/code/q/docs/ref/img/each-prior.png"
       inkscape:export-xdpi="39.842487"
       inkscape:export-ydpi="39.842487"><flowRegion
         id="flowRegion4900"><rect
           id="rect4902"
           width="32.575722"
           height="54.108856"
           x="433.42303"
           y="81.163307" /></flowRegion><flowPara
         id="flowPara4904">a</flowPara></flowRoot>    <flowRoot
       style="font-style:normal;font-weight:normal;font-size:40px;line-height:125%;font-family:sans-serif;letter-spacing:0px;word-spacing:0px;fill:#000000;fill-opacity:1;stroke:none;stroke-width:1px;stroke-linecap:butt;stroke-linejoin:miter;stroke-opacity:1"
       id="flowRoot4906"
       xml:space="preserve"
       transform="translate(-246.25055,24.845907)"
       inkscape:export-filename="/Users/sjt/Projects/kx/code/q/docs/ref/img/each-prior.png"
       inkscape:export-xdpi="39.842487"
       inkscape:export-ydpi="39.842487"><flowRegion
         id="flowRegion4908"><rect
           y="81.163307"
           x="433.42303"
           height="54.108856"
           width="32.575722"
           id="rect4910" /></flowRegion><flowPara
         id="flowPara4912">a</flowPara></flowRoot>    <flowRoot
       xml:space="preserve"
       id="flowRoot4914"
       style="font-style:normal;font-weight:normal;font-size:40px;line-height:125%;font-family:sans-serif;letter-spacing:0px;word-spacing:0px;fill:#000000;fill-opacity:1;stroke:none;stroke-width:1px;stroke-linecap:butt;stroke-linejoin:miter;stroke-opacity:1"
       transform="translate(-99.383628,187.72463)"
       inkscape:export-filename="/Users/sjt/Projects/kx/code/q/docs/ref/img/each-prior.png"
       inkscape:export-xdpi="39.842487"
       inkscape:export-ydpi="39.842487"><flowRegion
         id="flowRegion4916"><rect
           id="rect4918"
           width="31.471464"
           height="56.317406"
           x="438.39221"
           y="93.310188" /></flowRegion><flowPara
         id="flowPara4920">b</flowPara></flowRoot>    <flowRoot
       style="font-style:normal;font-weight:normal;font-size:40px;line-height:125%;font-family:sans-serif;letter-spacing:0px;word-spacing:0px;fill:#000000;fill-opacity:1;stroke:none;stroke-width:1px;stroke-linecap:butt;stroke-linejoin:miter;stroke-opacity:1"
       id="flowRoot4922"
       xml:space="preserve"
       transform="translate(-252.32398,104.35281)"
       inkscape:export-filename="/Users/sjt/Projects/kx/code/q/docs/ref/img/each-prior.png"
       inkscape:export-xdpi="39.842487"
       inkscape:export-ydpi="39.842487"><flowRegion
         id="flowRegion4924"><rect
           y="93.310188"
           x="438.39221"
           height="56.317406"
           width="31.471464"
           id="rect4926" /></flowRegion><flowPara
         id="flowPara4928">b</flowPara></flowRoot>    <flowRoot
       xml:space="preserve"
       id="flowRoot4930"
       style="font-style:normal;font-weight:normal;font-size:40px;line-height:125%;font-family:sans-serif;letter-spacing:0px;word-spacing:0px;fill:#000000;fill-opacity:1;stroke:none;stroke-width:1px;stroke-linecap:butt;stroke-linejoin:miter;stroke-opacity:1"
       transform="translate(-121.46888,229.13448)"
       inkscape:export-filename="/Users/sjt/Projects/kx/code/q/docs/ref/img/each-prior.png"
       inkscape:export-xdpi="39.842487"
       inkscape:export-ydpi="39.842487"><flowRegion
         id="flowRegion4932"><rect
           id="rect4934"
           width="29.815092"
           height="49.691807"
           x="462.686"
           y="136.92856" /></flowRegion><flowPara
         id="flowPara4936">c</flowPara></flowRoot>    <flowRoot
       style="font-style:normal;font-weight:normal;font-size:40px;line-height:125%;font-family:sans-serif;letter-spacing:0px;word-spacing:0px;fill:#000000;fill-opacity:1;stroke:none;stroke-width:1px;stroke-linecap:butt;stroke-linejoin:miter;stroke-opacity:1"
       id="flowRoot4938"
       xml:space="preserve"
       transform="translate(-274.96137,142.44987)"
       inkscape:export-filename="/Users/sjt/Projects/kx/code/q/docs/ref/img/each-prior.png"
       inkscape:export-xdpi="39.842487"
       inkscape:export-ydpi="39.842487"><flowRegion
         id="flowRegion4940"><rect
           y="136.92856"
           x="462.686"
           height="49.691807"
           width="29.815092"
           id="rect4942" /></flowRegion><flowPara
         id="flowPara4944">c</flowPara></flowRoot>    <g
       id="g4220"
       transform="translate(20.980988,-8.8341003)"
       inkscape:export-filename="/Users/sjt/Projects/kx/code/q/docs/ref/img/each-prior.png"
       inkscape:export-xdpi="39.842487"
       inkscape:export-ydpi="39.842487">
      <g
         id="g4863"
         transform="matrix(1.4376464,0,0,1.2521051,201.35613,387.36709)">
        <path
           inkscape:connector-curvature="0"
           d="m 105.70798,140.82896 c 0.42146,0.70185 0.75471,1.44308 1.08562,2.18959 0.27359,0.50125 0.46459,1.03274 0.66385,1.56518 0.19003,0.40937 0.35693,0.82926 0.54604,1.23881 0.10496,0.25559 0.29676,0.45539 0.43657,0.68813 0.0743,0.19006 0.26363,0.24931 0.37018,0.41139 0.0805,0.13186 0.19302,0.14097 0.28482,0.28331 0.059,0.10138 0.0943,0.21274 0.12568,0.32489 0.0615,0.12704 -0.11855,-0.13327 0.0569,0.0429 0.081,0.0268 0.21524,0.4965 0.17398,0.33951 0.10176,0.0523 0.19032,0.21903 0.25622,0.33957 0.10976,0.17758 -0.13353,-0.0825 0.0399,-0.10503 0.0442,-0.002 0.0877,-0.008 0.13017,-0.019 0.10257,-0.11912 0.18275,0.28717 0.18354,0.41089 0.003,0.089 -0.002,0.17784 -0.002,0.26689 0.001,0.15498 -0.01,0.31003 0.002,0.46475 0.0827,0.18564 0.15,0.37704 0.22765,0.5648 0.0991,0.19816 0.15348,0.39023 0.33219,0.52901 0.1032,0.0226 0.25118,0.48306 0.20565,0.30856 0.0486,-0.0231 0.10435,-0.0139 0.15608,-0.0298 0.016,-0.0295 -0.004,-0.0468 -0.0234,-0.0746 0,0 -3.27154,2.53827 -3.27154,2.53827 l 0,0 c -0.0246,-0.03 -0.0473,-0.0592 -0.0839,-0.0749 -0.10353,-0.046 -0.20719,-0.0915 -0.28604,-0.17677 -0.0836,-0.113 -0.10711,-0.22941 -0.20758,-0.32198 -0.18759,-0.19705 -0.29737,-0.42096 -0.4076,-0.66624 -0.10274,-0.20226 -0.15643,-0.42587 -0.26238,-0.62888 -0.0658,-0.18471 -0.0713,-0.36163 -0.0635,-0.55714 5.4e-4,-0.089 -0.004,-0.17787 7.6e-4,-0.26685 0.004,-0.23467 0.0952,0.11384 0.16291,0.16318 -0.05,-0.008 -0.10047,-0.0128 -0.1507,-0.0197 -0.13404,-0.0274 -0.23412,-0.12096 -0.27288,-0.25628 -0.0464,-0.10011 -0.10063,-0.16749 -0.1894,-0.23219 -0.0832,-0.11843 -0.10244,-0.22823 -0.17361,-0.34083 -0.0567,-0.0584 -0.24677,-0.23364 -0.19377,-0.26879 0.003,-0.0535 -0.005,-0.10679 -0.0242,-0.15733 -0.036,-0.0113 -0.2466,-0.15751 -0.28219,-0.282 -0.15262,-0.11677 -0.29659,-0.26141 -0.37676,-0.44092 -0.15162,-0.243 -0.34541,-0.45917 -0.44819,-0.73266 -0.19885,-0.41611 -0.35221,-0.85466 -0.55434,-1.27 -0.20239,-0.52413 -0.37064,-1.05821 -0.64045,-1.55538 -0.31801,-0.73655 -0.61764,-1.47872 -1.07641,-2.14454 0,0 3.55042,-2.04773 3.55042,-2.04773 z"
           id="path4865"
           style="fill:#000000;fill-opacity:1;stroke:#000000;stroke-width:1.39999998;stroke-miterlimit:4;stroke-dasharray:none;stroke-opacity:1" />
        <path
           inkscape:connector-curvature="0"
           d="m 117.19979,137.66547 c -0.13949,0.80007 -0.15797,1.61354 -0.25214,2.41838 -0.0965,0.66996 -0.21043,1.33572 -0.38789,1.98925 -0.20602,0.64551 -0.35821,1.3059 -0.54652,1.95654 -0.18813,0.71073 -0.4602,1.39363 -0.7438,2.07043 -0.25322,0.63897 -0.5138,1.27557 -0.81476,1.89371 -0.27077,0.4948 -0.55637,0.98121 -0.82845,1.47541 -0.24308,0.43261 -0.42447,0.89538 -0.60317,1.3572 -0.10069,0.38625 -0.27766,0.73318 -0.49633,1.06383 -0.16077,0.32775 -0.22049,0.68817 -0.35512,1.02636 -0.10534,0.28537 -0.15127,0.58255 -0.27406,0.86166 -0.0806,0.28018 -0.23822,0.52505 -0.34717,0.79307 -0.0898,0.20376 -0.1086,0.41812 -0.20969,0.61838 -0.0828,0.25755 -0.21221,0.49225 -0.35019,0.72336 -0.17631,0.18574 -0.28544,0.37335 -0.3435,0.62271 -0.11922,0.20144 -0.23168,0.41389 -0.37256,0.60493 -0.13053,0.26971 -0.28608,0.52374 -0.40653,0.79827 -0.15715,0.2512 -0.23461,0.53714 -0.42723,0.7637 -0.22034,0.17234 -0.35882,0.35274 -0.45104,0.61547 -0.14042,0.23241 -0.17103,0.52557 -0.36185,0.72292 -0.13468,0.21149 -0.28667,0.40955 -0.39753,0.63503 -0.10081,0.23612 -0.0528,0.50315 -0.19315,0.72142 -0.12452,0.20612 -0.16403,0.44193 -0.26486,0.65962 -0.0858,0.2171 -0.25271,0.37555 -0.36691,0.57517 -0.0577,0.13306 -0.0734,0.27736 -0.10523,0.41726 -0.008,0.1547 -0.006,0.30965 -0.011,0.46451 -0.0288,0.18551 -0.15782,0.32175 -0.21496,0.49356 -0.0428,0.10908 -0.0487,0.22351 -0.0516,0.33928 0.062,0.37706 0.0389,0.19774 -0.18495,0.36125 -0.0425,0.0363 -0.055,0.0451 -0.0868,7.7e-4 -0.0156,0.0963 -0.008,0.19946 -0.007,0.29806 0.003,0.10293 0.003,0.20572 0.002,0.30864 6e-5,0.0658 10e-4,0.13165 0.003,0.19744 0.002,0.0324 -0.002,0.0647 -0.002,0.0972 0.006,1.76576 3.07044,-2.03323 -3.59673,2.37917 -1.08141,0.71568 4.3895,-2.74275 3.37489,-1.93516 -0.0891,0.0732 -0.1226,-0.0622 -0.15868,-0.12772 -0.78157,-1.34506 -0.82829,0.2185 -3.57259,1.88484 0.004,-0.15684 0.002,-0.0767 0.006,-0.24057 0,0 3.67223,-1.86919 3.67223,-1.86919 l 0,0 c 0.002,0.1721 0.002,0.0872 -3.7e-4,0.25461 -2.38199,1.63363 -2.68148,3.48984 -3.61584,2.16371 -0.0819,-0.12892 -0.15562,-0.25526 -0.11181,-0.41283 0.58082,-1.42914 -0.46068,1.07607 3.64342,-2.27174 3.96392,-3.23346 -4.58433,1.23282 -3.32356,2.13865 0.0236,0.0169 -0.0255,-0.10963 3.3e-4,-0.0871 -6e-4,-0.0317 -0.004,-0.0633 -0.002,-0.095 0.002,-0.0668 0.003,-0.13367 0.003,-0.20053 -6.1e-4,-0.10248 -0.002,-0.20487 3.9e-4,-0.30737 -8.3e-4,-0.10562 0.003,-0.21343 -0.0143,-0.31762 -0.0273,-0.0686 -0.0259,-0.13247 4.4e-4,-0.20262 0.0135,-0.0362 0.11109,-0.31266 0.1693,-0.27729 0.0574,0.0349 0.0714,0.11457 0.11575,0.16501 0.007,0.008 -1.1e-4,-0.0225 -1.7e-4,-0.0337 0.001,-0.14252 -0.002,-0.28712 0.014,-0.42797 0.0378,-0.19677 0.0645,-0.36826 0.20634,-0.52171 0.11138,-0.0683 0.0435,-0.2393 0.0548,-0.35988 -0.0129,-0.17757 0.0341,-0.35221 0.0644,-0.52624 0.0493,-0.26221 0.15378,-0.44804 0.33618,-0.63597 0.1313,-0.21301 0.22675,-0.40181 0.26809,-0.64991 0.0399,-0.10114 0.14222,-0.14219 0.17504,-0.22853 0.0502,-0.13196 -0.0157,-0.30373 0.0505,-0.43514 0.0552,-0.28512 0.18253,-0.50684 0.34537,-0.74054 0.0652,-0.13602 0.15749,-0.13652 0.23061,-0.24964 0.0787,-0.12168 0.0512,-0.30458 0.16397,-0.41203 0.14427,-0.24708 0.12597,-0.58302 0.38767,-0.75824 0.0751,-0.058 0.23344,-0.14011 0.28734,-0.21931 0.0864,-0.12693 0.0691,-0.31817 0.19449,-0.42632 0.16064,-0.24921 0.24529,-0.54476 0.40415,-0.79544 0.0799,-0.21312 0.2351,-0.43364 0.36731,-0.60687 0.19854,-0.15315 0.0777,-0.53401 0.3167,-0.68626 0.17374,-0.16688 0.31697,-0.3938 0.39958,-0.61719 0.0659,-0.2158 0.21204,-0.37496 0.20944,-0.6129 0.0996,-0.278 0.22611,-0.5323 0.35291,-0.79431 0.0932,-0.28884 0.25001,-0.54473 0.28,-0.85564 0.1134,-0.35765 0.27369,-0.69431 0.34205,-1.06744 0.12571,-0.3662 0.44903,-0.62821 0.519,-1.02507 0.15421,-0.48679 0.36034,-0.96303 0.58722,-1.41949 0.25998,-0.50029 0.53407,-0.99333 0.83024,-1.47321 0.33717,-0.59243 0.58348,-1.23131 0.84113,-1.86118 0.26431,-0.67365 0.57792,-1.3301 0.76417,-2.03231 0.18528,-0.65072 0.33174,-1.31263 0.5407,-1.95557 0.19822,-0.63389 0.30365,-1.2842 0.41795,-1.93715 0.12683,-0.79589 0.13052,-1.60665 0.23787,-2.40576 0,0 3.67475,-1.81517 3.67475,-1.81517 z"
           id="path4867"
           style="fill:#000000;fill-opacity:1;stroke:#000000;stroke-width:1.39999998;stroke-miterlimit:4;stroke-dasharray:none;stroke-opacity:1" />
      </g>
      <path
         inkscape:connector-curvature="0"
         d="m 297.25986,567.59539 c 0.98202,0.17138 1.97335,0.22644 2.96292,0.26944 0.87696,0.03 1.75423,0.0279 2.6314,0.0283 0.70827,-0.001 1.41656,-0.007 2.12484,-0.007 0.53999,3.5e-4 1.08001,-0.009 1.62,-0.006 0.37664,-0.003 0.75329,-10e-4 1.12991,-0.007 0.20497,-0.004 0.40996,-4e-4 0.61495,-0.003 0.14187,-6.4e-4 0.28372,-1.5e-4 0.42559,-0.003 0.0289,-4.2e-4 0.0578,-10e-4 0.0867,-0.003 3.2e-4,-3e-5 6.5e-4,-6e-5 10e-4,-9e-5 0,0 -3.35397,3.12545 -3.35397,3.12545 l 0,0 c -2.6e-4,-4e-5 -5e-4,-7e-5 -8e-4,-9e-5 -0.0271,-0.001 -0.0541,-0.002 -0.0812,-0.003 -0.13979,-0.003 -0.27957,-0.002 -0.41937,-0.003 -0.20321,-0.002 -0.40643,0.001 -0.60962,-0.003 -0.37173,-0.006 -0.74349,-0.004 -1.11524,-0.007 -0.53602,0.003 -1.07208,-0.006 -1.60812,-0.005 -0.70525,0.002 -1.41053,-10e-4 -2.11576,-0.003 -0.87543,-0.003 -1.75116,-0.0107 -2.62596,-0.0562 -1.0048,-0.0521 -2.00789,-0.1446 -3.00842,-0.27498 0,0 3.34112,-3.0416 3.34112,-3.0416 z"
         id="path4206"
         style="fill:#000000;fill-opacity:1;stroke:#000000;stroke-width:2.83464622;stroke-miterlimit:4;stroke-dasharray:none;stroke-opacity:1" />
      <path
         inkscape:connector-curvature="0"
         d="m 315.08334,562.28636 c 1.58464,-1.15486 -1.8666,1.38938 -2.8123,2.05563 -0.12225,0.0861 0.22638,-0.20914 0.33673,-0.31852 0.34809,-0.34503 0.67299,-0.7215 0.99868,-1.10004 0.59469,-0.66294 1.06962,-1.46562 1.51442,-2.29309 0.38046,-0.73027 0.69878,-1.5081 1.01514,-2.28563 0.232,-0.51718 0.38333,-1.07304 0.50858,-1.64375 0.0522,-0.27883 0.18615,-0.51369 0.25224,-0.78344 0.006,-0.0555 0.0285,-0.13209 0.0423,-0.17392 3.07276,4.49583 3.67566,-4.54328 3.68344,-1.77152 -0.005,0.57647 -0.0117,1.15299 -0.0117,1.72951 -0.006,0.97951 -0.0113,1.95914 -0.007,2.93869 -0.0642,1.20284 -0.17685,2.39939 -0.22696,3.60369 -0.10164,1.27849 -0.21287,2.55544 -0.3505,3.82839 -0.1092,1.26682 -0.28006,2.52289 -0.3962,3.78852 -0.0951,1.11645 -0.10211,2.23811 -0.19927,3.35415 -0.0888,0.85099 -0.15382,1.70549 -0.1811,2.56338 -0.0207,0.71267 -0.024,1.4262 -0.0207,2.13932 0.004,0.57549 0.002,1.151 0.007,1.72649 0.003,0.40758 0.002,0.81519 0.005,1.22277 -5.5e-4,0.32046 -10e-4,0.6409 0.004,0.96131 0.004,0.14578 9.6e-4,0.29154 0.003,0.43739 4e-4,0.0449 0.002,0.0899 0.003,0.13477 -1.28556,1.76631 -3.627,4.01393 -3.69012,2.10727 -10e-6,-0.12153 -10e-4,-0.24342 0.001,-0.36502 -8e-4,-0.18664 3e-5,-0.37319 0.003,-0.55981 0,0 3.67939,-2.40455 3.67939,-2.40455 l 0,0 c 0.003,0.18548 0.003,0.3709 0.003,0.55639 0.003,0.1211 10e-4,0.24248 10e-4,0.36353 -0.0581,1.82984 -2.40998,4.18856 -3.69012,2.71586 10e-4,-0.0463 0.003,-0.0925 0.003,-0.13884 0.002,-0.14708 -10e-4,-0.29406 0.003,-0.44106 0.005,-0.32201 0.004,-0.64404 0.004,-0.96609 0.003,-0.40919 0.002,-0.81841 0.004,-1.22762 0.004,-0.57791 4e-5,-1.1558 0.003,-1.73372 0.003,-0.72075 -10e-4,-1.44157 0.0154,-2.16214 0.033,-0.87429 0.0832,-1.74626 0.18399,-2.61279 0.12303,-1.11507 0.12882,-2.23646 0.20804,-3.35729 0.1254,-1.26961 0.29056,-2.53122 0.3983,-3.80387 0.15177,-1.25658 0.23709,-2.52206 0.36198,-3.78299 0.0532,-1.19309 0.13229,-2.38156 0.22565,-3.57048 0.004,-0.97624 -0.002,-1.95257 -0.008,-2.92877 -3.6e-4,-0.57131 -0.008,-1.1426 -0.0133,-1.71385 0.007,-1.88394 1.56086,-6.38535 3.69082,-3.03317 0.0115,0.0943 -4.8e-4,0.1883 -0.0135,0.28209 -0.0445,0.30969 -0.1138,0.57667 -0.24861,0.84523 -0.19801,0.55268 -0.22535,1.2036 -0.50874,1.71733 -0.31244,0.79731 -0.63412,1.59094 -1.00739,2.34474 -0.42744,0.86485 -0.89124,1.71575 -1.48251,2.41098 -1.63446,1.99592 -3.33304,3.33968 -5.48167,4.65413 0,0 3.1894,-3.30959 3.1894,-3.30959 z"
         id="path4208"
         style="fill:#000000;fill-opacity:1;stroke:#000000;stroke-width:2.83464622;stroke-miterlimit:4;stroke-dasharray:none;stroke-opacity:1" />
      <path
         inkscape:connector-curvature="0"
         d="m 327.65993,584.39438 c 0.72605,0.41601 1.49412,0.64051 2.27804,0.77791 0.54751,0.0896 1.10046,0.0885 1.65139,0.0878 0.3814,6.4e-4 0.76273,-0.0114 1.14409,-0.0142 0.20539,-0.002 0.41076,-0.002 0.61614,-0.007 0.036,-10e-4 0.072,-0.002 0.10791,-0.003 0.0622,0.005 0.12616,0.003 0.18899,10e-4 0.18171,0.004 0.36347,0.005 0.54522,0.005 0.26996,6.4e-4 0.53993,0.003 0.80989,10e-4 0.23992,-0.2216 0.52399,-0.27673 0.80847,-0.33122 0.20698,-0.0525 0.41764,-0.0307 0.62713,-0.0297 0.20493,0.003 0.40989,0.003 0.61484,0.003 0.18553,0.002 0.37108,6.3e-4 0.55662,2.2e-4 0.13851,-0.002 0.277,4e-5 0.41553,-0.002 0.11692,0.003 0.23387,10e-4 0.35078,-10e-4 0.0934,0.003 0.18678,0.002 0.28015,-2.3e-4 0.017,-1.8e-4 0.0339,-0.001 0.0509,-0.001 0.0744,0.005 0.14897,0.003 0.22343,0.001 0.0922,0.003 0.18439,0.002 0.27656,1.1e-4 0.0176,-1.8e-4 0.0351,-10e-4 0.0526,-0.002 0.0649,0.004 0.13,0.003 0.19497,0.002 0.10251,0.002 0.20508,9e-5 0.3076,0.002 0.0976,6.4e-4 0.19524,-6.4e-4 0.29284,-0.003 0.0117,-3e-5 0.0233,-6.4e-4 0.0349,-10e-4 0,0 -3.35404,3.12553 -3.35404,3.12553 l 0,0 c -0.0107,-4.4e-4 -0.0214,-10e-4 -0.0321,-10e-4 -0.0955,-0.003 -0.19098,-0.004 -0.28648,-0.003 -0.10412,0.002 -0.20827,5e-5 -0.31237,0.002 -0.0664,-6.4e-4 -0.1329,-0.002 -0.19925,0.002 -0.0164,-6.2e-4 -0.0328,-10e-4 -0.0492,-0.002 -0.0923,-0.002 -0.18457,-0.003 -0.27682,1.2e-4 -0.0755,-0.001 -0.15116,-0.003 -0.22665,10e-4 -0.0158,-6e-4 -0.0316,-10e-4 -0.0475,-10e-4 -0.0932,-0.002 -0.18643,-0.003 -0.27962,-2.4e-4 -0.11583,-0.003 -0.2317,-0.004 -0.34754,-10e-4 -0.13724,-0.002 -0.27445,2.4e-4 -0.41168,-0.002 -0.18562,-6.4e-4 -0.37123,-0.003 -0.55685,-0.002 -0.20266,-10e-4 -0.40542,-0.005 -0.60802,0.003 -0.19627,0.009 -0.38852,0.0425 -0.57959,0.10175 -0.28535,0.0902 -0.55558,0.28454 -0.85628,0.24929 -0.27068,-10e-4 -0.54137,10e-5 -0.81205,10e-4 -0.18528,-2.4e-4 -0.37058,10e-4 -0.55583,0.005 -0.0642,-6.4e-4 -0.1324,-0.003 -0.19407,10e-4 -0.0332,-6.4e-4 -0.0664,-0.002 -0.0996,-0.003 -0.2014,-0.004 -0.40278,-0.003 -0.60419,-0.002 -0.37778,0.003 -0.75566,-0.003 -1.13341,-0.004 -0.55911,-0.0127 -1.12019,-0.0363 -1.67171,-0.16566 -0.80093,-0.1861 -1.57738,-0.47246 -2.33542,-0.85537 0,0 3.4012,-2.93632 3.4012,-2.93632 z"
         id="path4210"
         style="fill:#000000;fill-opacity:1;stroke:#000000;stroke-width:2.83464622;stroke-miterlimit:4;stroke-dasharray:none;stroke-opacity:1" />
    </g>
    <flowRoot
       xml:space="preserve"
       id="flowRoot4228"
       style="font-style:normal;font-weight:normal;font-size:40px;line-height:125%;font-family:sans-serif;letter-spacing:0px;word-spacing:0px;fill:#000000;fill-opacity:1;stroke:none;stroke-width:1px;stroke-linecap:butt;stroke-linejoin:miter;stroke-opacity:1"
       transform="translate(-126.43806,294.28596)"
       inkscape:export-filename="/Users/sjt/Projects/kx/code/q/docs/ref/img/each-prior.png"
       inkscape:export-xdpi="39.842487"
       inkscape:export-ydpi="39.842487"><flowRegion
         id="flowRegion4230"><rect
           id="rect4232"
           width="42.514069"
           height="58.525917"
           x="469.86371"
           y="157.90955" /></flowRegion><flowPara
         id="flowPara4234">d</flowPara></flowRoot>    <flowRoot
       style="font-style:normal;font-weight:normal;font-size:40px;line-height:125%;font-family:sans-serif;letter-spacing:0px;word-spacing:0px;fill:#000000;fill-opacity:1;stroke:none;stroke-width:1px;stroke-linecap:butt;stroke-linejoin:miter;stroke-opacity:1"
       id="flowRoot4236"
       xml:space="preserve"
       transform="translate(-281.03482,208.70562)"
       inkscape:export-filename="/Users/sjt/Projects/kx/code/q/docs/ref/img/each-prior.png"
       inkscape:export-xdpi="39.842487"
       inkscape:export-ydpi="39.842487"><flowRegion
         id="flowRegion4238"><rect
           y="157.90955"
           x="469.86371"
           height="58.525917"
           width="42.514069"
           id="rect4240" /></flowRegion><flowPara
         id="flowPara4242">d</flowPara></flowRoot>    <flowRoot
       xml:space="preserve"
       id="flowRoot4244"
       style="font-style:normal;font-weight:normal;font-size:40px;line-height:125%;font-family:sans-serif;letter-spacing:0px;word-spacing:0px;fill:#000000;fill-opacity:1;stroke:none;stroke-width:1px;stroke-linecap:butt;stroke-linejoin:miter;stroke-opacity:1"
       transform="translate(166.74364,273.30498)"
       inkscape:export-filename="/Users/sjt/Projects/kx/code/q/docs/ref/img/each-prior.png"
       inkscape:export-xdpi="39.842487"
       inkscape:export-ydpi="39.842487"><flowRegion
         id="flowRegion4246"><rect
           id="rect4248"
           width="33.127876"
           height="55.213154"
           x="23.189514"
           y="178.33841" /></flowRegion><flowPara
         id="flowPara4250">e</flowPara></flowRoot>  </g>
</svg>
