<?xml version="1.0" encoding="UTF-8" standalone="no"?>
<!-- Created with Inkscape (http://www.inkscape.org/) -->

<svg
   xmlns:dc="http://purl.org/dc/elements/1.1/"
   xmlns:cc="http://creativecommons.org/ns#"
   xmlns:rdf="http://www.w3.org/1999/02/22-rdf-syntax-ns#"
   xmlns:svg="http://www.w3.org/2000/svg"
   xmlns="http://www.w3.org/2000/svg"
   xmlns:sodipodi="http://sodipodi.sourceforge.net/DTD/sodipodi-0.dtd"
   xmlns:inkscape="http://www.inkscape.org/namespaces/inkscape"
   width="210mm"
   height="297mm"
   viewBox="0 0 744.09448819 1052.3622047"
   id="svg2"
   version="1.1"
   inkscape:version="0.91 r13725"
   sodipodi:docname="xasc.svg">
  <defs
     id="defs4" />
  <sodipodi:namedview
     id="base"
     pagecolor="#ffffff"
     bordercolor="#666666"
     borderopacity="1.0"
     inkscape:pageopacity="0.0"
     inkscape:pageshadow="2"
     inkscape:zoom="0.90558174"
     inkscape:cx="356.58757"
     inkscape:cy="482.0106"
     inkscape:document-units="px"
     inkscape:current-layer="layer1"
     showgrid="false"
     inkscape:window-width="1920"
     inkscape:window-height="1155"
     inkscape:window-x="1920"
     inkscape:window-y="1"
     inkscape:window-maximized="1" />
  <metadata
     id="metadata7">
    <rdf:RDF>
      <cc:Work
         rdf:about="">
        <dc:format>image/svg+xml</dc:format>
        <dc:type
           rdf:resource="http://purl.org/dc/dcmitype/StillImage" />
        <dc:title></dc:title>
      </cc:Work>
    </rdf:RDF>
  </metadata>
  <g
     inkscape:label="Layer 1"
     inkscape:groupmode="layer"
     id="layer1">
    <rect
       style="fill:#fffdfd;fill-opacity:1;stroke:#000000;stroke-opacity:1;stroke-width:5;stroke-miterlimit:4;stroke-dasharray:none"
       id="rect3336"
       width="581.94635"
       height="325.75745"
       x="66.255753"
       y="129.19872"
       inkscape:export-xdpi="90"
       inkscape:export-ydpi="90" />
    <path
       style="fill:#000000;fill-opacity:1;stroke:#000000;stroke-opacity:1"
       id="path4140"
       d="m 174.29125,92.979057 c 1.23058,2.886364 2.0868,5.905919 2.60959,8.995413 0.38679,2.37345 0.44336,4.7828 0.48032,7.18222 0.0212,1.92985 0.008,3.86039 -0.013,5.7903 -0.009,2.16192 1e-4,4.3239 -0.0134,6.4858 -0.0108,2.04097 0.0256,4.08212 0.0125,6.12303 -0.0114,1.85294 0.0175,3.70611 0.003,5.55899 -0.0135,1.83804 0.0149,3.67631 -3e-5,5.5143 -0.0136,1.84003 0.0149,3.68029 -4e-5,5.52028 0.0492,1.75341 -0.1041,3.51829 0.0786,5.2654 0.39007,1.50777 0.68969,3.03548 0.87646,4.58136 0.19431,1.44349 0.0702,2.90716 0.23236,4.35141 0.34767,1.20656 0.68787,2.40822 0.8753,3.65133 0.18074,1.29537 0.16201,2.60653 0.16409,3.91126 -0.0822,1.28803 0.43026,2.48486 0.72347,3.71571 0.33818,1.36627 0.24728,2.78577 0.43077,4.17116 0.47559,1.32071 0.65039,2.70775 0.95777,4.06815 0.55852,1.45515 0.86387,2.96097 1.03832,4.50429 0.0988,1.63931 0.62981,3.20161 0.89865,4.81432 0.28011,2.0037 0.81138,3.95269 1.08755,5.95865 0.26813,2.24393 0.76149,4.45542 1.19347,6.67325 0.56561,2.66384 1.12958,5.33066 1.6524,8.0035 0.53624,2.75132 1.09328,5.49674 1.62451,8.24937 0.75059,2.78233 0.98805,5.64854 1.33544,8.49684 0.36789,3.04878 0.95,6.05701 1.46719,9.08077 0.53216,3.14246 1.17931,6.25455 1.50486,9.42803 0.14622,3.14347 0.45095,6.25511 0.83874,9.37589 0.39082,2.96646 0.55353,5.96109 0.60863,8.95131 0.0147,2.79991 0.54646,5.55922 0.81678,8.34073 0.27442,2.61673 0.31331,5.24951 0.3317,7.87812 0.023,2.4083 0.0358,4.81702 0.0226,7.22544 0.0104,1.95119 0.0245,3.90226 0.007,5.85341 -0.005,2.10684 0.004,4.21377 -0.009,6.3206 0.0103,1.93785 0.0249,3.87558 0.009,5.81339 -0.004,2.11073 0.005,4.22154 -0.009,6.33226 -3e-4,2.20659 0.0115,4.41328 -9.7e-4,6.61986 -0.0139,2.52378 0.005,5.04799 -0.0188,7.57176 -0.005,3.28729 -0.008,6.57465 -0.0419,9.86182 -0.011,4.21173 -0.002,8.4234 -0.0106,12.63517 0.041,4.16807 -0.48858,8.31781 -0.78326,12.47197 -0.11611,4.35152 -0.37835,8.68345 -0.78688,13.01682 -0.4111,4.11022 -0.91619,8.21895 -1.48385,12.31153 -0.55489,3.92367 -1.10586,7.84494 -1.68841,11.76491 -0.4522,3.74892 -1.1138,7.46304 -1.5087,11.21964 -0.2433,3.64734 -0.79502,7.26268 -1.12804,10.90248 -0.3006,3.30204 -0.18369,6.62268 -0.41411,9.92623 -0.39639,2.96382 -0.6914,5.93301 -0.858,8.91839 -0.12976,2.75949 -0.11854,5.52165 -0.13093,8.28321 0.006,2.3185 0.0255,4.63706 0.0162,6.95557 -0.004,2.42958 -0.008,4.85912 0.003,7.28881 0.0181,1.97825 0.0109,3.95661 0.014,5.93498 0.0343,1.85698 -0.0668,3.71455 0.077,5.56746 0.35547,1.85357 0.69204,3.70251 0.87561,5.58204 0.1919,1.58627 0.059,3.19274 0.23697,4.77794 0.43339,1.3753 0.71525,2.77035 0.8733,4.20235 0.1009,1.1401 0.17612,2.28573 0.18828,3.4307 0.005,0.93109 -4.5e-4,1.8624 -0.0102,2.7935 -0.11455,0.92591 0.36466,1.68625 0.67721,2.51373 0.26656,0.70098 0.38436,1.42485 0.41968,2.1698 0.034,0.68579 0.0225,1.37193 0.0278,2.05813 0.0393,0.44382 -0.37511,-0.0962 0.25048,-0.21127 0.17559,-0.06 0.16113,-0.12299 0.0953,-0.27354 -0.0263,-0.0381 -0.10169,-0.15469 -0.0789,-0.11439 0.79363,1.40175 0.83366,1.10617 0.84525,2.13783 6.8e-4,0.10067 0.004,0.20129 0.007,0.30189 -3.1e-4,0.003 5.2e-4,0.007 7.8e-4,0.01 0,0 -14.76147,7.51398 -14.76147,7.51398 l 0,0 c 2.9e-4,-0.004 9.9e-4,-0.007 8.6e-4,-0.0109 0.004,-0.10356 0.008,-0.20712 0.01,-0.31077 0.007,-0.36079 -0.0835,-0.76864 0.002,-0.66275 0.31223,0.38703 0.56659,0.81737 0.84989,1.22606 -0.0307,-0.0365 -0.0614,-0.073 -0.092,-0.1095 -0.14953,-0.14541 -0.31177,-0.25412 -0.50804,-0.3333 -0.60796,-0.32979 -1.34388,-0.92947 -1.34139,-1.67109 0.0111,-0.67117 0.009,-1.34243 0.0145,-2.01366 -0.007,-0.58624 0.005,-1.16528 -0.18429,-1.73011 -0.29915,-1.00143 -0.98782,-1.92802 -0.91859,-3.01168 -0.006,-0.92437 -0.003,-1.84883 -2.4e-4,-2.77319 -0.002,-1.10825 0.0186,-2.21756 -0.0701,-3.32374 -0.11547,-1.39532 -0.33659,-2.75748 -0.81272,-4.08149 -0.37082,-1.61156 -0.12582,-3.27933 -0.29035,-4.92277 -0.13831,-1.86821 -0.42023,-3.71174 -0.82025,-5.54272 -0.30818,-1.89659 -0.16751,-3.8194 -0.18707,-5.73733 0.003,-1.98304 -0.004,-3.96608 0.0139,-5.94901 0.0103,-2.42954 0.007,-4.85889 -0.001,-7.28831 -0.0134,-2.32386 -0.002,-4.64789 0.006,-6.97173 -0.002,-2.78848 0.0156,-5.57914 0.12299,-8.36545 0.12721,-3.00616 0.34377,-6.01276 0.84032,-8.98315 0.36505,-3.29564 0.1232,-6.6257 0.44974,-9.92837 0.25778,-3.65714 0.88638,-7.26735 1.14326,-10.92281 0.27027,-3.79835 1.0206,-7.51916 1.49055,-11.29347 0.47259,-3.93717 1.1837,-7.8499 1.69034,-11.78273 0.60523,-4.06644 1.02643,-8.16175 1.52942,-12.24102 0.38411,-4.32251 0.76912,-8.63254 0.81737,-12.97628 0.20815,-4.13289 0.77554,-8.2408 0.8172,-12.37914 -0.009,-4.20816 3.4e-4,-8.41621 -0.0106,-12.62433 -0.0343,-3.27294 -0.0371,-6.54607 -0.0419,-9.81913 -0.0245,-2.51736 -0.005,-5.03518 -0.0188,-7.55255 -0.0125,-2.20626 -6.1e-4,-4.41261 -9.7e-4,-6.61888 -0.0133,-2.10779 -0.004,-4.21568 -0.009,-6.32349 -0.0166,-1.94071 -0.002,-3.88134 0.008,-5.82209 -0.0133,-2.104 -0.004,-4.2081 -0.008,-6.31211 -0.0162,-1.95566 6.4e-4,-3.91122 0.0159,-5.86687 -0.008,-2.40817 0.0172,-4.81631 0.0114,-7.22451 -0.0276,-2.58771 -0.0493,-5.17788 -0.25957,-7.75889 -0.25701,-2.82197 -0.81213,-5.61813 -0.86011,-8.4507 -0.0748,-2.93886 -0.13969,-5.88365 -0.52302,-8.8027 -0.41076,-3.13683 -0.76594,-6.25655 -0.83753,-9.42421 -0.31393,-3.13956 -0.92723,-6.21468 -1.47353,-9.31751 -0.52319,-3.04042 -1.12035,-6.05952 -1.48756,-9.12566 -0.44375,-2.7965 -0.53557,-5.64974 -1.29684,-8.39584 -0.61244,-2.74016 -1.06399,-5.52005 -1.64261,-8.26709 -0.50689,-2.66273 -1.11754,-5.30477 -1.65223,-7.96132 -0.53157,-2.2322 -0.95977,-4.5118 -1.28362,-6.77876 -0.24941,-1.99818 -0.77734,-3.9277 -1.10252,-5.90598 -0.23785,-1.65016 -0.80256,-3.23512 -0.95435,-4.89001 -0.12154,-1.46502 -0.35189,-2.89696 -0.91216,-4.26792 -0.41055,-1.36571 -0.46466,-2.81398 -1.01534,-4.14955 -0.34568,-1.3595 -0.17461,-2.76129 -0.43285,-4.14148 -0.26857,-1.35123 -0.88895,-2.64909 -0.86699,-4.0361 -0.007,-1.2396 -1e-4,-2.48153 -0.0943,-3.71832 -0.12379,-1.22462 -0.41959,-2.41048 -0.81071,-3.57749 -0.35085,-1.46419 -0.14499,-2.9722 -0.29497,-4.46804 -0.13377,-1.5224 -0.37078,-3.0366 -0.81941,-4.50125 -0.37982,-1.80604 -0.1032,-3.67555 -0.18563,-5.51313 -0.0151,-1.83997 0.0137,-3.68022 -4e-5,-5.52023 -0.0151,-1.83798 0.0136,-3.67623 -5e-5,-5.51425 -0.0151,-1.85373 0.0141,-3.70776 0.002,-5.56154 -0.0133,-2.04542 0.023,-4.09109 0.013,-6.13657 -0.0124,-2.16132 -0.001,-4.32276 7.9e-4,-6.48407 -0.0105,-1.9241 0.002,-3.84834 0.0165,-5.77236 -7.2e-4,-2.33459 -0.0121,-4.67616 -0.3091,-6.99594 -0.43612,-2.96603 -1.14665,-5.90103 -2.47803,-8.60526 0,0 14.30268,-8.032813 14.30268,-8.032813 z"
       inkscape:connector-curvature="0"
       inkscape:export-xdpi="90"
       inkscape:export-ydpi="90" />
    <path
       style="fill:#000000;fill-opacity:1;stroke:#000000;stroke-opacity:1"
       id="path4142"
       d="m 386.23087,104.00617 c 1.45498,-1.67531 2.83377,-3.41435 4.25493,-5.117846 0.38016,-0.695411 0.76866,-1.349846 1.28044,-1.95824 4.86839,-2.735366 9.73058,-5.481823 14.60519,-8.206097 0.90083,-0.503446 1.06711,1.846194 1.13388,2.074772 0.0396,0.135503 -0.28389,0.04847 -0.4067,0.118083 -0.19946,1.041866 -0.0903,2.136051 -0.0743,3.19424 0.0303,1.777816 0.0322,3.556469 0.0206,5.334574 0.006,2.341724 -0.004,4.683324 -0.0167,7.025054 0.01,2.61499 0.0133,5.23002 -0.0123,7.84493 0.003,2.90746 0.0181,5.81486 -0.005,8.72224 -0.0445,2.75804 0.12763,5.52287 -0.0719,8.27531 -0.40212,2.5072 -0.68798,5.02379 -0.86581,7.55635 0.0137,2.13668 -0.17861,4.22197 -0.5863,6.316 -0.36455,2.07468 -0.50645,4.17494 -0.6033,6.2758 -0.0556,2.37793 -0.50608,4.74001 -0.93271,7.0762 -0.57942,2.33351 -0.95678,4.69719 -1.17692,7.08893 -0.0382,2.26814 -0.21561,4.50026 -0.6038,6.73472 -0.40394,2.42708 -1.04839,4.78995 -1.39791,7.22851 -0.35491,3.16722 -0.34882,6.35718 -0.40866,9.53906 -0.0299,4.03462 -0.0155,8.06917 -0.0229,12.10388 0.0213,4.25142 0.005,8.50281 -0.006,12.75435 0.0103,4.28423 0.0285,8.56879 0.002,12.85304 -0.16029,4.21821 0.13071,8.40349 0.47715,12.60115 0.3773,4.06609 0.54789,8.15143 0.59689,12.23406 0.0551,3.73672 0.0839,7.47438 0.0689,11.21155 0.003,3.35342 0.0198,6.70702 1.1e-4,10.06042 -0.0405,3.3073 0.51507,6.57901 0.76963,9.86971 0.14674,3.0387 0.32779,6.04796 0.89345,9.0402 0.64211,2.90019 1.32881,5.79292 1.93409,8.70089 0.59354,2.60531 1.12343,5.21878 1.66945,7.8348 0.61372,2.43611 1.52053,4.76949 2.00929,7.23848 0.33639,2.00731 0.90438,3.963 1.34336,5.95091 0.52592,2.44841 1.15265,4.87893 1.64868,7.33306 0.6107,3.00777 1.10989,6.03096 1.61562,9.05767 0.59657,3.15457 1.16133,6.31696 1.69243,9.48327 0.62625,3.28037 1.11523,6.57635 1.61531,9.8779 0.69261,3.17359 0.96226,6.40549 1.34312,9.62336 0.53386,2.95903 0.87302,5.94008 1.0136,8.9423 0.14025,2.90523 0.15003,5.81463 0.14838,8.72263 -0.12773,2.87709 0.0981,5.71626 0.44208,8.56788 0.38437,2.82476 0.54945,5.67713 0.60605,8.52597 0.0525,2.65364 0.0854,5.30848 0.0593,7.96262 -0.076,2.52975 0.47795,5.0136 0.76246,7.5156 0.26068,2.26142 0.32425,4.54042 0.34374,6.81498 0.0246,2.1632 0.0173,4.32663 0.0207,6.49 0.007,1.92543 0.007,3.85114 -0.009,5.77658 0.0105,1.85155 0.0123,3.70292 0.0133,5.55447 -0.004,1.65998 0.017,3.32039 2.8e-4,4.98036 -0.016,1.80789 0.0115,3.616 -0.004,5.42385 -0.0139,1.84114 0.0147,3.6825 -2.4e-4,5.5236 0.01,1.69599 0.007,3.39179 0.006,5.08778 -0.003,1.60103 0.007,3.20216 0.007,4.80326 0.006,1.25916 0.0226,2.51852 0.002,3.77758 0.0572,1.4866 0.0201,2.92913 -0.39582,4.36263 -0.355,1.06458 -0.53503,2.16117 -0.63964,3.27425 -0.0141,1.2007 -0.0558,2.35363 -0.45495,3.49447 -0.38543,1.00603 -0.55008,2.05705 -0.65043,3.12293 -0.0697,1.08799 -0.0589,2.17839 -0.0651,3.2679 0.0145,0.79012 0.0127,1.58028 0.0247,2.37039 0.89449,6.34961 -9.08412,9.23429 -15.12442,9.59992 4.63555,-2.74013 9.23272,-5.54624 13.90664,-8.22039 0.11191,-0.064 0.0205,0.26157 -0.0108,0.38666 -0.0677,0.27088 -0.2934,-0.47519 -0.43628,-0.71507 -20.68084,11.25829 -17.24357,8.70977 0.71037,1.06911 0.0955,-0.0406 -0.0693,0.19563 -0.10387,0.29345 -2e-5,0.002 -3e-5,0.004 -4e-5,0.006 -4.96263,2.52362 -9.92525,5.04724 -14.88788,7.57086 0,0 13.92955,-8.81511 13.92955,-8.81511 l 0,0 c -4.69556,2.7229 -9.39112,5.4458 -14.08668,8.16869 0.003,-0.006 0.006,-0.0112 0.009,-0.0168 0.0524,-0.10631 0.051,-0.26638 0.1572,-0.31895 23.09046,-11.42802 17.1321,-8.36495 0.5888,1.37254 -3.71492,-5.73749 8.89053,-8.26842 13.36393,-10.82675 5.35659,-2.95378 -17.98384,4.77403 -13.08855,7.90293 0.1285,0.0821 0.20342,0.27044 0.35481,0.28887 0.0811,0.01 0.003,-0.16345 0.004,-0.24517 0.009,-0.79685 0.002,-1.59373 0.0126,-2.39061 -0.009,-1.11908 -0.0124,-2.23889 0.02,-3.35754 0.0334,-1.17594 0.11193,-2.37167 0.47278,-3.49805 0.31858,-1.07672 0.83882,-1.9323 0.63241,-3.12064 0.0364,-1.21296 0.13191,-2.43982 0.49578,-3.60375 0.37687,-1.33652 0.8392,-2.51642 0.60432,-3.95433 -0.0211,-1.25971 -0.004,-2.51974 0.002,-3.77956 8.4e-4,-1.6036 0.0103,-3.20724 0.007,-4.81078 -0.001,-1.69796 -0.004,-3.39574 0.006,-5.09371 -0.0151,-1.84101 0.0137,-3.6823 -2.3e-4,-5.52336 -0.0152,-1.80661 0.0124,-3.61349 -0.004,-5.42014 -0.0169,-1.66005 0.005,-3.32054 1.9e-4,-4.9806 9.6e-4,-1.85635 0.003,-3.71251 0.014,-5.56884 -0.0149,-1.92457 -0.0129,-3.84944 -1.5e-4,-5.77395 0.009,-2.16066 0.0138,-4.32116 0.007,-6.48182 -0.0299,-2.22758 -0.0423,-4.45857 -0.25824,-6.67813 -0.2701,-2.56242 -0.8381,-5.10497 -0.82585,-7.68482 -0.0236,-2.64461 0.019,-5.28951 -0.0278,-7.93409 -0.0781,-2.80083 -0.15336,-5.60654 -0.52462,-8.38778 -0.36187,-2.90789 -0.73184,-5.79844 -0.54285,-8.73807 -0.007,-2.88792 0.003,-5.77643 -0.0941,-8.66321 -0.14908,-2.95789 -0.40333,-5.90654 -0.94104,-8.8231 -0.48043,-3.19204 -0.57907,-6.439 -1.28766,-9.60175 -0.57215,-3.2824 -1.01093,-6.58714 -1.64355,-9.85878 -0.51495,-3.16292 -1.14054,-6.3062 -1.6757,-9.46555 -0.5779,-2.99513 -0.99379,-6.02058 -1.64685,-9.00209 -0.49071,-2.43197 -1.14141,-4.83011 -1.64397,-7.25971 -0.53386,-1.98885 -1.03198,-4.00748 -1.38272,-6.03221 -0.43302,-2.46955 -1.326,-4.78726 -1.95557,-7.20575 -0.61049,-2.60814 -1.06931,-5.25477 -1.67238,-7.86419 -0.58313,-2.91345 -1.30056,-5.79918 -1.91059,-8.70711 -0.68731,-3.0454 -0.91222,-6.11254 -0.97502,-9.23064 -0.26418,-3.32924 -0.81597,-6.64356 -0.8287,-9.98316 -0.0175,-3.35556 0.004,-6.71129 0.0123,-10.06683 -0.0123,-3.73533 0.0257,-7.47069 -0.0184,-11.20599 -0.0877,-4.04838 -0.15581,-8.10034 -0.53851,-12.13476 -0.39576,-4.24139 -0.70688,-8.47202 -0.52286,-12.73752 -0.0265,-4.28478 -0.008,-8.56987 10e-4,-12.85463 -0.0115,-4.2474 -0.0294,-8.49459 -0.0162,-12.74192 -0.0146,-4.03148 -0.0179,-8.06295 -0.022,-12.09435 -0.0193,-3.22393 0.007,-6.45616 0.27724,-9.67017 0.21821,-2.48004 0.77739,-4.85682 1.31958,-7.27526 0.33445,-2.20293 0.76714,-4.36118 0.6706,-6.60838 0.14027,-2.4562 0.46165,-4.90476 1.1107,-7.28255 0.49242,-2.235 0.80679,-4.54225 1.01443,-6.81232 0.0374,-2.16705 0.1803,-4.33038 0.52226,-6.47293 0.27201,-2.06222 0.815,-4.06341 0.67698,-6.17408 0.12284,-2.55219 0.35091,-5.11002 0.83006,-7.62133 0.37972,-2.69289 0.0878,-5.43315 0.19228,-8.1452 -0.0236,-2.90561 -0.008,-5.81125 -0.005,-8.71694 -0.0257,-2.61091 -0.0217,-5.22194 -0.0114,-7.83293 -0.012,-2.33429 -0.0208,-4.66841 -0.0204,-7.00272 -0.018,-1.76204 -0.0193,-3.52416 -0.0532,-5.28602 -0.0269,-1.15858 -0.0656,-2.316356 -0.13477,-3.473244 -0.26111,-2.88456 2.02672,0.605547 1.1178,0.744832 4.60561,-2.640609 9.21121,-5.281218 13.81681,-7.921827 -0.72123,0.16215 -1.40941,0.595787 -1.63572,1.316463 -1.02602,2.011479 -2.97473,3.449282 -4.22444,5.321577 0,0 -15.09408,6.413099 -15.09408,6.413099 z"
       inkscape:connector-curvature="0"
       inkscape:export-xdpi="90"
       inkscape:export-ydpi="90" />
    <path
       style="fill:#000000;fill-opacity:1;stroke:#000000;stroke-opacity:1"
       id="path4144"
       d="m 156.12639,100.94447 c 0.0601,-2.255383 0.0279,-4.512246 -0.0318,-6.767281 -0.0102,-0.343942 -0.0196,-0.688052 -0.0414,-1.031438 0.0164,-0.253856 0.0115,-0.509878 0.007,-0.764603 -0.001,-0.09304 -0.005,-0.186001 -0.008,-0.278961 0.78751,1.392835 0.95127,1.161376 0.19401,1.114134 -0.0573,-0.0023 -0.14698,-0.05869 -0.17186,-0.007 -0.0617,0.128017 -0.15421,0.493462 -0.0296,0.425246 4.60034,-2.517738 9.0689,-5.269371 13.62517,-7.866027 0.13562,-0.07729 -0.24938,0.190178 -0.35625,0.303951 -0.4128,0.439435 -0.46092,0.598251 -0.76072,1.124519 -1.07727,1.769162 -2.51918,3.268407 -3.67836,4.991902 -1.50582,2.113926 -3.0524,4.190761 -4.41342,6.403122 -1.74142,2.448136 -3.26997,5.022066 -4.7757,7.619216 -1.61765,2.90541 -3.27893,5.77701 -5.17831,8.50823 -1.71538,2.30999 -3.17081,4.79316 -4.82373,7.14525 -1.40367,1.7957 -2.52463,3.7593 -3.49473,5.81377 -0.65755,1.40156 -1.52831,2.69022 -2.0067,4.17018 -0.21631,1.09194 -0.42227,2.15547 -0.84053,3.19267 -0.34357,0.85213 -0.73793,1.67857 -1.1132,2.52344 -0.42047,0.69794 -0.3772,1.51629 -0.63129,2.25281 -0.39645,0.2945 -0.60213,0.75325 -0.82152,1.18184 -0.0631,0.57774 -0.49435,0.97515 -0.85483,1.39688 -0.10236,0.0768 -0.12444,0.16953 -0.15588,0.26847 -14.11228,5.89415 -17.60981,10.10459 -13.51491,3.84279 1.03843,-1.32428 1.95744,-2.73403 2.93921,-4.10053 0.82341,-1.18985 1.53054,-2.45123 2.2401,-3.71026 0,0 14.9383,-6.69948 14.9383,-6.69948 l 0,0 c -0.67614,1.29913 -1.36216,2.59791 -2.15019,3.83338 -0.88066,1.42859 -1.91357,2.77399 -2.854,4.15698 -5.43631,6.37156 7.15226,0.54721 -16.95186,8.8899 0.0534,-0.0176 0.18458,0.004 0.23992,-0.12326 0.32914,-0.30341 0.64528,-0.792 1.10011,-0.83097 0.1918,-0.55974 0.46213,-1.08808 0.64564,-1.65088 0.18185,-0.0628 0.44736,0.0191 0.56091,-0.13619 0.26758,-0.36601 -0.11903,-1.28479 0.31682,-1.63758 0.31946,-0.93992 0.87921,-1.67283 1.03686,-2.64179 0.54863,-0.93242 1.02787,-1.80831 1.00411,-2.92461 0.36923,-1.61344 0.99729,-3.07866 1.94267,-4.44937 0.98166,-2.13316 1.96024,-4.2609 3.4177,-6.12501 1.73943,-2.31045 3.19293,-4.7959 4.86556,-7.15455 1.97368,-2.64926 3.69953,-5.44533 5.2455,-8.36709 1.51303,-2.57718 2.84746,-5.26795 4.70707,-7.61948 1.33554,-2.23143 2.72726,-4.42367 4.37316,-6.44378 1.08397,-1.712749 2.15439,-3.456567 3.69439,-4.806327 2.65337,-5.834893 9.25694,-12.13919 16.05311,-10.479842 0.76199,-0.06577 0.33051,-0.324779 1.19414,1.096365 -0.003,0.09573 -0.007,0.191466 -0.008,0.28727 -0.004,0.252193 -0.009,0.505629 0.007,0.757021 -0.0213,0.357513 -0.0313,0.715646 -0.0414,1.073667 -0.0584,2.265864 -0.0927,4.533541 -0.0318,6.799718 0,0 -14.60893,7.443628 -14.60893,7.443628 z"
       inkscape:connector-curvature="0"
       inkscape:export-xdpi="90"
       inkscape:export-ydpi="90" />
    <path
       style="fill:#000000;fill-opacity:1;stroke:#000000;stroke-opacity:1"
       id="path4146"
       d="m 171.07471,88.659047 c 1.56318,3.239679 3.0725,6.516045 4.88935,9.623207 1.501,2.542496 3.29211,4.878876 5.00632,7.273796 1.41544,2.17804 3.24326,4.0347 4.81323,6.09057 1.45943,1.85383 2.49968,3.98083 3.70363,5.99803 0.9946,1.74377 2.18375,3.37068 3.20108,5.09779 0.62352,1.29163 1.46424,2.4363 2.39201,3.52096 0.93234,1.01466 1.57384,2.24736 2.407,3.34293 0.99084,0.91097 1.58978,2.17183 2.50212,3.13089 0.52146,0.73355 1.26578,1.25699 1.81449,1.94897 0.31318,0.17445 0.33882,0.7503 0.61487,0.9486 0.0333,0.0239 0.009,-0.0935 0.0444,-0.11479 0.0313,-0.0191 0.30631,6.2e-4 0.32874,0.002 0.2027,0.0231 0.33471,0.006 0.4449,-0.12455 -0.0356,-0.11298 -0.11296,-0.20082 -0.18192,-0.29554 0,0 -12.97541,10.29438 -12.97541,10.29438 l 0,0 c -0.0799,-0.098 -0.15584,-0.20135 -0.25227,-0.28424 -0.239,-0.14735 -0.50458,-0.23988 -0.75248,-0.37258 -0.62914,-0.37692 -1.02399,-0.91012 -1.39447,-1.5268 -0.66496,-0.61477 -1.20142,-1.30679 -1.80257,-1.98008 -0.84853,-1.06798 -1.57728,-2.22722 -2.5292,-3.21908 -0.81926,-1.06963 -1.4505,-2.26798 -2.35435,-3.26969 -0.98771,-1.15889 -1.88148,-2.39718 -2.52694,-3.78347 -0.99622,-1.73317 -2.17626,-3.35893 -3.15586,-5.10454 -1.1678,-1.96091 -2.17699,-4.02584 -3.59199,-5.83063 -1.61493,-2.0429 -3.36908,-3.98221 -4.81014,-6.15797 -1.76707,-2.42128 -3.54198,-4.82957 -5.04243,-7.43168 -1.84662,-3.13119 -3.25644,-6.495562 -5.0231,-9.673343 0,0 14.231,-8.10291 14.231,-8.10291 z"
       inkscape:connector-curvature="0"
       inkscape:export-xdpi="90"
       inkscape:export-ydpi="90" />
    <path
       style="fill:#000000;fill-opacity:1;stroke:#000000;stroke-opacity:1"
       id="path4148"
       d="m 403.81536,83.524006 c 0.45829,3.833704 0.25056,7.678159 -0.63621,11.427021 -1.04497,3.821743 -3.11362,7.232353 -5.20241,10.559313 -2.15449,3.53551 -4.55809,6.88972 -7.21968,10.058 -2.83821,3.33868 -6.13883,6.25331 -9.44349,9.11838 -3.43783,2.91651 -7.05988,5.6062 -10.72823,8.22334 -3.34518,2.21194 -6.20957,5.03404 -9.30174,7.56833 -2.28658,1.72592 -4.52837,3.50577 -6.69502,5.38 -1.43455,1.14231 -2.45742,2.66797 -3.77476,3.92641 -1.00953,0.68594 -1.56198,1.77318 -2.46041,2.56064 -4.84913,4.08367 -10.25349,8.40529 -16.53726,9.4792 -7.68931,0.0325 16.35651,-12.04122 12.54336,-7.69612 -1.283,5.91487 0.007,0.49621 -14.66265,8.82444 -0.33526,0.19034 -0.62408,0.0514 -0.84775,-0.18753 -0.23213,-0.41317 -0.4739,-0.82108 -0.69638,-1.23953 -0.0878,-0.16507 -0.30165,-0.6709 -0.1759,-0.53256 0.33586,0.36947 0.19544,0.56935 0.33273,0.29611 -0.28169,-0.9047 0.1746,-0.71595 0.52148,-1.24225 0.33182,-0.59929 0.1555,-0.30904 0.5279,-0.87139 0.74076,-1.10852 1.22303,-2.30174 2.16184,-3.28176 0.66746,-0.59747 1.35239,-1.17481 2.02945,-1.76129 0,0 15.14367,-6.31644 15.14367,-6.31644 l 0,0 c -0.57936,0.73142 -1.18317,1.33198 -1.95105,1.87208 -1.15573,0.87392 -1.8856,1.4451 -2.26025,2.92502 -0.18483,0.24136 -0.41263,0.45185 -0.56994,0.712 -0.28423,0.47007 -0.11275,1.18369 -0.81769,0.56301 0.16634,1.53671 0.51477,1.00563 -0.7107,-0.66025 -0.23125,-0.41657 0.35889,-0.51626 0.27542,-0.46719 -13.77036,8.09597 -18.85464,6.82996 -13.37596,8.10985 2.16271,-5.77808 9.99994,-7.29212 15.61069,-9.12981 6.53585,-2.9368 -18.49652,11.72453 -11.81612,6.77294 0.35839,-0.28522 0.95745,-0.5515 1.26029,-0.88603 0.46134,-0.50962 0.55492,-1.31211 1.25894,-1.62316 1.41442,-1.22717 2.58802,-2.5731 3.82055,-3.96845 2.1522,-1.95711 4.40743,-3.80593 6.76639,-5.50857 3.20962,-2.44671 6.012,-5.37704 9.3301,-7.67239 3.67686,-2.58125 7.30996,-5.22769 10.77673,-8.08816 3.33525,-2.77814 6.60172,-5.69082 9.54429,-8.88219 2.6905,-3.08453 5.14605,-6.33355 7.28157,-9.83137 2.05464,-3.21723 4.17525,-6.46074 5.3953,-10.10538 1.05283,-3.500461 1.35489,-7.204228 0.79686,-10.82972 0,0 14.50604,-7.594544 14.50604,-7.594544 z"
       inkscape:connector-curvature="0"
       inkscape:export-xdpi="90"
       inkscape:export-ydpi="90" />
    <path
       style="fill:#000000;fill-opacity:1;stroke:#000000;stroke-opacity:1"
       id="path4150"
       d="m 409.72969,90.374072 c 2.49301,2.394488 4.49817,5.137604 6.11516,8.178569 1.29814,2.487549 2.46344,5.042929 3.32137,7.715709 0.70984,2.5844 1.49944,5.14528 2.39129,7.67253 0.98962,2.68723 2.02525,5.35341 3.15348,7.98562 1.17974,2.55229 2.08149,5.22095 3.41113,7.70209 1.42524,2.22165 2.73674,4.51364 4.15476,6.7392 1.11013,1.78007 2.32273,3.49487 3.4499,5.26318 0.93643,1.57155 2.05999,3.01012 3.2622,4.38375 1.28953,1.158 1.89974,2.80779 2.87454,4.18502 0.87915,0.82041 1.5701,1.75313 2.24406,2.74298 0.49227,0.97378 1.1665,1.78576 1.7749,2.67156 0.37446,0.67203 1.06156,0.7845 1.48955,1.40903 0.25668,0.4138 0.4216,0.87016 0.55723,1.33472 0.049,0.18712 0.13329,0.36143 0.21231,0.53708 0,0 -15.06649,6.88023 -15.06649,6.88023 l 0,0 c 0.0506,0.10147 0.1063,0.28047 0.21279,0.30233 0.0255,-0.20639 -0.0181,-0.41476 -0.11029,-0.60338 -0.50042,-0.25344 -1.17571,-0.86902 -1.49674,-1.48177 -0.65278,-0.87312 -1.2224,-1.7539 -1.76343,-2.69875 -0.69321,-0.98042 -1.45465,-1.86726 -2.24581,-2.76971 -0.88476,-1.36511 -1.51026,-2.89969 -2.74616,-4.02423 -1.24384,-1.43578 -2.37527,-2.96438 -3.35346,-4.59479 -1.16734,-1.75214 -2.3273,-3.50611 -3.43894,-5.29451 -1.42276,-2.26286 -2.74221,-4.59134 -4.17164,-6.85087 -1.39089,-2.50356 -2.29582,-5.22723 -3.48962,-7.82752 -1.16483,-2.6524 -2.1825,-5.36372 -3.20027,-8.07525 -0.94028,-2.5322 -1.76599,-5.11274 -2.43023,-7.73141 -0.79529,-2.59149 -1.96383,-5.0345 -3.15805,-7.46362 -1.54287,-2.91123 -3.39142,-5.56917 -5.92472,-7.726233 0,0 13.97118,-8.561555 13.97118,-8.561555 z"
       inkscape:connector-curvature="0"
       inkscape:export-xdpi="90"
       inkscape:export-ydpi="90" />
    <path
       style="fill:#000000;fill-opacity:1;stroke:#000000;stroke-opacity:1"
       id="path4152"
       d="m 395.14017,555.64428 c 2.37365,-1.99033 4.8943,-3.79319 7.33604,-5.69728 0.26817,-0.21768 1.46734,-1.20793 1.76245,-1.37922 4.95194,-2.8743 9.9442,-5.67857 14.92354,-8.50513 0.52817,-0.29982 2.13483,-1.15885 1.6087,-0.85546 -4.43693,2.55848 -8.88273,5.10153 -13.3241,7.6523 1.30252,-0.72839 2.43577,-1.69617 3.52401,-2.70674 0.6,-0.32916 0.91775,-1.1622 1.48548,-1.50144 0.60879,-0.36378 36.73422,-21.408 0.81394,-0.48112 0.39207,-0.22209 0.66884,-0.57917 0.99337,-0.87899 4.58123,2.31972 9.40607,-8.38853 15.31226,-8.38983 0.71304,0.13201 1.71978,2.22862 0.62823,1.72092 -0.10082,0.53671 -6.4e-4,1.17585 0.0322,1.74488 0.0451,0.52354 0.0543,1.04769 0.0484,1.57282 0.0125,0.8681 -0.006,1.73563 -0.0155,2.60374 0.0804,1.63963 -0.0453,3.21352 -0.52842,4.78209 -0.76929,2.08932 -1.88288,4.02409 -2.75121,6.07037 -0.79238,2.66541 -1.5799,5.3312 -2.48713,7.96024 -1.04154,2.55703 -1.96787,5.12278 -2.70722,7.78215 -0.7318,2.26057 -1.13917,4.58815 -1.35969,6.94755 -0.14,1.69951 -0.13127,3.40438 -0.13126,5.10794 0.019,0.89586 0.0248,1.79184 0.0426,2.6877 1.1e-4,0.55202 0.0154,1.10458 0.006,1.6566 -0.0602,0.40291 0.4435,0.977 0.66652,1.57036 0.31797,1.03433 0.81718,1.98672 1.11774,3.03066 0.25715,1.14571 0.79578,2.19 1.11099,3.32101 0.24936,1.14603 0.78953,2.18874 1.10461,3.31795 0.16564,0.65263 0.28476,1.31536 0.39832,1.97857 0.009,0.10961 0.0505,0.20646 0.0895,0.30705 0,0 -14.84126,7.35123 -14.84126,7.35123 l 0,0 c 0.0209,-0.004 0.0953,0.16609 0.0791,-0.0143 -0.0139,-0.5993 -0.0935,-1.19458 -0.20964,-1.78283 -0.25673,-1.15295 -0.85433,-2.17301 -1.10456,-3.31845 -0.25601,-1.15058 -0.84859,-2.1686 -1.10677,-3.30922 -0.23548,-1.03236 -0.76597,-1.9278 -1.08675,-2.92159 -0.19058,-0.74404 -0.93614,-1.24115 -0.93389,-2.03172 -0.0104,-0.55039 0.005,-1.10126 9e-5,-1.6517 0.01,-0.90832 0.002,-1.81672 0.0167,-2.72505 -0.002,-1.751 4e-5,-3.50555 0.11141,-5.25314 0.18394,-2.45337 0.49241,-4.91059 1.27618,-7.25419 0.76674,-2.68614 1.42288,-5.36414 2.67117,-7.88588 0.95209,-2.60116 1.76819,-5.25506 2.46755,-7.93506 0.59601,-2.14978 1.7959,-4.02856 2.68077,-6.07145 0.61128,-1.39652 0.90354,-2.70574 0.73688,-4.24155 -0.009,-0.86025 -0.0258,-1.71989 -0.0165,-2.58013 -0.01,-0.5042 -0.007,-1.0085 -0.0193,-1.51266 -0.0201,-0.65936 -0.0243,-1.32776 -0.17687,-1.97289 -0.46045,-2.61611 1.18377,0.36747 0.81818,0.66927 -6.27916,0.0312 12.90744,-13.93694 13.14462,-8.13962 -0.13098,0.55432 -0.49931,1.01907 -0.79806,1.491 -4.8037,2.86645 -10.11365,5.01829 -14.4111,8.59936 -4.04687,3.37227 9.11632,-5.28144 13.64947,-7.9647 0.149,-0.0882 -0.34304,0.0819 -0.48911,0.17483 -0.42924,0.27314 -0.6755,0.8216 -1.09905,1.10813 -1.09727,1.06291 -2.17749,2.16233 -3.43375,3.03946 -4.93501,2.85405 -9.86307,5.72016 -14.80504,8.56214 -4.91846,2.82848 -10.76848,6.32663 11.56644,-6.82842 0.31416,-0.18504 -0.68376,0.26646 -0.99126,0.46236 -0.32244,0.20543 -0.58876,0.48788 -0.88314,0.73182 -2.38669,1.9469 -4.93769,3.67789 -7.30444,5.64687 0,0 -15.20787,6.13838 -15.20787,6.13838 z"
       inkscape:connector-curvature="0"
       inkscape:export-xdpi="90"
       inkscape:export-ydpi="90" />
    <path
       style="fill:#000000;fill-opacity:1;stroke:#000000;stroke-opacity:1"
       id="path4156"
       d="m 162.58342,548.34738 c -0.71653,-2.54959 -0.96864,-5.10832 -0.56558,-7.72075 0.20818,-1.49185 0.66604,-2.88532 1.78012,-3.92447 5.0282,-4.2537 10.6916,-6.53997 16.68297,-10.10455 4.46652,-2.65738 -9.00701,5.1884 -13.51051,7.7826 5.49417,-3.17725 10.3341,-9.28972 16.77656,-9.20035 0.87051,-0.0129 1.74305,-0.0207 2.6139,0.001 0.91035,0.2546 2.11694,0.71535 2.86909,1.34461 0.56634,0.69313 1.31633,0.79108 2.14339,0.9115 0.75849,-0.0281 1.18888,1.08084 1.92411,1.0574 0.38268,0.0376 0.78515,0.17873 1.15758,0.0421 0.68132,0.0496 1.27238,1.19691 1.51457,1.80445 0.23925,0.90643 0.21006,1.85971 0.20919,2.79028 -0.0145,1.36568 -0.0135,2.73159 -0.0182,4.09744 0.0108,1.37539 -0.002,2.75058 -0.007,4.12598 -0.0101,1.60789 0.009,3.21614 -0.007,4.82401 0.15311,1.87075 -0.48918,3.57131 -1.17254,5.26999 -0.55968,1.72896 -1.32472,3.36454 -2.161,4.97263 -0.66498,1.64327 -1.3244,3.27387 -1.8638,4.96212 -0.47531,1.47602 -1.35612,2.75687 -2.04983,4.13066 -0.8314,1.23938 -1.2379,2.67587 -1.83262,4.03297 -0.37247,1.1622 -0.91578,2.24698 -1.51646,3.30451 -0.65171,0.71936 -1.10128,1.44837 -1.35222,2.38805 -0.11785,1.00536 -0.33401,2.01406 -0.85734,2.89125 -0.27266,0.79673 -0.49182,1.65186 -1.07049,2.29165 -0.0625,0.89463 -0.7859,1.31571 -1.10568,2.075 -0.6949,0.49882 -1.17696,1.18596 -1.70144,1.88852 -0.45249,0.70613 -1.10546,1.25583 -1.5084,1.98888 -5.21794,3.3966 -10.4031,6.99855 -16.2841,9.46308 -0.96036,0.35045 -1.13291,-1.28803 -1.46328,-1.92616 0.22075,-0.2077 0.55007,-0.51176 0.80326,-0.76558 0.72389,-0.62238 36.81866,-21.53502 0.94492,-0.7465 -0.17229,0.0998 0.36869,-0.15727 0.5636,-0.19805 0.0866,-0.0634 0.22833,0.1946 0.23254,0.19211 4.85252,-2.87044 9.70674,-5.74009 14.49021,-8.72419 0.12027,-0.075 0.2623,-0.4717 0.13888,-0.40196 -4.6269,2.61458 -9.15999,5.39181 -13.73999,8.08771 -0.20109,-0.26552 0.23302,-0.12307 0.23169,-0.23247 -0.003,-0.20989 -0.27799,-0.51584 -0.097,-0.62221 4.97186,-2.92227 9.6474,-8.72626 15.36292,-7.9569 0.31075,0.0334 0.6226,0.0594 0.9282,0.12561 0.278,0.19689 -0.0259,-0.0448 0.29702,-0.0557 0.34433,-0.0118 0.68829,-0.005 1.03261,-0.003 0.4899,-0.002 0.97962,0.004 1.46954,-8.3e-4 0.48921,-0.007 0.97841,0.006 1.4677,0.007 0.60974,-0.005 1.21938,6e-4 1.82913,-0.006 0.79531,0.006 1.59063,0.0123 2.38597,0.0109 0.77949,-0.0118 1.55899,-10e-4 2.33851,-0.002 0.81897,0.005 1.63793,-10e-4 2.45689,-0.003 0.74235,0.005 1.48471,5.4e-4 2.22706,-7e-4 0.55343,-0.006 1.10675,2.3e-4 1.66021,-0.006 0.46707,0.008 0.93427,0.003 1.40131,-0.005 0.29206,-0.002 0.5841,0.004 0.87631,0.002 0.48136,0.55105 0.81743,1.17331 1.02525,1.86743 0.26828,0.56598 -0.97361,-0.63703 0.0926,-0.73196 0.35156,-0.0394 0.70665,-0.0255 1.06012,-0.0313 0.1514,-0.002 0.30274,-0.007 0.45402,-0.0125 0.0114,0.005 0.0133,-0.004 0.0165,-0.005 0,0 -13.38538,9.75636 -13.38538,9.75636 l 0,0 c -0.006,-10e-4 -0.0127,-0.01 -0.0205,-0.005 -0.14493,-0.003 -0.28986,-0.006 -0.43484,-0.006 -0.36935,-10e-4 -0.74168,0.0225 -1.10822,-0.029 -0.67909,-0.10269 -1.02948,-0.3976 -1.27112,-1.1414 -0.0122,-0.29486 -0.15138,-0.68745 0.19285,0.0592 -0.29416,-0.002 -0.58816,0.004 -0.88216,0.002 -0.46282,-0.008 -0.9258,-0.0124 -1.38865,-0.005 -0.54827,-0.006 -1.09641,7.7e-4 -1.64465,-0.006 -0.74171,-10e-4 -1.48342,-0.005 -2.22514,-7e-4 -0.81605,-0.002 -1.6321,-0.008 -2.44817,-0.003 -0.77756,-10e-4 -1.5551,0.01 -2.33262,-0.002 -0.80539,-10e-4 -1.61076,0.005 -2.4161,0.0109 -0.60413,-0.007 -1.20815,-6.7e-4 -1.81227,-0.006 -0.49566,9.1e-4 -0.99126,0.0141 -1.48686,0.007 -0.48873,-0.005 -0.97725,0.002 -1.46596,7.4e-4 -0.3492,0.003 -0.69811,0.0124 -1.04735,-2.7e-4 -0.22583,-0.009 -0.45597,-0.29771 -0.42173,-0.0851 -0.26066,0.009 -0.5223,-0.0101 -0.78257,0.0169 -5.7816,1.00219 2.75521,-1.26518 13.38271,-7.82844 0.0856,-0.0528 -0.53364,-0.94564 -0.45789,0.21559 -4.73989,2.97474 -9.42176,6.04399 -14.21966,8.92423 -0.14257,0.0856 -0.62803,-0.001 -0.48997,-0.0939 4.43353,-2.97675 8.95818,-5.81676 13.49309,-8.63667 0.0655,-0.0408 0.12358,0.41318 0.13593,0.61784 -0.0313,0.22951 -0.10352,0.74801 -0.32458,0.88029 -39.65165,23.72845 0.40102,-0.84666 -1.00974,0.4819 -0.24235,0.242 -0.59295,0.61782 -0.76748,0.78601 -0.17503,-0.27949 -1.73865,-1.61994 -0.93075,-2.06324 4.90596,-2.69548 -1.57837,0.86511 -13.51658,7.79534 -0.23216,0.13477 0.53578,-0.13666 0.7458,-0.30385 0.12884,-0.10257 0.19928,-0.26225 0.29891,-0.39338 0.14525,-0.10926 0.29049,-0.21853 0.43573,-0.3278 0.75525,0.0704 1.25188,-0.91561 1.75873,-1.4145 0.291,-0.36992 0.63364,-0.73678 0.88632,-1.1334 0.16501,-0.25903 0.17829,-0.60981 0.38476,-0.83718 0.0797,-0.0878 0.22145,-0.0848 0.33218,-0.12726 0.65959,-0.14439 0.31206,-0.43464 0.68309,-0.88488 0.30263,-0.36724 0.74929,0.17102 0.68784,-0.58061 0.15492,-0.86533 0.92108,-1.37241 1.11352,-2.20989 0.18224,-0.94592 0.98431,-1.65485 1.00175,-2.6385 0.0845,-1.07649 0.23206,-2.309 1.01124,-3.11314 0.803,-0.77947 1.36525,-1.86824 1.73875,-2.90747 0.25428,-0.74125 0.64616,-1.39586 0.91599,-2.1259 0.0176,-0.0475 0.44378,-1.60147 0.44623,-1.60715 0.0841,-0.19486 0.2386,-0.35109 0.3579,-0.52664 0.8199,-1.23506 1.41015,-2.63189 2.19441,-3.88904 0.69999,-1.64321 1.04882,-3.41731 1.84081,-5.0303 0.57207,-1.70126 1.75162,-3.13807 2.17912,-4.91634 0.55189,-1.55383 1.51521,-3.03139 1.42799,-4.73415 -0.017,-1.60548 0.003,-3.21136 -0.007,-4.81686 -0.005,-1.37462 -0.0175,-2.74906 -0.002,-4.12365 -4.2e-4,-1.35966 0.008,-2.71935 -0.003,-4.07889 -0.005,-0.78854 0.002,-1.57801 -0.0328,-2.36582 -0.0945,-0.4907 -0.14346,-0.003 -0.43397,-0.0679 -0.50468,-0.14818 -1.01303,-0.29767 -1.48074,-0.54345 -0.56611,-0.38717 -1.06056,-0.76021 -1.7553,-0.81938 -0.91611,-0.29901 -1.71542,-0.75837 -2.44342,-1.39388 -0.79294,-0.26923 -1.49246,-0.71515 -2.34357,-0.54355 -0.80904,0.0209 -1.62933,0.0162 -2.41233,0.25107 -6.66209,3.23567 19.12996,-11.50192 11.72463,-6.68399 -4.88773,2.82731 -9.73826,5.71993 -14.66319,8.48193 -4.36397,2.44741 17.19355,-10.24046 12.94971,-7.5902 -0.55209,0.34478 -0.94407,0.92537 -1.5344,1.22247 -1.21228,0.83593 -2.05798,1.22994 -2.29791,2.87659 -0.51361,2.41241 -0.65569,4.73065 0.22557,7.11056 0,0 -14.41767,7.79678 -14.41767,7.79678 z"
       inkscape:connector-curvature="0"
       inkscape:export-xdpi="90"
       inkscape:export-ydpi="90" />
  </g>
</svg>
